{
.appVersion = "3109";
.formatVersion = 3;
.storedFormatVersion = 1;
DisplayStrings = (
"/tinco_sarincefina-teng.short/sarincefina-teng.short/dottedCircle.ss01.upright",
"/tinco_sarincefina-teng.short/sarincefina-teng.short/dottedCircle.ss01.upright",
"/lambe-teng/alda-teng/lambe-teng.big/alda-teng.big",
"/wave-teng",
"/sarincefina-teng.top",
"/tinco-teng/parma-teng/calma-teng/quesse-teng/ando-teng/umbar-teng/anga-teng/ungwe-teng/thuule-teng/formen-teng/harma-teng/hwesta-teng \012/anto-teng/ampa-teng/anca-teng/unque-teng/nuumen-teng/malta-teng/noldo-teng/nwalme-teng/oore-teng/vala-teng/vala_dotinside-teng \012/anna-teng/vilya-teng/vilya_dotinside-teng/tincoascent-teng/parmaascent-teng/calmaascent-teng/quesseascent-teng/andoascent-teng/umbarascent-teng/angaascent-teng/ungweascent-teng/roomen-teng/arda-teng \012/lambe-teng/alda-teng/silme-teng/silmeturned-teng/aare-teng/aareturned-teng/hyarmen-teng/hwestasindar-teng/yanta-teng/uure-teng/carrierlong-teng/halla-teng/carriershort-teng/ossereversed-teng/wbombadil-teng/osse-teng/carrierschwa-teng/annaopen-teng/quchris-teng \012/hwbombadil-teng/mh-teng/mhbelerian-teng/hwlowdham-teng/vaiya-teng/sarincefina-teng/uureslash-teng/uureslashAlt-teng/carrierlongAlt-teng/lambe-teng.big/alda-teng.big/roomen-teng.bottom/arda-teng.bottom",

glyphs = (
{
color = 10;
glyphname = A;
lastChange = "2022-01-06 02:32:25 +0000";
layers = (
{
layerId = "4397B867-53E7-4964-BB9B-A578920F109C";
shapes = (
{
closed = 1;
nodes = (
(195,0,l),
(195,34,l),
(177,34,ls),
(141,34,o),
(124,46,o),
(124,73,cs),
(124,82,o),
(126,94,o),
(131,107,cs),
(162,191,l),
(372,191,l),
(404,102,ls),
(408,90,o),
(410,81,o),
(410,72,cs),
(410,46,o),
(394,34,o),
(362,34,cs),
(344,34,l),
(344,0,l),
(564,0,l),
(564,34,l),
(554,34,ls),
(522,34,o),
(510,43,o),
(497,76,cs),
(316,571,l),
(254,571,l),
(76,96,ls),
(56,44,o),
(46,34,o),
(15,34,cs),
(0,34,l),
(0,0,l)
);
},
{
closed = 1;
nodes = (
(231,378,ls),
(249,426,o),
(261,460,o),
(268,498,c),
(277,459,o),
(291,418,o),
(308,371,cs),
(358,231,l),
(177,231,l)
);
}
);
userData = {
assembly = "NPUSHB[ ]	/* 62 values pushed */
175 49 1 49 64 10 13 72 41 37 1 19 40 47 36 35 40 35 46 0 1 40 1 18 40 40 11 41 35 1 35 20 20 26 49 15 49 1 1 17 17 11 35 36 0 94 47 46 46 40 19 18 3 29 25 7 11 93 28 10 18 1 
SVTCA[0]	/* SetFreedomAndProjectionVectorToAxis */
MDAP[1]	/* MoveDirectAbsPt */
MIAP[1]	/* MoveIndirectAbsPt */
SHP[1]	/* ShiftPointByLastPoint */
MIRP[00001]	/* MoveIndirectRelPt */
SHP[0]	/* ShiftPointByLastPoint */
SHP[0]	/* ShiftPointByLastPoint */
SHP[0]	/* ShiftPointByLastPoint */
MIAP[1]	/* MoveIndirectAbsPt */
SHP[1]	/* ShiftPointByLastPoint */
SHP[1]	/* ShiftPointByLastPoint */
IP[ ]	/* InterpolatePts */
MDAP[1]	/* MoveDirectAbsPt */
SHP[1]	/* ShiftPointByLastPoint */
MIRP[00001]	/* MoveIndirectRelPt */
SHP[0]	/* ShiftPointByLastPoint */
MDAP[1]	/* MoveDirectAbsPt */
SVTCA[1]	/* SetFreedomAndProjectionVectorToAxis */
MDAP[1]	/* MoveDirectAbsPt */
SHP[1]	/* ShiftPointByLastPoint */
SRP1[ ]	/* SetRefPoint1 */
SHP[1]	/* ShiftPointByLastPoint */
DELTAP1[ ]	/* DeltaExceptionP1 */
SRP0[ ]	/* SetRefPoint0 */
MDRP[00100]	/* MoveDirectRelPt */
SHP[0]	/* ShiftPointByLastPoint */
SRP1[ ]	/* SetRefPoint1 */
SHP[1]	/* ShiftPointByLastPoint */
DELTAP1[ ]	/* DeltaExceptionP1 */
SRP1[ ]	/* SetRefPoint1 */
IP[ ]	/* InterpolatePts */
SRP1[ ]	/* SetRefPoint1 */
SHP[1]	/* ShiftPointByLastPoint */
SRP0[ ]	/* SetRefPoint0 */
SDPVTL[1]	/* SetDualPVectorToLine */
MDRP[00000]	/* MoveDirectRelPt */
MDRP[00000]	/* MoveDirectRelPt */
SRP0[ ]	/* SetRefPoint0 */
SDPVTL[1]	/* SetDualPVectorToLine */
MDRP[00000]	/* MoveDirectRelPt */
MDRP[00000]	/* MoveDirectRelPt */
SRP1[ ]	/* SetRefPoint1 */
SVTCA[1]	/* SetFreedomAndProjectionVectorToAxis */
SHP[1]	/* ShiftPointByLastPoint */
IUP[1]	/* InterpolateUntPts */
IUP[0]	/* InterpolateUntPts */
DELTAP1[ ]	/* DeltaExceptionP1 */
CALL[ ]	/* CallFunction */
DELTAP1[ ]	/* DeltaExceptionP1 */";
};
width = 564;
},
{
layerId = "0ED38B93-C2B0-4B4A-9C6D-D7838A33C317";
shapes = (
{
closed = 1;
nodes = (
(211,0,l),
(211,42,l),
(178,42,ls),
(159,42,o),
(142,53,o),
(142,74,cs),
(142,86,o),
(147,106,o),
(151,119,cs),
(174,188,l),
(369,188,l),
(397,108,ls),
(400,99,o),
(404,86,o),
(404,74,cs),
(404,51,o),
(386,42,o),
(370,42,cs),
(338,42,l),
(338,0,l),
(602,0,l),
(602,42,l),
(588,42,ls),
(562,42,o),
(542,56,o),
(527,100,cs),
(360,571,l),
(250,571,l),
(77,101,ls),
(58,54,o),
(42,42,o),
(13,42,cs),
(3,42,l),
(3,0,l)
);
},
{
closed = 1;
nodes = (
(238,372,ls),
(250,409,o),
(267,454,o),
(277,488,c),
(286,450,o),
(299,404,o),
(310,368,cs),
(353,237,l),
(191,237,l)
);
}
);
userData = {
assembly = "NPUSHB[ ]	/* 93 values pushed */
41 54 47 37 47 53 0 4 47 4 117 21 1 21 20 47 47 19 37 28 182 22 1 169 22 1 116 22 1 102 22 1 64 22 80 22 2 4 22 52 22 2 22 22 56 4 13 118 19 166 19 182 19 3 105 19 1 4 19 52 19 2 19 41 0 0 54 96 53 1 53 53 20 4 37 22 19 4 21 13 21 47 20 3 9 27 31 3 13 13 30 12 18 
SVTCA[0]	/* SetFreedomAndProjectionVectorToAxis */
MIAP[1]	/* MoveIndirectAbsPt */
SHP[1]	/* ShiftPointByLastPoint */
SHP[1]	/* ShiftPointByLastPoint */
SRP1[ ]	/* SetRefPoint1 */
SLOOP[ ]	/* SetLoopVariable */
SHP[1]	/* ShiftPointByLastPoint */
MIAP[1]	/* MoveIndirectAbsPt */
SHP[1]	/* ShiftPointByLastPoint */
SHP[1]	/* ShiftPointByLastPoint */
SRP1[ ]	/* SetRefPoint1 */
SRP2[ ]	/* SetRefPoint2 */
SLOOP[ ]	/* SetLoopVariable */
IP[ ]	/* InterpolatePts */
SRP2[ ]	/* SetRefPoint2 */
IP[ ]	/* InterpolatePts */
MDAP[1]	/* MoveDirectAbsPt */
DELTAP1[ ]	/* DeltaExceptionP1 */
SHP[1]	/* ShiftPointByLastPoint */
SHP[1]	/* ShiftPointByLastPoint */
SRP1[ ]	/* SetRefPoint1 */
SHP[1]	/* ShiftPointByLastPoint */
SVTCA[1]	/* SetFreedomAndProjectionVectorToAxis */
MDAP[1]	/* MoveDirectAbsPt */
DELTAP1[ ]	/* DeltaExceptionP1 */
DELTAP1[ ]	/* DeltaExceptionP1 */
DELTAP1[ ]	/* DeltaExceptionP1 */
SHP[1]	/* ShiftPointByLastPoint */
SHP[1]	/* ShiftPointByLastPoint */
SRP1[ ]	/* SetRefPoint1 */
SHP[1]	/* ShiftPointByLastPoint */
MDAP[1]	/* MoveDirectAbsPt */
DELTAP1[ ]	/* DeltaExceptionP1 */
DELTAP1[ ]	/* DeltaExceptionP1 */
DELTAP1[ ]	/* DeltaExceptionP1 */
DELTAP1[ ]	/* DeltaExceptionP1 */
DELTAP1[ ]	/* DeltaExceptionP1 */
DELTAP1[ ]	/* DeltaExceptionP1 */
SHP[1]	/* ShiftPointByLastPoint */
SHP[1]	/* ShiftPointByLastPoint */
SRP2[ ]	/* SetRefPoint2 */
IP[ ]	/* InterpolatePts */
SRP1[ ]	/* SetRefPoint1 */
SHP[1]	/* ShiftPointByLastPoint */
SHP[1]	/* ShiftPointByLastPoint */
DELTAP1[ ]	/* DeltaExceptionP1 */
SRP0[ ]	/* SetRefPoint0 */
SDPVTL[1]	/* SetDualPVectorToLine */
MDRP[00000]	/* MoveDirectRelPt */
MDRP[00000]	/* MoveDirectRelPt */
SRP0[ ]	/* SetRefPoint0 */
SDPVTL[1]	/* SetDualPVectorToLine */
MDRP[00000]	/* MoveDirectRelPt */
MDRP[00000]	/* MoveDirectRelPt */
IUP[1]	/* InterpolateUntPts */
IUP[0]	/* InterpolateUntPts */";
};
width = 602;
}
);
note = uni0041;
unicode = 65;
},
{
color = 10;
glyphname = B;
lastChange = "2022-01-06 02:32:25 +0000";
layers = (
{
layerId = "4397B867-53E7-4964-BB9B-A578920F109C";
shapes = (
{
closed = 1;
nodes = (
(269,0,ls),
(407,0,o),
(474,51,o),
(474,154,cs),
(474,239,o),
(424,286,o),
(351,299,c),
(351,302,l),
(407,321,o),
(450,354,o),
(450,428,cs),
(450,526,o),
(383,571,o),
(245,571,cs),
(30,571,l),
(30,538,l),
(41,538,ls),
(75,538,o),
(106,531,o),
(106,483,cs),
(106,91,ls),
(106,42,o),
(78,34,o),
(41,34,cs),
(30,34,l),
(30,0,l)
);
},
{
closed = 1;
nodes = (
(187,279,l),
(266,279,ls),
(361,279,o),
(389,239,o),
(389,157,cs),
(389,71,o),
(356,40,o),
(265,40,cs),
(187,40,l)
);
},
{
closed = 1;
nodes = (
(187,531,l),
(241,531,ls),
(331,531,o),
(365,506,o),
(365,428,cs),
(365,351,o),
(336,319,o),
(242,319,cs),
(187,319,l)
);
}
);
userData = {
assembly = "NPUSHB[ ]	/* 47 values pushed */
5 47 11 53 91 112 0 1 0 40 91 11 103 61 127 61 1 64 61 1 47 34 90 22 100 60 5 46 94 47 47 1 47 47 16 59 94 29 93 30 3 16 93 34 94 15 18 
SVTCA[0]	/* SetFreedomAndProjectionVectorToAxis */
MIAP[1]	/* MoveIndirectAbsPt */
MIRP[00001]	/* MoveIndirectRelPt */
MIRP[00001]	/* MoveIndirectRelPt */
MIAP[1]	/* MoveIndirectAbsPt */
MIRP[00001]	/* MoveIndirectRelPt */
MIRP[00001]	/* MoveIndirectRelPt */
SRP2[ ]	/* SetRefPoint2 */
IP[ ]	/* InterpolatePts */
MDAP[1]	/* MoveDirectAbsPt */
DELTAP1[ ]	/* DeltaExceptionP1 */
MIRP[00001]	/* MoveIndirectRelPt */
IP[ ]	/* InterpolatePts */
SVTCA[1]	/* SetFreedomAndProjectionVectorToAxis */
SRP0[ ]	/* SetRefPoint0 */
MIRP[10100]	/* MoveIndirectRelPt */
MIRP[00001]	/* MoveIndirectRelPt */
SHP[0]	/* ShiftPointByLastPoint */
DELTAP1[ ]	/* DeltaExceptionP1 */
DELTAP1[ ]	/* DeltaExceptionP1 */
SRP0[ ]	/* SetRefPoint0 */
MIRP[10110]	/* MoveIndirectRelPt */
MIRP[00001]	/* MoveIndirectRelPt */
MDRP[10100]	/* MoveDirectRelPt */
DELTAP1[ ]	/* DeltaExceptionP1 */
MIRP[00001]	/* MoveIndirectRelPt */
SRP1[ ]	/* SetRefPoint1 */
SRP2[ ]	/* SetRefPoint2 */
IP[ ]	/* InterpolatePts */
IUP[1]	/* InterpolateUntPts */
IUP[0]	/* InterpolateUntPts */";
};
width = 523;
},
{
layerId = "0ED38B93-C2B0-4B4A-9C6D-D7838A33C317";
shapes = (
{
closed = 1;
nodes = (
(280,0,ls),
(432,0,o),
(509,51,o),
(509,157,cs),
(509,234,o),
(458,282,o),
(384,300,c),
(384,304,l),
(445,323,o),
(485,356,o),
(485,426,cs),
(485,526,o),
(408,571,o),
(256,571,cs),
(22,571,l),
(22,529,l),
(55,529,ls),
(79,529,o),
(97,519,o),
(97,478,cs),
(97,94,ls),
(97,50,o),
(79,42,o),
(55,42,cs),
(22,42,l),
(22,0,l)
);
},
{
closed = 1;
nodes = (
(223,274,l),
(278,274,ls),
(352,274,o),
(374,237,o),
(374,159,cs),
(374,78,o),
(347,49,o),
(276,49,cs),
(223,49,l)
);
},
{
closed = 1;
nodes = (
(223,522,l),
(252,522,ls),
(324,522,o),
(350,498,o),
(350,426,cs),
(350,354,o),
(328,323,o),
(254,323,cs),
(223,323,l)
);
}
);
userData = {
assembly = "NPUSHB[ ]	/* 120 values pushed */
58 51 74 51 2 58 50 74 50 2 40 50 1 5 6 21 6 2 5 12 21 12 2 5 33 21 33 2 168 53 184 53 2 89 53 121 53 2 72 53 1 53 6 34 125 0 1 89 0 1 0 0 11 47 34 34 22 100 60 168 40 184 40 2 90 40 1 72 40 1 40 127 11 159 11 2 84 11 1 0 11 48 11 2 11 47 61 191 61 239 61 3 61 64 14 18 72 6 46 46 207 47 1 152 47 1 47 47 16 30 59 29 29 30 3 34 16 16 15 18 
SVTCA[0]	/* SetFreedomAndProjectionVectorToAxis */
MIAP[1]	/* MoveIndirectAbsPt */
SHP[1]	/* ShiftPointByLastPoint */
SRP1[ ]	/* SetRefPoint1 */
SHP[1]	/* ShiftPointByLastPoint */
MIAP[1]	/* MoveIndirectAbsPt */
SHP[1]	/* ShiftPointByLastPoint */
SRP0[ ]	/* SetRefPoint0 */
MDRP[00100]	/* MoveDirectRelPt */
SRP1[ ]	/* SetRefPoint1 */
SRP2[ ]	/* SetRefPoint2 */
IP[ ]	/* InterpolatePts */
MDAP[1]	/* MoveDirectAbsPt */
DELTAP1[ ]	/* DeltaExceptionP1 */
DELTAP1[ ]	/* DeltaExceptionP1 */
SHP[1]	/* ShiftPointByLastPoint */
SRP2[ ]	/* SetRefPoint2 */
IP[ ]	/* InterpolatePts */
SVTCA[1]	/* SetFreedomAndProjectionVectorToAxis */
CALL[ ]	/* CallFunction */
DELTAP1[ ]	/* DeltaExceptionP1 */
MDAP[1]	/* MoveDirectAbsPt */
DELTAP1[ ]	/* DeltaExceptionP1 */
DELTAP1[ ]	/* DeltaExceptionP1 */
DELTAP1[ ]	/* DeltaExceptionP1 */
SHP[1]	/* ShiftPointByLastPoint */
DELTAP1[ ]	/* DeltaExceptionP1 */
DELTAP1[ ]	/* DeltaExceptionP1 */
DELTAP1[ ]	/* DeltaExceptionP1 */
SRP0[ ]	/* SetRefPoint0 */
MIRP[00100]	/* MoveIndirectRelPt */
SHP[0]	/* ShiftPointByLastPoint */
SRP1[ ]	/* SetRefPoint1 */
SHP[1]	/* ShiftPointByLastPoint */
SRP2[ ]	/* SetRefPoint2 */
IP[ ]	/* InterpolatePts */
MDAP[1]	/* MoveDirectAbsPt */
DELTAP1[ ]	/* DeltaExceptionP1 */
DELTAP1[ ]	/* DeltaExceptionP1 */
SRP2[ ]	/* SetRefPoint2 */
IP[ ]	/* InterpolatePts */
SHP[1]	/* ShiftPointByLastPoint */
DELTAP1[ ]	/* DeltaExceptionP1 */
DELTAP1[ ]	/* DeltaExceptionP1 */
DELTAP1[ ]	/* DeltaExceptionP1 */
IUP[1]	/* InterpolateUntPts */
IUP[0]	/* InterpolateUntPts */
DELTAP1[ ]	/* DeltaExceptionP1 */
DELTAP1[ ]	/* DeltaExceptionP1 */
DELTAP1[ ]	/* DeltaExceptionP1 */
DELTAP1[ ]	/* DeltaExceptionP1 */
DELTAP1[ ]	/* DeltaExceptionP1 */
DELTAP1[ ]	/* DeltaExceptionP1 */";
};
width = 538;
}
);
note = uni0042;
unicode = 66;
},
{
color = 10;
glyphname = C;
lastChange = "2022-01-06 02:32:25 +0000";
layers = (
{
layerId = "4397B867-53E7-4964-BB9B-A578920F109C";
shapes = (
{
closed = 1;
nodes = (
(406,-8,o),
(461,41,o),
(461,82,cs),
(461,98,o),
(454,107,o),
(446,113,c),
(408,64,o),
(362,45,o),
(301,45,cs),
(242,45,o),
(201,70,o),
(174,112,cs),
(146,154,o),
(134,215,o),
(134,286,cs),
(134,366,o),
(146,430,o),
(172,472,cs),
(199,514,o),
(240,537,o),
(301,537,cs),
(370,537,o),
(394,483,o),
(394,434,c),
(434,434,o),
(464,455,o),
(464,490,cs),
(464,541,o),
(411,579,o),
(302,579,cs),
(134,579,o),
(46,460,o),
(46,286,cs),
(46,120,o),
(122,-8,o),
(289,-8,cs)
);
}
);
userData = {
assembly = "NPUSHB[ ]	/* 24 values pushed */
33 10 5 49 64 111 49 1 20 91 43 102 48 30 128 25 96 38 19 15 95 10 0 4 
SVTCA[0]	/* SetFreedomAndProjectionVectorToAxis */
MIAP[1]	/* MoveIndirectAbsPt */
MDRP[01100]	/* MoveDirectRelPt */
MIRP[00001]	/* MoveIndirectRelPt */
MIAP[1]	/* MoveIndirectAbsPt */
MIRP[00001]	/* MoveIndirectRelPt */
SMD[ ]	/* SetMinimumDistance */
MDRP[01100]	/* MoveDirectRelPt */
SVTCA[1]	/* SetFreedomAndProjectionVectorToAxis */
SRP0[ ]	/* SetRefPoint0 */
MIRP[10110]	/* MoveIndirectRelPt */
MIRP[00001]	/* MoveIndirectRelPt */
DELTAP1[ ]	/* DeltaExceptionP1 */
SMD[ ]	/* SetMinimumDistance */
SRP0[ ]	/* SetRefPoint0 */
MDRP[11110]	/* MoveDirectRelPt */
MDRP[00001]	/* MoveDirectRelPt */
MDRP[00100]	/* MoveDirectRelPt */
IUP[1]	/* InterpolateUntPts */
IUP[0]	/* InterpolateUntPts */";
};
width = 491;
},
{
background = {
shapes = (
{
closed = 1;
nodes = (
(458,-8,o),
(502,53,o),
(502,98,cs),
(502,111,o),
(496,126,o),
(488,132,c),
(459,94,o),
(416,56,o),
(340,56,cs),
(281,56,o),
(240,75,o),
(215,113,cs),
(190,151,o),
(178,210,o),
(178,286,cs),
(178,363,o),
(187,424,o),
(208,466,cs),
(230,506,o),
(264,528,o),
(314,528,cs),
(381,528,o),
(402,470,o),
(402,417,c),
(468,417,o),
(502,447,o),
(502,486,cs),
(502,512,o),
(487,536,o),
(457,552,cs),
(427,569,o),
(382,579,o),
(320,579,cs),
(138,579,o),
(44,460,o),
(44,286,cs),
(44,112,o),
(133,-8,o),
(321,-8,cs)
);
}
);
};
layerId = "0ED38B93-C2B0-4B4A-9C6D-D7838A33C317";
shapes = (
{
closed = 1;
nodes = (
(458,-8,o),
(502,53,o),
(502,98,cs),
(502,111,o),
(496,126,o),
(488,132,c),
(459,94,o),
(416,56,o),
(340,56,cs),
(281,56,o),
(240,75,o),
(215,113,cs),
(190,151,o),
(178,210,o),
(178,286,cs),
(178,363,o),
(187,424,o),
(208,466,cs),
(230,506,o),
(264,528,o),
(314,528,cs),
(381,528,o),
(402,470,o),
(402,417,c),
(468,417,o),
(502,447,o),
(502,486,cs),
(502,559,o),
(394,579,o),
(320,579,cs),
(138,579,o),
(44,460,o),
(44,286,cs),
(44,112,o),
(133,-8,o),
(321,-8,cs)
);
}
);
userData = {
assembly = "NPUSHB[ ]	/* 35 values pushed */
8 33 0 28 32 28 48 28 3 28 28 49 47 49 1 43 18 102 48 201 33 1 40 33 120 33 2 33 38 23 4 5 0 13 19 
SVTCA[0]	/* SetFreedomAndProjectionVectorToAxis */
MIAP[1]	/* MoveIndirectAbsPt */
SHP[1]	/* ShiftPointByLastPoint */
SHP[1]	/* ShiftPointByLastPoint */
MIAP[1]	/* MoveIndirectAbsPt */
SHP[1]	/* ShiftPointByLastPoint */
SHP[1]	/* ShiftPointByLastPoint */
DELTAP1[ ]	/* DeltaExceptionP1 */
DELTAP1[ ]	/* DeltaExceptionP1 */
SVTCA[1]	/* SetFreedomAndProjectionVectorToAxis */
SRP0[ ]	/* SetRefPoint0 */
MIRP[00110]	/* MoveIndirectRelPt */
SHP[0]	/* ShiftPointByLastPoint */
DELTAP1[ ]	/* DeltaExceptionP1 */
SRP1[ ]	/* SetRefPoint1 */
SHP[1]	/* ShiftPointByLastPoint */
MDAP[1]	/* MoveDirectAbsPt */
DELTAP1[ ]	/* DeltaExceptionP1 */
SHP[1]	/* ShiftPointByLastPoint */
SHP[1]	/* ShiftPointByLastPoint */
IUP[1]	/* InterpolateUntPts */
IUP[0]	/* InterpolateUntPts */";
};
width = 534;
}
);
note = uni0043;
unicode = 67;
},
{
color = 10;
glyphname = D;
lastChange = "2022-01-06 02:32:25 +0000";
layers = (
{
layerId = "4397B867-53E7-4964-BB9B-A578920F109C";
shapes = (
{
closed = 1;
nodes = (
(275,0,ls),
(450,0,o),
(536,112,o),
(536,286,cs),
(536,468,o),
(440,571,o),
(275,571,cs),
(30,571,l),
(30,538,l),
(41,538,ls),
(75,538,o),
(106,531,o),
(106,483,cs),
(106,91,ls),
(106,42,o),
(78,34,o),
(41,34,cs),
(30,34,l),
(30,0,l)
);
},
{
closed = 1;
nodes = (
(187,531,l),
(258,531,ls),
(384,531,o),
(447,445,o),
(447,286,cs),
(447,129,o),
(384,41,o),
(257,41,cs),
(187,41,l)
);
}
);
userData = {
assembly = "NPUSHB[ ]	/* 22 values pushed */
32 91 0 103 39 37 90 13 100 38 36 94 20 93 21 3 37 94 7 93 6 18 
SVTCA[0]	/* SetFreedomAndProjectionVectorToAxis */
MIAP[1]	/* MoveIndirectAbsPt */
MIRP[00001]	/* MoveIndirectRelPt */
MIRP[00001]	/* MoveIndirectRelPt */
MIAP[1]	/* MoveIndirectAbsPt */
MIRP[00001]	/* MoveIndirectRelPt */
MIRP[00001]	/* MoveIndirectRelPt */
SVTCA[1]	/* SetFreedomAndProjectionVectorToAxis */
SRP0[ ]	/* SetRefPoint0 */
MIRP[10100]	/* MoveIndirectRelPt */
MIRP[00001]	/* MoveIndirectRelPt */
SRP0[ ]	/* SetRefPoint0 */
MIRP[10110]	/* MoveIndirectRelPt */
MIRP[00001]	/* MoveIndirectRelPt */
IUP[1]	/* InterpolateUntPts */
IUP[0]	/* InterpolateUntPts */";
};
width = 582;
},
{
layerId = "0ED38B93-C2B0-4B4A-9C6D-D7838A33C317";
shapes = (
{
closed = 1;
nodes = (
(286,0,ls),
(474,0,o),
(570,122,o),
(570,296,cs),
(570,478,o),
(463,571,o),
(286,571,cs),
(22,571,l),
(22,529,l),
(56,529,ls),
(80,529,o),
(97,521,o),
(97,480,cs),
(97,94,ls),
(97,50,o),
(80,42,o),
(56,42,cs),
(22,42,l),
(22,0,l)
);
},
{
closed = 1;
nodes = (
(223,522,l),
(269,522,ls),
(378,522,o),
(434,449,o),
(434,296,cs),
(434,170,o),
(394,50,o),
(268,50,cs),
(223,50,l)
);
}
);
userData = {
assembly = "NPUSHB[ ]	/* 28 values pushed */
72 27 1 27 0 103 39 47 39 127 39 191 39 3 32 13 100 38 31 20 20 21 3 32 7 7 6 18 
SVTCA[0]	/* SetFreedomAndProjectionVectorToAxis */
MIAP[1]	/* MoveIndirectAbsPt */
SHP[1]	/* ShiftPointByLastPoint */
SRP1[ ]	/* SetRefPoint1 */
SHP[1]	/* ShiftPointByLastPoint */
MIAP[1]	/* MoveIndirectAbsPt */
SHP[1]	/* ShiftPointByLastPoint */
SRP1[ ]	/* SetRefPoint1 */
SHP[1]	/* ShiftPointByLastPoint */
SVTCA[1]	/* SetFreedomAndProjectionVectorToAxis */
SRP0[ ]	/* SetRefPoint0 */
MIRP[00100]	/* MoveIndirectRelPt */
SHP[0]	/* ShiftPointByLastPoint */
DELTAP1[ ]	/* DeltaExceptionP1 */
SRP0[ ]	/* SetRefPoint0 */
MIRP[00110]	/* MoveIndirectRelPt */
SHP[0]	/* ShiftPointByLastPoint */
DELTAP1[ ]	/* DeltaExceptionP1 */
IUP[1]	/* InterpolateUntPts */
IUP[0]	/* InterpolateUntPts */";
};
width = 614;
}
);
note = uni0044;
unicode = 68;
},
{
color = 10;
glyphname = E;
lastChange = "2022-01-06 02:32:25 +0000";
layers = (
{
layerId = "4397B867-53E7-4964-BB9B-A578920F109C";
shapes = (
{
closed = 1;
nodes = (
(459,0,l),
(465,140,l),
(423,140,l),
(418,106,ls),
(412,70,o),
(391,40,o),
(342,40,cs),
(187,40,l),
(187,279,l),
(380,279,l),
(380,318,l),
(187,318,l),
(187,531,l),
(322,531,ls),
(370,531,o),
(388,501,o),
(392,466,cs),
(396,431,l),
(438,431,l),
(434,571,l),
(30,571,l),
(30,538,l),
(41,538,ls),
(78,538,o),
(106,530,o),
(106,480,cs),
(106,87,ls),
(106,40,o),
(77,34,o),
(41,34,cs),
(30,34,l),
(30,0,l)
);
}
);
userData = {
assembly = "NPUSHB[ ]	/* 49 values pushed */
38 38 17 8 28 250 111 27 1 27 7 250 8 41 36 0 90 17 100 40 39 94 36 249 36 1 47 36 1 7 36 28 28 36 7 3 11 35 94 24 93 25 3 11 93 0 94 10 18 
SVTCA[0]	/* SetFreedomAndProjectionVectorToAxis */
MIAP[1]	/* MoveIndirectAbsPt */
MIRP[00001]	/* MoveIndirectRelPt */
MIRP[00001]	/* MoveIndirectRelPt */
MIAP[1]	/* MoveIndirectAbsPt */
MIRP[00001]	/* MoveIndirectRelPt */
MIRP[00001]	/* MoveIndirectRelPt */
SRP2[ ]	/* SetRefPoint2 */
SLOOP[ ]	/* SetLoopVariable */
IP[ ]	/* InterpolatePts */
MDAP[1]	/* MoveDirectAbsPt */
MDAP[1]	/* MoveDirectAbsPt */
MDAP[1]	/* MoveDirectAbsPt */
DELTAP1[ ]	/* DeltaExceptionP1 */
DELTAP1[ ]	/* DeltaExceptionP1 */
SRP0[ ]	/* SetRefPoint0 */
MIRP[00001]	/* MoveIndirectRelPt */
SVTCA[1]	/* SetFreedomAndProjectionVectorToAxis */
SRP0[ ]	/* SetRefPoint0 */
MIRP[10100]	/* MoveIndirectRelPt */
MIRP[00001]	/* MoveIndirectRelPt */
SHP[0]	/* ShiftPointByLastPoint */
SRP0[ ]	/* SetRefPoint0 */
MDRP[11110]	/* MoveDirectRelPt */
MIRP[00001]	/* MoveIndirectRelPt */
MDRP[10110]	/* MoveDirectRelPt */
DELTAP1[ ]	/* DeltaExceptionP1 */
MIRP[00001]	/* MoveIndirectRelPt */
SRP1[ ]	/* SetRefPoint1 */
SRP2[ ]	/* SetRefPoint2 */
IP[ ]	/* InterpolatePts */
MDAP[1]	/* MoveDirectAbsPt */
IUP[1]	/* InterpolateUntPts */
IUP[0]	/* InterpolateUntPts */";
};
width = 498;
},
{
layerId = "0ED38B93-C2B0-4B4A-9C6D-D7838A33C317";
shapes = (
{
closed = 1;
nodes = (
(491,0,l),
(497,147,l),
(442,147,l),
(435,110,ls),
(430,74,o),
(416,49,o),
(384,49,cs),
(224,49,l),
(224,274,l),
(414,274,l),
(414,322,l),
(224,322,l),
(224,522,l),
(358,522,ls),
(391,522,o),
(406,501,o),
(410,462,cs),
(414,424,l),
(470,424,l),
(466,571,l),
(22,571,l),
(22,529,l),
(56,529,ls),
(80,529,o),
(97,521,o),
(97,477,cs),
(97,90,ls),
(97,50,o),
(80,42,o),
(56,42,cs),
(22,42,l),
(22,0,l)
);
}
);
userData = {
assembly = "NPUSHB[ ]	/* 55 values pushed */
28 35 64 27 1 27 27 0 7 8 64 16 19 72 0 8 16 8 2 8 8 39 34 0 0 17 100 38 33 24 24 25 37 34 207 34 1 152 34 1 7 34 28 28 34 7 3 11 25 3 0 11 11 10 18 
SVTCA[0]	/* SetFreedomAndProjectionVectorToAxis */
MIAP[1]	/* MoveIndirectAbsPt */
SHP[1]	/* ShiftPointByLastPoint */
SRP1[ ]	/* SetRefPoint1 */
SHP[1]	/* ShiftPointByLastPoint */
MIAP[1]	/* MoveIndirectAbsPt */
SRP2[ ]	/* SetRefPoint2 */
SLOOP[ ]	/* SetLoopVariable */
IP[ ]	/* InterpolatePts */
MDAP[1]	/* MoveDirectAbsPt */
MDAP[1]	/* MoveDirectAbsPt */
MDAP[1]	/* MoveDirectAbsPt */
DELTAP1[ ]	/* DeltaExceptionP1 */
DELTAP1[ ]	/* DeltaExceptionP1 */
SRP1[ ]	/* SetRefPoint1 */
SHP[1]	/* ShiftPointByLastPoint */
SRP1[ ]	/* SetRefPoint1 */
SHP[1]	/* ShiftPointByLastPoint */
SRP1[ ]	/* SetRefPoint1 */
SHP[1]	/* ShiftPointByLastPoint */
SVTCA[1]	/* SetFreedomAndProjectionVectorToAxis */
SRP0[ ]	/* SetRefPoint0 */
MIRP[00100]	/* MoveIndirectRelPt */
SHP[0]	/* ShiftPointByLastPoint */
SRP1[ ]	/* SetRefPoint1 */
SHP[1]	/* ShiftPointByLastPoint */
SRP1[ ]	/* SetRefPoint1 */
SHP[1]	/* ShiftPointByLastPoint */
MDAP[1]	/* MoveDirectAbsPt */
DELTAP1[ ]	/* DeltaExceptionP1 */
CALL[ ]	/* CallFunction */
SHP[1]	/* ShiftPointByLastPoint */
SRP2[ ]	/* SetRefPoint2 */
IP[ ]	/* InterpolatePts */
MDAP[1]	/* MoveDirectAbsPt */
DELTAP1[ ]	/* DeltaExceptionP1 */
IP[ ]	/* InterpolatePts */
SHP[1]	/* ShiftPointByLastPoint */
IUP[1]	/* InterpolateUntPts */
IUP[0]	/* InterpolateUntPts */";
};
width = 522;
}
);
note = uni0045;
unicode = 69;
},
{
color = 10;
glyphname = F;
lastChange = "2022-01-06 02:32:25 +0000";
layers = (
{
layerId = "4397B867-53E7-4964-BB9B-A578920F109C";
shapes = (
{
closed = 1;
nodes = (
(279,0,l),
(279,34,l),
(253,34,ls),
(218,34,o),
(187,41,o),
(187,91,cs),
(187,261,l),
(380,261,l),
(380,300,l),
(187,300,l),
(187,531,l),
(318,531,ls),
(369,531,o),
(388,502,o),
(392,466,cs),
(396,431,l),
(438,431,l),
(434,571,l),
(30,571,l),
(30,538,l),
(41,538,ls),
(75,538,o),
(106,531,o),
(106,483,cs),
(106,87,ls),
(106,40,o),
(77,34,o),
(41,34,cs),
(30,34,l),
(30,0,l)
);
}
);
userData = {
assembly = "NPUSHB[ ]	/* 43 values pushed */
3 3 20 31 250 30 39 15 39 47 39 95 39 3 1 5 90 20 100 38 4 94 47 1 95 1 2 1 31 1 31 14 27 93 0 94 28 3 10 14 93 13 18 
SVTCA[0]	/* SetFreedomAndProjectionVectorToAxis */
MIAP[1]	/* MoveIndirectAbsPt */
MIRP[00001]	/* MoveIndirectRelPt */
SHP[0]	/* ShiftPointByLastPoint */
MIAP[1]	/* MoveIndirectAbsPt */
MIRP[00001]	/* MoveIndirectRelPt */
MIRP[00001]	/* MoveIndirectRelPt */
SRP2[ ]	/* SetRefPoint2 */
IP[ ]	/* InterpolatePts */
IP[ ]	/* InterpolatePts */
MDAP[1]	/* MoveDirectAbsPt */
MDAP[1]	/* MoveDirectAbsPt */
DELTAP1[ ]	/* DeltaExceptionP1 */
MIRP[00001]	/* MoveIndirectRelPt */
SVTCA[1]	/* SetFreedomAndProjectionVectorToAxis */
SRP0[ ]	/* SetRefPoint0 */
MIRP[10100]	/* MoveIndirectRelPt */
MIRP[00001]	/* MoveIndirectRelPt */
SHP[0]	/* ShiftPointByLastPoint */
DELTAP1[ ]	/* DeltaExceptionP1 */
SRP0[ ]	/* SetRefPoint0 */
MDRP[11110]	/* MoveDirectRelPt */
MIRP[00001]	/* MoveIndirectRelPt */
SRP2[ ]	/* SetRefPoint2 */
IP[ ]	/* InterpolatePts */
MDAP[1]	/* MoveDirectAbsPt */
IUP[1]	/* InterpolateUntPts */
IUP[0]	/* InterpolateUntPts */";
};
width = 472;
},
{
layerId = "0ED38B93-C2B0-4B4A-9C6D-D7838A33C317";
shapes = (
{
closed = 1;
nodes = (
(314,0,l),
(314,42,l),
(265,42,ls),
(241,42,o),
(223,50,o),
(223,94,cs),
(223,257,l),
(413,257,l),
(413,304,l),
(223,304,l),
(223,522,l),
(350,522,ls),
(383,522,o),
(405,505,o),
(410,462,cs),
(414,424,l),
(470,424,l),
(466,571,l),
(22,571,l),
(22,529,l),
(56,529,ls),
(80,529,o),
(97,521,o),
(97,480,cs),
(97,90,ls),
(97,50,o),
(80,42,o),
(56,42,cs),
(22,42,l),
(22,0,l)
);
}
);
userData = {
assembly = "NPUSHB[ ]	/* 74 values pushed */
63 37 239 37 2 37 64 15 18 72 7 35 6 10 10 25 100 36 0 176 35 1 127 35 143 35 2 64 35 1 47 35 1 35 9 175 6 191 6 207 6 239 6 255 6 5 152 6 1 47 6 95 6 127 6 143 6 4 6 0 6 0 19 33 5 32 32 33 3 15 19 19 18 18 
SVTCA[0]	/* SetFreedomAndProjectionVectorToAxis */
MIAP[1]	/* MoveIndirectAbsPt */
SHP[1]	/* ShiftPointByLastPoint */
SRP1[ ]	/* SetRefPoint1 */
SHP[1]	/* ShiftPointByLastPoint */
MIAP[1]	/* MoveIndirectAbsPt */
SHP[1]	/* ShiftPointByLastPoint */
SRP1[ ]	/* SetRefPoint1 */
SHP[1]	/* ShiftPointByLastPoint */
SRP1[ ]	/* SetRefPoint1 */
SRP2[ ]	/* SetRefPoint2 */
IP[ ]	/* InterpolatePts */
IP[ ]	/* InterpolatePts */
MDAP[1]	/* MoveDirectAbsPt */
MDAP[1]	/* MoveDirectAbsPt */
DELTAP1[ ]	/* DeltaExceptionP1 */
DELTAP1[ ]	/* DeltaExceptionP1 */
DELTAP1[ ]	/* DeltaExceptionP1 */
SHP[1]	/* ShiftPointByLastPoint */
SVTCA[1]	/* SetFreedomAndProjectionVectorToAxis */
MDAP[1]	/* MoveDirectAbsPt */
DELTAP1[ ]	/* DeltaExceptionP1 */
DELTAP1[ ]	/* DeltaExceptionP1 */
DELTAP1[ ]	/* DeltaExceptionP1 */
DELTAP1[ ]	/* DeltaExceptionP1 */
SHP[1]	/* ShiftPointByLastPoint */
SRP0[ ]	/* SetRefPoint0 */
MIRP[00100]	/* MoveIndirectRelPt */
SHP[0]	/* ShiftPointByLastPoint */
SRP1[ ]	/* SetRefPoint1 */
SHP[1]	/* ShiftPointByLastPoint */
SRP2[ ]	/* SetRefPoint2 */
IP[ ]	/* InterpolatePts */
CALL[ ]	/* CallFunction */
DELTAP1[ ]	/* DeltaExceptionP1 */
IUP[1]	/* InterpolateUntPts */
IUP[0]	/* InterpolateUntPts */";
};
width = 497;
}
);
note = uni0046;
unicode = 70;
},
{
color = 10;
glyphname = G;
lastChange = "2022-01-06 02:32:25 +0000";
layers = (
{
layerId = "4397B867-53E7-4964-BB9B-A578920F109C";
shapes = (
{
closed = 1;
nodes = (
(390,-8,o),
(444,4,o),
(498,29,c),
(498,173,ls),
(498,222,o),
(522,230,o),
(553,230,cs),
(556,230,l),
(556,264,l),
(348,264,l),
(348,230,l),
(351,230,ls),
(387,230,o),
(417,222,o),
(417,176,cs),
(417,47,l),
(394,41,o),
(364,38,o),
(334,38,cs),
(261,38,o),
(211,60,o),
(179,102,cs),
(147,144,o),
(134,206,o),
(134,286,cs),
(134,431,o),
(176,537,o),
(322,537,cs),
(401,537,o),
(428,483,o),
(428,434,c),
(468,434,o),
(502,454,o),
(502,490,cs),
(502,540,o),
(445,579,o),
(326,579,cs),
(140,579,o),
(46,458,o),
(46,286,cs),
(46,110,o),
(134,-8,o),
(321,-8,cs)
);
}
);
userData = {
assembly = "PUSHB[ ]	/* 5 values pushed */
20 15 38 90 55 
PUSHW[ ]	/* 1 value pushed */
-64 
NPUSHB[ ]	/* 28 values pushed */
10 16 72 55 59 127 59 1 30 91 5 102 58 48 44 93 46 46 35 25 95 20 10 4 35 95 0 19 
SVTCA[0]	/* SetFreedomAndProjectionVectorToAxis */
MIAP[1]	/* MoveIndirectAbsPt */
MIRP[00001]	/* MoveIndirectRelPt */
MIAP[1]	/* MoveIndirectAbsPt */
MDRP[01100]	/* MoveDirectRelPt */
MIRP[00001]	/* MoveIndirectRelPt */
SRP2[ ]	/* SetRefPoint2 */
IP[ ]	/* InterpolatePts */
MDAP[1]	/* MoveDirectAbsPt */
MIRP[00001]	/* MoveIndirectRelPt */
SHP[0]	/* ShiftPointByLastPoint */
SVTCA[1]	/* SetFreedomAndProjectionVectorToAxis */
SRP0[ ]	/* SetRefPoint0 */
MIRP[10110]	/* MoveIndirectRelPt */
MIRP[00001]	/* MoveIndirectRelPt */
DELTAP1[ ]	/* DeltaExceptionP1 */
SRP0[ ]	/* SetRefPoint0 */
MDRP[11110]	/* MoveDirectRelPt */
CALL[ ]	/* CallFunction */
MIRP[00001]	/* MoveIndirectRelPt */
MDRP[10100]	/* MoveDirectRelPt */
MDRP[01001]	/* MoveDirectRelPt */
IUP[1]	/* InterpolateUntPts */
IUP[0]	/* InterpolateUntPts */";
};
width = 571;
},
{
layerId = "0ED38B93-C2B0-4B4A-9C6D-D7838A33C317";
shapes = (
{
closed = 1;
nodes = (
(411,-8,o),
(473,6,o),
(535,35,c),
(535,166,ls),
(535,213,o),
(550,226,o),
(582,226,cs),
(593,226,l),
(593,269,l),
(342,269,l),
(342,226,l),
(352,226,ls),
(390,226,o),
(409,212,o),
(409,170,cs),
(409,52,l),
(390,48,o),
(370,46,o),
(350,46,cs),
(287,46,o),
(245,68,o),
(218,109,cs),
(190,150,o),
(178,210,o),
(178,286,cs),
(178,442,o),
(223,528,o),
(340,528,cs),
(408,528,o),
(439,483,o),
(439,418,c),
(505,418,o),
(542,447,o),
(542,486,cs),
(542,538,o),
(477,579,o),
(342,579,cs),
(147,579,o),
(44,459,o),
(44,286,cs),
(44,111,o),
(138,-8,o),
(338,-8,cs)
);
}
);
userData = {
assembly = "NPUSHB[ ]	/* 60 values pushed */
30 5 102 56 20 15 15 38 48 53 64 53 80 53 176 53 192 53 208 53 6 53 57 47 57 127 57 191 57 207 57 223 57 5 47 43 43 15 44 31 44 2 44 44 35 201 20 1 40 20 120 20 2 20 25 10 4 35 0 19 
SVTCA[0]	/* SetFreedomAndProjectionVectorToAxis */
MIAP[1]	/* MoveIndirectAbsPt */
SHP[0]	/* ShiftPointByLastPoint */
MIAP[1]	/* MoveIndirectAbsPt */
SHP[1]	/* ShiftPointByLastPoint */
SHP[1]	/* ShiftPointByLastPoint */
DELTAP1[ ]	/* DeltaExceptionP1 */
DELTAP1[ ]	/* DeltaExceptionP1 */
SRP2[ ]	/* SetRefPoint2 */
IP[ ]	/* InterpolatePts */
MDAP[1]	/* MoveDirectAbsPt */
DELTAP1[ ]	/* DeltaExceptionP1 */
SHP[1]	/* ShiftPointByLastPoint */
SRP1[ ]	/* SetRefPoint1 */
SHP[1]	/* ShiftPointByLastPoint */
SVTCA[1]	/* SetFreedomAndProjectionVectorToAxis */
DELTAP1[ ]	/* DeltaExceptionP1 */
SRP0[ ]	/* SetRefPoint0 */
MDRP[00110]	/* MoveDirectRelPt */
DELTAP1[ ]	/* DeltaExceptionP1 */
SHP[0]	/* ShiftPointByLastPoint */
SHP[0]	/* ShiftPointByLastPoint */
SRP1[ ]	/* SetRefPoint1 */
SHP[1]	/* ShiftPointByLastPoint */
SRP0[ ]	/* SetRefPoint0 */
MIRP[00110]	/* MoveIndirectRelPt */
SHP[0]	/* ShiftPointByLastPoint */
IUP[1]	/* InterpolateUntPts */
IUP[0]	/* InterpolateUntPts */";
};
width = 615;
}
);
note = uni0047;
unicode = 71;
},
{
color = 10;
glyphname = H;
lastChange = "2022-01-06 02:32:25 +0000";
layers = (
{
layerId = "4397B867-53E7-4964-BB9B-A578920F109C";
shapes = (
{
closed = 1;
nodes = (
(263,0,l),
(263,34,l),
(253,34,ls),
(218,34,o),
(187,41,o),
(187,91,cs),
(187,278,l),
(447,278,l),
(447,91,ls),
(447,41,o),
(418,34,o),
(382,34,cs),
(371,34,l),
(371,0,l),
(604,0,l),
(604,34,l),
(594,34,ls),
(558,34,o),
(528,40,o),
(528,87,cs),
(528,480,ls),
(528,530,o),
(557,538,o),
(594,538,cs),
(604,538,l),
(604,571,l),
(371,571,l),
(371,538,l),
(382,538,ls),
(418,538,o),
(447,530,o),
(447,480,cs),
(447,318,l),
(187,318,l),
(187,480,ls),
(187,530,o),
(218,538,o),
(253,538,cs),
(263,538,l),
(263,571,l),
(30,571,l),
(30,538,l),
(41,538,ls),
(75,538,o),
(106,531,o),
(106,483,cs),
(106,91,ls),
(106,42,o),
(78,34,o),
(41,34,cs),
(30,34,l),
(30,0,l)
);
}
);
userData = {
assembly = "NPUSHB[ ]	/* 39 values pushed */
43 7 90 60 101 69 42 10 90 25 100 68 9 94 249 42 1 47 42 1 42 42 19 54 50 36 32 93 51 33 3 65 15 1 19 93 0 18 18 
SVTCA[0]	/* SetFreedomAndProjectionVectorToAxis */
MIAP[1]	/* MoveIndirectAbsPt */
SHP[1]	/* ShiftPointByLastPoint */
MIRP[00001]	/* MoveIndirectRelPt */
SHP[0]	/* ShiftPointByLastPoint */
SHP[0]	/* ShiftPointByLastPoint */
SHP[0]	/* ShiftPointByLastPoint */
MIAP[1]	/* MoveIndirectAbsPt */
SHP[1]	/* ShiftPointByLastPoint */
MIRP[00001]	/* MoveIndirectRelPt */
SHP[0]	/* ShiftPointByLastPoint */
SHP[0]	/* ShiftPointByLastPoint */
SHP[0]	/* ShiftPointByLastPoint */
SRP2[ ]	/* SetRefPoint2 */
IP[ ]	/* InterpolatePts */
MDAP[1]	/* MoveDirectAbsPt */
DELTAP1[ ]	/* DeltaExceptionP1 */
DELTAP1[ ]	/* DeltaExceptionP1 */
MIRP[00001]	/* MoveIndirectRelPt */
SVTCA[1]	/* SetFreedomAndProjectionVectorToAxis */
SRP0[ ]	/* SetRefPoint0 */
MIRP[10100]	/* MoveIndirectRelPt */
MIRP[00001]	/* MoveIndirectRelPt */
SHP[0]	/* ShiftPointByLastPoint */
SRP0[ ]	/* SetRefPoint0 */
MIRP[10100]	/* MoveIndirectRelPt */
MIRP[00001]	/* MoveIndirectRelPt */
SHP[0]	/* ShiftPointByLastPoint */
IUP[1]	/* InterpolateUntPts */
IUP[0]	/* InterpolateUntPts */";
};
width = 634;
},
{
layerId = "0ED38B93-C2B0-4B4A-9C6D-D7838A33C317";
shapes = (
{
closed = 1;
nodes = (
(298,0,l),
(298,42,l),
(264,42,ls),
(241,42,o),
(223,50,o),
(223,94,cs),
(223,274,l),
(432,274,l),
(432,94,ls),
(432,50,o),
(415,42,o),
(391,42,cs),
(357,42,l),
(357,0,l),
(633,0,l),
(633,42,l),
(599,42,ls),
(576,42,o),
(558,50,o),
(558,90,cs),
(558,477,ls),
(558,521,o),
(576,529,o),
(599,529,cs),
(633,529,l),
(633,571,l),
(357,571,l),
(357,529,l),
(391,529,ls),
(415,529,o),
(432,521,o),
(432,477,cs),
(432,322,l),
(223,322,l),
(223,477,ls),
(223,522,o),
(241,529,o),
(264,529,cs),
(298,529,l),
(298,571,l),
(22,571,l),
(22,529,l),
(56,529,ls),
(78,529,o),
(97,522,o),
(97,480,cs),
(97,94,ls),
(97,50,o),
(80,42,o),
(56,42,cs),
(22,42,l),
(22,0,l)
);
}
);
userData = {
assembly = "NPUSHB[ ]	/* 52 values pushed */
43 7 7 60 101 69 160 69 1 111 69 127 69 2 64 69 1 42 10 10 25 100 68 9 207 42 1 152 42 1 42 42 19 33 36 50 54 3 32 32 51 33 3 1 15 65 3 19 19 0 18 18 
SVTCA[0]	/* SetFreedomAndProjectionVectorToAxis */
MIAP[1]	/* MoveIndirectAbsPt */
SHP[1]	/* ShiftPointByLastPoint */
SHP[1]	/* ShiftPointByLastPoint */
SRP1[ ]	/* SetRefPoint1 */
SLOOP[ ]	/* SetLoopVariable */
SHP[1]	/* ShiftPointByLastPoint */
MIAP[1]	/* MoveIndirectAbsPt */
SHP[1]	/* ShiftPointByLastPoint */
SHP[1]	/* ShiftPointByLastPoint */
SRP1[ ]	/* SetRefPoint1 */
SLOOP[ ]	/* SetLoopVariable */
SHP[1]	/* ShiftPointByLastPoint */
SRP1[ ]	/* SetRefPoint1 */
SRP2[ ]	/* SetRefPoint2 */
IP[ ]	/* InterpolatePts */
MDAP[1]	/* MoveDirectAbsPt */
DELTAP1[ ]	/* DeltaExceptionP1 */
DELTAP1[ ]	/* DeltaExceptionP1 */
SHP[1]	/* ShiftPointByLastPoint */
SVTCA[1]	/* SetFreedomAndProjectionVectorToAxis */
SRP0[ ]	/* SetRefPoint0 */
MIRP[00100]	/* MoveIndirectRelPt */
SHP[0]	/* ShiftPointByLastPoint */
SRP1[ ]	/* SetRefPoint1 */
SHP[1]	/* ShiftPointByLastPoint */
DELTAP1[ ]	/* DeltaExceptionP1 */
DELTAP1[ ]	/* DeltaExceptionP1 */
DELTAP1[ ]	/* DeltaExceptionP1 */
SRP0[ ]	/* SetRefPoint0 */
MIRP[00100]	/* MoveIndirectRelPt */
SHP[0]	/* ShiftPointByLastPoint */
SRP1[ ]	/* SetRefPoint1 */
SHP[1]	/* ShiftPointByLastPoint */
IUP[1]	/* InterpolateUntPts */
IUP[0]	/* InterpolateUntPts */";
};
width = 655;
}
);
note = uni0048;
unicode = 72;
},
{
color = 10;
glyphname = I;
lastChange = "2022-01-06 02:32:25 +0000";
layers = (
{
layerId = "4397B867-53E7-4964-BB9B-A578920F109C";
shapes = (
{
closed = 1;
nodes = (
(263,0,l),
(263,34,l),
(253,34,ls),
(218,34,o),
(187,41,o),
(187,91,cs),
(187,480,ls),
(187,530,o),
(218,538,o),
(253,538,cs),
(263,538,l),
(263,571,l),
(30,571,l),
(30,538,l),
(41,538,ls),
(78,538,o),
(106,530,o),
(106,480,cs),
(106,91,ls),
(106,42,o),
(78,34,o),
(41,34,cs),
(30,34,l),
(30,0,l)
);
}
);
userData = {
assembly = "NPUSHB[ ]	/* 26 values pushed */
144 33 1 95 33 191 33 2 64 33 1 24 90 7 100 32 18 14 93 15 3 29 1 93 0 18 
SVTCA[0]	/* SetFreedomAndProjectionVectorToAxis */
MIAP[1]	/* MoveIndirectAbsPt */
MIRP[00001]	/* MoveIndirectRelPt */
SHP[0]	/* ShiftPointByLastPoint */
MIAP[1]	/* MoveIndirectAbsPt */
MIRP[00001]	/* MoveIndirectRelPt */
SHP[0]	/* ShiftPointByLastPoint */
SVTCA[1]	/* SetFreedomAndProjectionVectorToAxis */
SRP0[ ]	/* SetRefPoint0 */
MIRP[10100]	/* MoveIndirectRelPt */
MIRP[00001]	/* MoveIndirectRelPt */
DELTAP1[ ]	/* DeltaExceptionP1 */
DELTAP1[ ]	/* DeltaExceptionP1 */
DELTAP1[ ]	/* DeltaExceptionP1 */
IUP[1]	/* InterpolateUntPts */
IUP[0]	/* InterpolateUntPts */";
};
width = 294;
},
{
layerId = "0ED38B93-C2B0-4B4A-9C6D-D7838A33C317";
shapes = (
{
closed = 1;
nodes = (
(298,0,l),
(298,42,l),
(265,42,ls),
(241,42,o),
(224,50,o),
(224,94,cs),
(224,477,ls),
(224,521,o),
(241,529,o),
(265,529,cs),
(298,529,l),
(298,571,l),
(22,571,l),
(22,529,l),
(56,529,ls),
(80,529,o),
(97,521,o),
(97,477,cs),
(97,94,ls),
(97,50,o),
(80,42,o),
(56,42,cs),
(22,42,l),
(22,0,l)
);
}
);
userData = {
assembly = "NPUSHB[ ]	/* 30 values pushed */
239 33 1 160 33 1 111 33 127 33 2 0 33 80 33 2 24 7 100 32 18 14 14 15 3 29 1 1 0 18 
SVTCA[0]	/* SetFreedomAndProjectionVectorToAxis */
MIAP[1]	/* MoveIndirectAbsPt */
SHP[0]	/* ShiftPointByLastPoint */
SRP1[ ]	/* SetRefPoint1 */
SHP[1]	/* ShiftPointByLastPoint */
MIAP[1]	/* MoveIndirectAbsPt */
SHP[1]	/* ShiftPointByLastPoint */
SRP1[ ]	/* SetRefPoint1 */
SHP[1]	/* ShiftPointByLastPoint */
SVTCA[1]	/* SetFreedomAndProjectionVectorToAxis */
SRP0[ ]	/* SetRefPoint0 */
MIRP[00100]	/* MoveIndirectRelPt */
SHP[0]	/* ShiftPointByLastPoint */
DELTAP1[ ]	/* DeltaExceptionP1 */
DELTAP1[ ]	/* DeltaExceptionP1 */
DELTAP1[ ]	/* DeltaExceptionP1 */
DELTAP1[ ]	/* DeltaExceptionP1 */
IUP[1]	/* InterpolateUntPts */
IUP[0]	/* InterpolateUntPts */";
};
width = 321;
}
);
note = uni0049;
unicode = 73;
},
{
color = 10;
glyphname = J;
lastChange = "2022-01-06 02:32:25 +0000";
layers = (
{
layerId = "4397B867-53E7-4964-BB9B-A578920F109C";
shapes = (
{
closed = 1;
nodes = (
(5,-192,ls),
(56,-192,o),
(102,-182,o),
(134,-153,cs),
(167,-125,o),
(187,-78,o),
(187,-6,cs),
(187,480,ls),
(187,530,o),
(218,538,o),
(253,538,cs),
(263,538,l),
(263,571,l),
(30,571,l),
(30,538,l),
(41,538,ls),
(75,538,o),
(106,531,o),
(106,483,cs),
(106,-7,ls),
(106,-94,o),
(86,-154,o),
(-2,-154,cs),
(-9,-154,l),
(-9,-192,l)
);
}
);
userData = {
assembly = "NPUSHB[ ]	/* 20 values pushed */
191 31 1 64 31 1 23 90 0 6 100 30 0 94 28 17 13 93 14 3 
SVTCA[0]	/* SetFreedomAndProjectionVectorToAxis */
MIAP[1]	/* MoveIndirectAbsPt */
MIRP[00001]	/* MoveIndirectRelPt */
SHP[0]	/* ShiftPointByLastPoint */
MDAP[1]	/* MoveDirectAbsPt */
MIRP[00001]	/* MoveIndirectRelPt */
SVTCA[1]	/* SetFreedomAndProjectionVectorToAxis */
SRP0[ ]	/* SetRefPoint0 */
MIRP[10110]	/* MoveIndirectRelPt */
MDRP[00110]	/* MoveDirectRelPt */
MIRP[00001]	/* MoveIndirectRelPt */
DELTAP1[ ]	/* DeltaExceptionP1 */
DELTAP1[ ]	/* DeltaExceptionP1 */
IUP[1]	/* InterpolateUntPts */
IUP[0]	/* InterpolateUntPts */";
};
width = 286;
},
{
layerId = "0ED38B93-C2B0-4B4A-9C6D-D7838A33C317";
shapes = (
{
closed = 1;
nodes = (
(-2,-192,ls),
(54,-192,o),
(106,-180,o),
(145,-151,cs),
(193,-118,o),
(210,-60,o),
(210,-2,cs),
(210,477,ls),
(210,522,o),
(228,529,o),
(252,529,cs),
(286,529,l),
(286,571,l),
(10,571,l),
(10,529,l),
(43,529,ls),
(67,529,o),
(84,521,o),
(84,480,cs),
(84,-2,ls),
(84,-110,o),
(34,-146,o),
(-17,-146,cs),
(-31,-146,l),
(-31,-192,l)
);
}
);
userData = {
assembly = "NPUSHB[ ]	/* 31 values pushed */
63 33 111 33 127 33 143 33 191 33 239 33 255 33 7 16 7 239 22 1 0 22 1 22 1 29 29 30 3 16 15 
SVTCA[0]	/* SetFreedomAndProjectionVectorToAxis */
MDAP[1]	/* MoveDirectAbsPt */
SHP[1]	/* ShiftPointByLastPoint */
MIAP[1]	/* MoveIndirectAbsPt */
SHP[1]	/* ShiftPointByLastPoint */
SRP1[ ]	/* SetRefPoint1 */
SHP[1]	/* ShiftPointByLastPoint */
SVTCA[1]	/* SetFreedomAndProjectionVectorToAxis */
MDAP[1]	/* MoveDirectAbsPt */
DELTAP1[ ]	/* DeltaExceptionP1 */
DELTAP1[ ]	/* DeltaExceptionP1 */
SHP[1]	/* ShiftPointByLastPoint */
SHP[1]	/* ShiftPointByLastPoint */
DELTAP1[ ]	/* DeltaExceptionP1 */
IUP[1]	/* InterpolateUntPts */
IUP[0]	/* InterpolateUntPts */";
};
width = 294;
}
);
note = uni004A;
unicode = 74;
},
{
color = 10;
glyphname = K;
lastChange = "2022-01-06 02:32:25 +0000";
layers = (
{
layerId = "4397B867-53E7-4964-BB9B-A578920F109C";
shapes = (
{
closed = 1;
nodes = (
(263,0,l),
(263,34,l),
(253,34,ls),
(218,34,o),
(187,41,o),
(187,91,cs),
(187,214,l),
(255,270,l),
(393,72,ls),
(413,43,o),
(428,26,o),
(451,14,cs),
(475,3,o),
(507,0,o),
(561,0,cs),
(570,0,l),
(570,34,l),
(568,34,ls),
(538,34,o),
(510,55,o),
(480,98,cs),
(311,333,l),
(427,463,ls),
(467,508,o),
(498,538,o),
(534,538,c),
(534,571,l),
(358,571,l),
(358,538,l),
(386,538,o),
(397,534,o),
(397,521,cs),
(397,503,o),
(384,480,o),
(353,444,cs),
(187,254,l),
(187,480,ls),
(187,530,o),
(218,538,o),
(253,538,cs),
(263,538,l),
(263,571,l),
(30,571,l),
(30,538,l),
(41,538,ls),
(75,538,o),
(106,531,o),
(106,483,cs),
(106,87,ls),
(106,40,o),
(77,34,o),
(41,34,cs),
(30,34,l),
(30,0,l)
);
}
);
userData = {
assembly = "NPUSHB[ ]	/* 33 values pushed */
137 1 1 104 1 1 73 1 1 58 1 1 137 0 1 104 0 1 73 0 1 58 0 1 246 17 1 215 17 231 17 2 17 
PUSHW[ ]	/* 1 value pushed */
-8 
NPUSHB[ ]	/* 31 values pushed */
17 20 72 72 30 88 30 2 57 30 1 40 30 1 9 30 25 30 2 17 30 32 63 11 79 11 2 11 11 47 22 
PUSHW[ ]	/* 1 value pushed */
-64 
NPUSHB[ ]	/* 47 values pushed */
10 13 72 22 66 63 66 1 64 32 90 47 100 65 216 30 232 30 2 105 30 1 72 30 88 30 2 57 30 1 40 30 1 9 30 25 30 2 246 17 1 215 17 231 17 2 17 
PUSHW[ ]	/* 1 value pushed */
-8 
NPUSHB[ ]	/* 24 values pushed */
17 20 72 17 30 64 31 4 41 58 11 8 54 93 9 55 3 37 22 41 93 24 40 18 
SVTCA[0]	/* SetFreedomAndProjectionVectorToAxis */
MIAP[1]	/* MoveIndirectAbsPt */
SHP[1]	/* ShiftPointByLastPoint */
MIRP[00001]	/* MoveIndirectRelPt */
SHP[0]	/* ShiftPointByLastPoint */
SHP[0]	/* ShiftPointByLastPoint */
MIAP[1]	/* MoveIndirectAbsPt */
SHP[1]	/* ShiftPointByLastPoint */
MIRP[00001]	/* MoveIndirectRelPt */
SHP[0]	/* ShiftPointByLastPoint */
SHP[0]	/* ShiftPointByLastPoint */
SHP[0]	/* ShiftPointByLastPoint */
SRP1[ ]	/* SetRefPoint1 */
SLOOP[ ]	/* SetLoopVariable */
IP[ ]	/* InterpolatePts */
CALL[ ]	/* CallFunction */
DELTAP1[ ]	/* DeltaExceptionP1 */
DELTAP1[ ]	/* DeltaExceptionP1 */
DELTAP1[ ]	/* DeltaExceptionP1 */
DELTAP1[ ]	/* DeltaExceptionP1 */
DELTAP1[ ]	/* DeltaExceptionP1 */
DELTAP1[ ]	/* DeltaExceptionP1 */
DELTAP1[ ]	/* DeltaExceptionP1 */
DELTAP1[ ]	/* DeltaExceptionP1 */
SVTCA[1]	/* SetFreedomAndProjectionVectorToAxis */
SRP0[ ]	/* SetRefPoint0 */
MIRP[10100]	/* MoveIndirectRelPt */
MIRP[00001]	/* MoveIndirectRelPt */
SHP[0]	/* ShiftPointByLastPoint */
DELTAP1[ ]	/* DeltaExceptionP1 */
SRP0[ ]	/* SetRefPoint0 */
MDRP[00101]	/* MoveDirectRelPt */
CALL[ ]	/* CallFunction */
SRP1[ ]	/* SetRefPoint1 */
IP[ ]	/* InterpolatePts */
MDAP[1]	/* MoveDirectAbsPt */
DELTAP1[ ]	/* DeltaExceptionP1 */
SRP2[ ]	/* SetRefPoint2 */
IP[ ]	/* InterpolatePts */
IP[ ]	/* InterpolatePts */
DELTAP1[ ]	/* DeltaExceptionP1 */
DELTAP1[ ]	/* DeltaExceptionP1 */
DELTAP1[ ]	/* DeltaExceptionP1 */
DELTAP1[ ]	/* DeltaExceptionP1 */
CALL[ ]	/* CallFunction */
DELTAP1[ ]	/* DeltaExceptionP1 */
DELTAP1[ ]	/* DeltaExceptionP1 */
IUP[1]	/* InterpolateUntPts */
IUP[0]	/* InterpolateUntPts */
DELTAP1[ ]	/* DeltaExceptionP1 */
DELTAP1[ ]	/* DeltaExceptionP1 */
DELTAP1[ ]	/* DeltaExceptionP1 */
DELTAP1[ ]	/* DeltaExceptionP1 */
DELTAP1[ ]	/* DeltaExceptionP1 */
DELTAP1[ ]	/* DeltaExceptionP1 */
DELTAP1[ ]	/* DeltaExceptionP1 */
DELTAP1[ ]	/* DeltaExceptionP1 */";
};
width = 560;
},
{
layerId = "0ED38B93-C2B0-4B4A-9C6D-D7838A33C317";
shapes = (
{
closed = 1;
nodes = (
(298,0,l),
(298,42,l),
(265,42,ls),
(241,42,o),
(223,50,o),
(223,94,cs),
(223,230,l),
(258,258,l),
(366,74,ls),
(381,49,o),
(395,30,o),
(420,18,cs),
(446,6,o),
(486,0,o),
(544,0,cs),
(587,0,l),
(587,42,l),
(584,42,ls),
(549,42,o),
(523,58,o),
(493,107,cs),
(344,343,l),
(450,459,ls),
(489,502,o),
(522,530,o),
(565,530,c),
(565,571,l),
(348,571,l),
(348,530,l),
(381,530,o),
(393,524,o),
(393,506,cs),
(393,483,o),
(381,462,o),
(347,426,cs),
(223,290,l),
(223,477,ls),
(223,522,o),
(241,529,o),
(265,529,cs),
(298,529,l),
(298,571,l),
(22,571,l),
(22,529,l),
(56,529,ls),
(80,529,o),
(97,521,o),
(97,480,cs),
(97,90,ls),
(97,50,o),
(80,42,o),
(56,42,cs),
(22,42,l),
(22,0,l)
);
}
);
userData = {
assembly = "NPUSHB[ ]	/* 86 values pushed */
0 70 1 10 5 26 5 2 5 16 30 20 20 24 34 17 218 17 234 17 250 17 3 6 17 70 17 86 17 150 17 182 17 5 16 17 11 68 35 6 35 22 35 2 35 51 100 69 11 111 24 143 24 159 24 3 0 24 1 24 62 11 8 58 58 59 69 17 85 17 2 17 34 34 68 45 9 59 3 41 23 45 45 26 44 18 
SVTCA[0]	/* SetFreedomAndProjectionVectorToAxis */
MIAP[1]	/* MoveIndirectAbsPt */
SHP[1]	/* ShiftPointByLastPoint */
SHP[1]	/* ShiftPointByLastPoint */
SRP1[ ]	/* SetRefPoint1 */
SHP[1]	/* ShiftPointByLastPoint */
SHP[1]	/* ShiftPointByLastPoint */
MIAP[1]	/* MoveIndirectAbsPt */
SHP[1]	/* ShiftPointByLastPoint */
SRP2[ ]	/* SetRefPoint2 */
IP[ ]	/* InterpolatePts */
IP[ ]	/* InterpolatePts */
SRP1[ ]	/* SetRefPoint1 */
SHP[1]	/* ShiftPointByLastPoint */
DELTAP1[ ]	/* DeltaExceptionP1 */
SRP1[ ]	/* SetRefPoint1 */
SHP[1]	/* ShiftPointByLastPoint */
SRP1[ ]	/* SetRefPoint1 */
SHP[1]	/* ShiftPointByLastPoint */
SHP[1]	/* ShiftPointByLastPoint */
SHP[1]	/* ShiftPointByLastPoint */
SVTCA[1]	/* SetFreedomAndProjectionVectorToAxis */
MDAP[1]	/* MoveDirectAbsPt */
DELTAP1[ ]	/* DeltaExceptionP1 */
DELTAP1[ ]	/* DeltaExceptionP1 */
SHP[1]	/* ShiftPointByLastPoint */
SRP0[ ]	/* SetRefPoint0 */
MIRP[00100]	/* MoveIndirectRelPt */
SHP[0]	/* ShiftPointByLastPoint */
DELTAP1[ ]	/* DeltaExceptionP1 */
SRP1[ ]	/* SetRefPoint1 */
SHP[1]	/* ShiftPointByLastPoint */
SRP2[ ]	/* SetRefPoint2 */
IP[ ]	/* InterpolatePts */
IP[ ]	/* InterpolatePts */
DELTAP1[ ]	/* DeltaExceptionP1 */
DELTAP1[ ]	/* DeltaExceptionP1 */
SRP1[ ]	/* SetRefPoint1 */
SHP[1]	/* ShiftPointByLastPoint */
SRP2[ ]	/* SetRefPoint2 */
IP[ ]	/* InterpolatePts */
SRP1[ ]	/* SetRefPoint1 */
SHP[1]	/* ShiftPointByLastPoint */
SRP1[ ]	/* SetRefPoint1 */
SHP[1]	/* ShiftPointByLastPoint */
DELTAP1[ ]	/* DeltaExceptionP1 */
DELTAP1[ ]	/* DeltaExceptionP1 */
IUP[1]	/* InterpolateUntPts */
IUP[0]	/* InterpolateUntPts */";
};
width = 587;
}
);
note = uni004B;
unicode = 75;
},
{
color = 10;
glyphname = L;
lastChange = "2022-01-06 02:32:25 +0000";
layers = (
{
layerId = "4397B867-53E7-4964-BB9B-A578920F109C";
shapes = (
{
closed = 1;
nodes = (
(459,0,l),
(465,172,l),
(423,172,l),
(415,112,ls),
(411,77,o),
(392,40,o),
(345,40,cs),
(187,40,l),
(187,483,ls),
(187,531,o),
(218,538,o),
(253,538,cs),
(263,538,l),
(263,571,l),
(30,571,l),
(30,538,l),
(41,538,ls),
(78,538,o),
(106,530,o),
(106,480,cs),
(106,91,ls),
(106,42,o),
(78,34,o),
(41,34,cs),
(30,34,l),
(30,0,l)
);
}
);
userData = {
assembly = "NPUSHB[ ]	/* 23 values pushed */
31 250 32 35 24 90 7 100 34 31 31 1 18 14 93 15 3 1 93 24 94 0 18 
SVTCA[0]	/* SetFreedomAndProjectionVectorToAxis */
MIAP[1]	/* MoveIndirectAbsPt */
MIRP[00001]	/* MoveIndirectRelPt */
MIRP[00001]	/* MoveIndirectRelPt */
MIAP[1]	/* MoveIndirectAbsPt */
MIRP[00001]	/* MoveIndirectRelPt */
SHP[0]	/* ShiftPointByLastPoint */
SRP2[ ]	/* SetRefPoint2 */
IP[ ]	/* InterpolatePts */
MDAP[1]	/* MoveDirectAbsPt */
SVTCA[1]	/* SetFreedomAndProjectionVectorToAxis */
SRP0[ ]	/* SetRefPoint0 */
MIRP[10100]	/* MoveIndirectRelPt */
MIRP[00001]	/* MoveIndirectRelPt */
SRP0[ ]	/* SetRefPoint0 */
MDRP[11110]	/* MoveDirectRelPt */
MIRP[00001]	/* MoveIndirectRelPt */
IUP[1]	/* InterpolateUntPts */
IUP[0]	/* InterpolateUntPts */";
};
width = 498;
},
{
layerId = "0ED38B93-C2B0-4B4A-9C6D-D7838A33C317";
shapes = (
{
closed = 1;
nodes = (
(491,0,l),
(497,178,l),
(452,178,l),
(439,118,ls),
(430,73,o),
(410,49,o),
(373,49,cs),
(224,49,l),
(224,480,ls),
(224,522,o),
(242,529,o),
(265,529,cs),
(298,529,l),
(298,571,l),
(22,571,l),
(22,529,l),
(56,529,ls),
(80,529,o),
(97,521,o),
(97,477,cs),
(97,94,ls),
(97,50,o),
(80,42,o),
(56,42,cs),
(22,42,l),
(22,0,l)
);
}
);
userData = {
assembly = "NPUSHB[ ]	/* 45 values pushed */
127 33 143 33 223 33 239 33 4 64 33 1 16 33 1 29 239 30 1 0 30 64 30 80 30 3 30 24 7 100 32 29 29 1 15 18 14 14 15 3 24 1 1 0 18 
SVTCA[0]	/* SetFreedomAndProjectionVectorToAxis */
MIAP[1]	/* MoveIndirectAbsPt */
SHP[0]	/* ShiftPointByLastPoint */
SRP1[ ]	/* SetRefPoint1 */
SHP[1]	/* ShiftPointByLastPoint */
MIAP[1]	/* MoveIndirectAbsPt */
SHP[1]	/* ShiftPointByLastPoint */
SRP1[ ]	/* SetRefPoint1 */
SHP[1]	/* ShiftPointByLastPoint */
SRP1[ ]	/* SetRefPoint1 */
SRP2[ ]	/* SetRefPoint2 */
IP[ ]	/* InterpolatePts */
MDAP[1]	/* MoveDirectAbsPt */
SVTCA[1]	/* SetFreedomAndProjectionVectorToAxis */
SRP0[ ]	/* SetRefPoint0 */
MIRP[00100]	/* MoveIndirectRelPt */
SHP[0]	/* ShiftPointByLastPoint */
MDAP[1]	/* MoveDirectAbsPt */
DELTAP1[ ]	/* DeltaExceptionP1 */
DELTAP1[ ]	/* DeltaExceptionP1 */
SHP[1]	/* ShiftPointByLastPoint */
DELTAP1[ ]	/* DeltaExceptionP1 */
DELTAP1[ ]	/* DeltaExceptionP1 */
DELTAP1[ ]	/* DeltaExceptionP1 */
IUP[1]	/* InterpolateUntPts */
IUP[0]	/* InterpolateUntPts */";
};
width = 523;
}
);
note = uni004C;
unicode = 76;
},
{
color = 10;
glyphname = M;
lastChange = "2022-01-06 02:32:25 +0000";
layers = (
{
layerId = "4397B867-53E7-4964-BB9B-A578920F109C";
shapes = (
{
closed = 1;
nodes = (
(215,0,l),
(215,34,l),
(213,34,ls),
(176,34,o),
(155,42,o),
(155,91,cs),
(155,510,l),
(341,0,l),
(384,0,l),
(567,511,l),
(567,84,l),
(565,40,o),
(544,34,o),
(510,34,cs),
(507,34,l),
(507,0,l),
(720,0,l),
(720,34,l),
(710,34,ls),
(673,34,o),
(644,42,o),
(644,91,cs),
(644,480,ls),
(644,530,o),
(673,538,o),
(710,538,cs),
(720,538,l),
(720,571,l),
(542,571,l),
(378,114,l),
(213,571,l),
(30,571,l),
(30,538,l),
(41,538,ls),
(75,538,o),
(106,531,o),
(106,483,cs),
(106,87,ls),
(106,40,o),
(77,34,o),
(41,34,cs),
(30,34,l),
(30,0,l)
);
}
);
userData = {
assembly = "NPUSHB[ ]	/* 78 values pushed */
39 36 1 22 36 1 24 10 1 5 36 1 9 10 1 7 9 1 38 9 37 10 36 5 12 7 90 47 101 56 15 56 31 56 2 12 251 27 100 55 41 34 93 8 11 232 11 248 11 2 137 11 201 11 2 231 37 247 37 2 134 37 198 37 2 11 37 20 38 35 3 52 21 93 10 0 20 18 
SVTCA[0]	/* SetFreedomAndProjectionVectorToAxis */
MIAP[1]	/* MoveIndirectAbsPt */
SHP[1]	/* ShiftPointByLastPoint */
SHP[1]	/* ShiftPointByLastPoint */
MIRP[00001]	/* MoveIndirectRelPt */
SHP[0]	/* ShiftPointByLastPoint */
MIAP[1]	/* MoveIndirectAbsPt */
SHP[1]	/* ShiftPointByLastPoint */
SRP2[ ]	/* SetRefPoint2 */
IP[ ]	/* InterpolatePts */
IP[ ]	/* InterpolatePts */
DELTAP1[ ]	/* DeltaExceptionP1 */
DELTAP1[ ]	/* DeltaExceptionP1 */
DELTAP1[ ]	/* DeltaExceptionP1 */
DELTAP1[ ]	/* DeltaExceptionP1 */
SRP1[ ]	/* SetRefPoint1 */
SHP[1]	/* ShiftPointByLastPoint */
MIRP[00001]	/* MoveIndirectRelPt */
SHP[0]	/* ShiftPointByLastPoint */
SVTCA[1]	/* SetFreedomAndProjectionVectorToAxis */
SRP0[ ]	/* SetRefPoint0 */
MIRP[10100]	/* MoveIndirectRelPt */
MIRP[01001]	/* MoveIndirectRelPt */
DELTAP1[ ]	/* DeltaExceptionP1 */
SRP0[ ]	/* SetRefPoint0 */
MIRP[10100]	/* MoveIndirectRelPt */
MIRP[00001]	/* MoveIndirectRelPt */
SRP1[ ]	/* SetRefPoint1 */
SLOOP[ ]	/* SetLoopVariable */
IP[ ]	/* InterpolatePts */
DELTAP1[ ]	/* DeltaExceptionP1 */
DELTAP1[ ]	/* DeltaExceptionP1 */
DELTAP1[ ]	/* DeltaExceptionP1 */
IUP[1]	/* InterpolateUntPts */
IUP[0]	/* InterpolateUntPts */
DELTAP1[ ]	/* DeltaExceptionP1 */
DELTAP1[ ]	/* DeltaExceptionP1 */
DELTAP1[ ]	/* DeltaExceptionP1 */";
};
width = 750;
},
{
layerId = "0ED38B93-C2B0-4B4A-9C6D-D7838A33C317";
shapes = (
{
closed = 1;
nodes = (
(221,0,l),
(221,42,l),
(216,42,ls),
(179,42,o),
(157,50,o),
(157,94,cs),
(157,492,l),
(326,0,l),
(380,0,l),
(542,492,l),
(542,87,ls),
(542,49,o),
(525,42,o),
(491,42,cs),
(483,42,l),
(483,0,l),
(739,0,l),
(739,42,l),
(706,42,ls),
(682,42,o),
(665,50,o),
(665,94,cs),
(665,477,ls),
(665,522,o),
(682,529,o),
(706,529,cs),
(739,529,l),
(739,571,l),
(513,571,l),
(386,185,l),
(253,571,l),
(22,571,l),
(22,529,l),
(56,529,ls),
(80,529,o),
(97,521,o),
(97,480,cs),
(97,90,ls),
(97,50,o),
(80,42,o),
(56,42,cs),
(22,42,l),
(22,0,l)
);
}
);
userData = {
assembly = "PUSHW[ ]	/* 2 values pushed */
9 -8 
NPUSHB[ ]	/* 25 values pushed */
10 20 72 10 8 10 20 72 9 10 37 37 27 38 16 10 20 72 38 7 7 47 101 56 36 
PUSHW[ ]	/* 1 value pushed */
-24 
NPUSHB[ ]	/* 37 values pushed */
10 20 72 36 12 12 27 100 55 8 11 11 41 34 34 38 35 3 4 37 20 37 36 37 3 1 17 52 37 4 21 0 10 21 3 20 18 
SVTCA[0]	/* SetFreedomAndProjectionVectorToAxis */
MIAP[1]	/* MoveIndirectAbsPt */
SLOOP[ ]	/* SetLoopVariable */
SHP[1]	/* ShiftPointByLastPoint */
SRP1[ ]	/* SetRefPoint1 */
SLOOP[ ]	/* SetLoopVariable */
SHP[1]	/* ShiftPointByLastPoint */
DELTAP1[ ]	/* DeltaExceptionP1 */
MIAP[1]	/* MoveIndirectAbsPt */
SHP[1]	/* ShiftPointByLastPoint */
SHP[1]	/* ShiftPointByLastPoint */
SRP1[ ]	/* SetRefPoint1 */
SHP[1]	/* ShiftPointByLastPoint */
SHP[1]	/* ShiftPointByLastPoint */
SRP1[ ]	/* SetRefPoint1 */
SHP[1]	/* ShiftPointByLastPoint */
SVTCA[1]	/* SetFreedomAndProjectionVectorToAxis */
SRP0[ ]	/* SetRefPoint0 */
MIRP[00100]	/* MoveIndirectRelPt */
SHP[0]	/* ShiftPointByLastPoint */
SRP1[ ]	/* SetRefPoint1 */
SHP[1]	/* ShiftPointByLastPoint */
CALL[ ]	/* CallFunction */
SRP0[ ]	/* SetRefPoint0 */
MIRP[00100]	/* MoveIndirectRelPt */
SHP[0]	/* ShiftPointByLastPoint */
SRP1[ ]	/* SetRefPoint1 */
SHP[1]	/* ShiftPointByLastPoint */
CALL[ ]	/* CallFunction */
SRP1[ ]	/* SetRefPoint1 */
IP[ ]	/* InterpolatePts */
SRP1[ ]	/* SetRefPoint1 */
SHP[1]	/* ShiftPointByLastPoint */
SHP[1]	/* ShiftPointByLastPoint */
CALL[ ]	/* CallFunction */
CALL[ ]	/* CallFunction */
IUP[1]	/* InterpolateUntPts */
IUP[0]	/* InterpolateUntPts */";
};
width = 762;
}
);
note = uni004D;
unicode = 77;
},
{
color = 10;
glyphname = N;
lastChange = "2022-01-06 02:32:25 +0000";
layers = (
{
layerId = "4397B867-53E7-4964-BB9B-A578920F109C";
shapes = (
{
closed = 1;
nodes = (
(231,0,l),
(231,34,l),
(221,34,ls),
(186,34,o),
(155,41,o),
(155,91,cs),
(155,461,l),
(455,0,l),
(512,0,l),
(512,480,ls),
(512,530,o),
(541,538,o),
(578,538,cs),
(588,538,l),
(588,571,l),
(387,571,l),
(387,538,l),
(398,538,ls),
(433,538,o),
(463,531,o),
(463,483,cs),
(463,129,l),
(177,571,l),
(30,571,l),
(30,538,l),
(41,538,ls),
(75,538,o),
(106,531,o),
(106,483,cs),
(106,91,ls),
(106,42,o),
(78,34,o),
(41,34,cs),
(30,34,l),
(30,0,l)
);
}
);
userData = {
assembly = "NPUSHB[ ]	/* 42 values pushed */
6 26 22 26 38 26 3 9 0 25 0 41 0 3 0 27 251 44 101 46 26 2 251 17 100 45 1 27 0 38 34 24 93 35 25 3 7 11 93 0 10 18 
SVTCA[0]	/* SetFreedomAndProjectionVectorToAxis */
MIAP[1]	/* MoveIndirectAbsPt */
SHP[1]	/* ShiftPointByLastPoint */
MIRP[00001]	/* MoveIndirectRelPt */
SHP[0]	/* ShiftPointByLastPoint */
MIAP[1]	/* MoveIndirectAbsPt */
SHP[1]	/* ShiftPointByLastPoint */
MIRP[00001]	/* MoveIndirectRelPt */
SHP[0]	/* ShiftPointByLastPoint */
SHP[0]	/* ShiftPointByLastPoint */
SRP1[ ]	/* SetRefPoint1 */
IP[ ]	/* InterpolatePts */
IP[ ]	/* InterpolatePts */
SVTCA[1]	/* SetFreedomAndProjectionVectorToAxis */
SRP0[ ]	/* SetRefPoint0 */
MIRP[10100]	/* MoveIndirectRelPt */
MIRP[01001]	/* MoveIndirectRelPt */
SHP[0]	/* ShiftPointByLastPoint */
SRP0[ ]	/* SetRefPoint0 */
MIRP[10110]	/* MoveIndirectRelPt */
MIRP[01001]	/* MoveIndirectRelPt */
SHP[0]	/* ShiftPointByLastPoint */
IUP[1]	/* InterpolateUntPts */
IUP[0]	/* InterpolateUntPts */
DELTAP1[ ]	/* DeltaExceptionP1 */
DELTAP1[ ]	/* DeltaExceptionP1 */";
};
width = 610;
},
{
layerId = "0ED38B93-C2B0-4B4A-9C6D-D7838A33C317";
shapes = (
{
closed = 1;
nodes = (
(231,0,l),
(231,42,l),
(198,42,ls),
(174,42,o),
(157,50,o),
(157,94,cs),
(157,441,l),
(469,0,l),
(542,0,l),
(542,477,ls),
(542,522,o),
(560,529,o),
(583,529,cs),
(617,529,l),
(617,571,l),
(408,571,l),
(408,529,l),
(442,529,ls),
(464,529,o),
(482,522,o),
(482,480,cs),
(482,172,l),
(200,571,l),
(22,571,l),
(22,529,l),
(56,529,ls),
(78,529,o),
(97,522,o),
(97,480,cs),
(97,94,ls),
(97,50,o),
(80,42,o),
(56,42,cs),
(22,42,l),
(22,0,l)
);
}
);
userData = {
assembly = "NPUSHB[ ]	/* 41 values pushed */
0 27 87 27 1 27 44 101 46 63 46 1 6 26 1 26 2 88 2 1 2 17 100 45 38 34 24 35 24 1 3 25 3 7 11 0 11 27 3 10 18 
SVTCA[0]	/* SetFreedomAndProjectionVectorToAxis */
MIAP[1]	/* MoveIndirectAbsPt */
SLOOP[ ]	/* SetLoopVariable */
SHP[1]	/* ShiftPointByLastPoint */
SRP1[ ]	/* SetRefPoint1 */
SHP[1]	/* ShiftPointByLastPoint */
MIAP[1]	/* MoveIndirectAbsPt */
SLOOP[ ]	/* SetLoopVariable */
SHP[1]	/* ShiftPointByLastPoint */
SRP1[ ]	/* SetRefPoint1 */
SHP[1]	/* ShiftPointByLastPoint */
SHP[1]	/* ShiftPointByLastPoint */
SVTCA[1]	/* SetFreedomAndProjectionVectorToAxis */
SRP0[ ]	/* SetRefPoint0 */
MIRP[00100]	/* MoveIndirectRelPt */
SHP[0]	/* ShiftPointByLastPoint */
DELTAP1[ ]	/* DeltaExceptionP1 */
SRP1[ ]	/* SetRefPoint1 */
SHP[1]	/* ShiftPointByLastPoint */
DELTAP1[ ]	/* DeltaExceptionP1 */
DELTAP1[ ]	/* DeltaExceptionP1 */
SRP0[ ]	/* SetRefPoint0 */
MIRP[00110]	/* MoveIndirectRelPt */
SHP[0]	/* ShiftPointByLastPoint */
DELTAP1[ ]	/* DeltaExceptionP1 */
SRP1[ ]	/* SetRefPoint1 */
SHP[1]	/* ShiftPointByLastPoint */
IUP[1]	/* InterpolateUntPts */
IUP[0]	/* InterpolateUntPts */";
};
width = 630;
}
);
note = uni004E;
unicode = 78;
},
{
color = 10;
glyphname = O;
lastChange = "2022-01-06 02:32:25 +0000";
layers = (
{
layerId = "4397B867-53E7-4964-BB9B-A578920F109C";
shapes = (
{
closed = 1;
nodes = (
(458,-8,o),
(548,109,o),
(548,286,cs),
(548,455,o),
(466,580,o),
(298,580,cs),
(124,580,o),
(45,461,o),
(45,287,cs),
(45,110,o),
(127,-8,o),
(297,-8,cs)
);
},
{
closed = 1;
nodes = (
(238,35,o),
(197,58,o),
(170,102,cs),
(145,144,o),
(134,207,o),
(134,286,cs),
(134,446,o),
(178,537,o),
(298,537,cs),
(415,537,o),
(459,446,o),
(459,286,cs),
(459,207,o),
(449,144,o),
(423,102,cs),
(397,58,o),
(356,35,o),
(297,35,cs)
);
}
);
userData = {
assembly = "NPUSHB[ ]	/* 24 values pushed */
30 91 0 103 41 175 41 1 64 41 1 20 91 10 102 40 35 95 15 4 25 95 5 19 
SVTCA[0]	/* SetFreedomAndProjectionVectorToAxis */
MIAP[1]	/* MoveIndirectAbsPt */
MIRP[00001]	/* MoveIndirectRelPt */
MIAP[1]	/* MoveIndirectAbsPt */
MIRP[00001]	/* MoveIndirectRelPt */
SVTCA[1]	/* SetFreedomAndProjectionVectorToAxis */
SRP0[ ]	/* SetRefPoint0 */
MIRP[10110]	/* MoveIndirectRelPt */
MIRP[00001]	/* MoveIndirectRelPt */
DELTAP1[ ]	/* DeltaExceptionP1 */
DELTAP1[ ]	/* DeltaExceptionP1 */
SRP0[ ]	/* SetRefPoint0 */
MIRP[10110]	/* MoveIndirectRelPt */
MIRP[00001]	/* MoveIndirectRelPt */
IUP[1]	/* InterpolateUntPts */
IUP[0]	/* InterpolateUntPts */";
};
width = 594;
},
{
layerId = "0ED38B93-C2B0-4B4A-9C6D-D7838A33C317";
shapes = (
{
closed = 1;
nodes = (
(489,-8,o),
(586,110,o),
(586,286,cs),
(586,465,o),
(489,580,o),
(316,580,cs),
(134,580,o),
(44,464,o),
(44,287,cs),
(44,109,o),
(134,-8,o),
(315,-8,cs)
);
},
{
closed = 1;
nodes = (
(266,44,o),
(232,66,o),
(210,108,cs),
(188,150,o),
(178,210,o),
(178,286,cs),
(178,440,o),
(216,528,o),
(316,528,cs),
(414,528,o),
(451,440,o),
(451,286,cs),
(451,210,o),
(442,150,o),
(421,108,cs),
(399,66,o),
(366,44,o),
(315,44,cs)
);
}
);
userData = {
assembly = "NPUSHB[ ]	/* 27 values pushed */
8 30 24 30 2 30 0 103 41 223 41 1 7 20 23 20 2 20 10 102 40 35 15 4 25 5 19 
SVTCA[0]	/* SetFreedomAndProjectionVectorToAxis */
MIAP[1]	/* MoveIndirectAbsPt */
SHP[1]	/* ShiftPointByLastPoint */
MIAP[1]	/* MoveIndirectAbsPt */
SHP[1]	/* ShiftPointByLastPoint */
SVTCA[1]	/* SetFreedomAndProjectionVectorToAxis */
SRP0[ ]	/* SetRefPoint0 */
MIRP[00110]	/* MoveIndirectRelPt */
SHP[0]	/* ShiftPointByLastPoint */
DELTAP1[ ]	/* DeltaExceptionP1 */
DELTAP1[ ]	/* DeltaExceptionP1 */
SRP0[ ]	/* SetRefPoint0 */
MIRP[00110]	/* MoveIndirectRelPt */
SHP[0]	/* ShiftPointByLastPoint */
DELTAP1[ ]	/* DeltaExceptionP1 */
IUP[1]	/* InterpolateUntPts */
IUP[0]	/* InterpolateUntPts */";
};
width = 630;
}
);
note = uni004F;
unicode = 79;
},
{
color = 10;
glyphname = P;
lastChange = "2022-01-06 02:32:25 +0000";
layers = (
{
layerId = "4397B867-53E7-4964-BB9B-A578920F109C";
shapes = (
{
closed = 1;
nodes = (
(279,0,l),
(279,34,l),
(253,34,ls),
(217,34,o),
(187,40,o),
(187,87,cs),
(187,222,l),
(238,222,ls),
(397,222,o),
(452,310,o),
(452,404,cs),
(452,456,o),
(436,498,o),
(404,526,cs),
(372,555,o),
(322,571,o),
(255,571,cs),
(30,571,l),
(30,538,l),
(41,538,ls),
(75,538,o),
(106,531,o),
(106,483,cs),
(106,91,ls),
(106,42,o),
(78,34,o),
(41,34,cs),
(30,34,l),
(30,0,l)
);
},
{
closed = 1;
nodes = (
(187,533,l),
(242,533,ls),
(332,533,o),
(366,491,o),
(366,401,cs),
(366,298,o),
(326,260,o),
(230,260,cs),
(187,260,l)
);
}
);
userData = {
assembly = "NPUSHB[ ]	/* 36 values pushed */
42 91 21 103 50 15 50 95 50 111 50 175 50 4 36 28 90 7 100 49 27 94 36 36 1 48 94 14 93 15 3 33 1 93 0 18 
SVTCA[0]	/* SetFreedomAndProjectionVectorToAxis */
MIAP[1]	/* MoveIndirectAbsPt */
MIRP[00001]	/* MoveIndirectRelPt */
SHP[0]	/* ShiftPointByLastPoint */
MIAP[1]	/* MoveIndirectAbsPt */
MIRP[00001]	/* MoveIndirectRelPt */
MIRP[00001]	/* MoveIndirectRelPt */
SRP2[ ]	/* SetRefPoint2 */
IP[ ]	/* InterpolatePts */
MDAP[1]	/* MoveDirectAbsPt */
MIRP[00001]	/* MoveIndirectRelPt */
SVTCA[1]	/* SetFreedomAndProjectionVectorToAxis */
SRP0[ ]	/* SetRefPoint0 */
MIRP[10100]	/* MoveIndirectRelPt */
MIRP[00001]	/* MoveIndirectRelPt */
SHP[0]	/* ShiftPointByLastPoint */
DELTAP1[ ]	/* DeltaExceptionP1 */
SRP0[ ]	/* SetRefPoint0 */
MIRP[10110]	/* MoveIndirectRelPt */
MIRP[00001]	/* MoveIndirectRelPt */
IUP[1]	/* InterpolateUntPts */
IUP[0]	/* InterpolateUntPts */";
};
width = 483;
},
{
layerId = "0ED38B93-C2B0-4B4A-9C6D-D7838A33C317";
shapes = (
{
closed = 1;
nodes = (
(314,0,l),
(314,42,l),
(266,42,ls),
(242,42,o),
(223,49,o),
(223,90,cs),
(223,218,l),
(250,218,ls),
(424,218,o),
(486,306,o),
(486,402,cs),
(486,454,o),
(469,496,o),
(433,526,cs),
(397,555,o),
(342,571,o),
(268,571,cs),
(22,571,l),
(22,529,l),
(56,529,ls),
(80,529,o),
(97,521,o),
(97,480,cs),
(97,94,ls),
(97,50,o),
(80,42,o),
(56,42,cs),
(22,42,l),
(22,0,l)
);
},
{
closed = 1;
nodes = (
(223,524,l),
(254,524,ls),
(326,524,o),
(352,483,o),
(352,398,cs),
(352,314,o),
(329,265,o),
(242,265,cs),
(223,265,l)
);
}
);
userData = {
assembly = "NPUSHB[ ]	/* 36 values pushed */
5 34 21 34 2 36 6 6 22 100 49 72 42 1 42 0 0 48 0 64 0 80 0 4 0 0 50 159 50 1 79 50 95 50 2 6 
PUSHW[ ]	/* 1 value pushed */
-8 
NPUSHB[ ]	/* 32 values pushed */
10 14 72 6 175 36 1 36 72 18 73 15 36 31 36 63 36 3 36 36 16 30 48 29 29 30 3 12 16 16 15 18 
SVTCA[0]	/* SetFreedomAndProjectionVectorToAxis */
MIAP[1]	/* MoveIndirectAbsPt */
SHP[1]	/* ShiftPointByLastPoint */
SRP1[ ]	/* SetRefPoint1 */
SHP[1]	/* ShiftPointByLastPoint */
MIAP[1]	/* MoveIndirectAbsPt */
SHP[1]	/* ShiftPointByLastPoint */
SRP1[ ]	/* SetRefPoint1 */
SHP[1]	/* ShiftPointByLastPoint */
SRP1[ ]	/* SetRefPoint1 */
SRP2[ ]	/* SetRefPoint2 */
IP[ ]	/* InterpolatePts */
MDAP[1]	/* MoveDirectAbsPt */
DELTAP1[ ]	/* DeltaExceptionP1 */
CALL[ ]	/* CallFunction */
DELTAP1[ ]	/* DeltaExceptionP1 */
SHP[1]	/* ShiftPointByLastPoint */
CALL[ ]	/* CallFunction */
SVTCA[1]	/* SetFreedomAndProjectionVectorToAxis */
DELTAP1[ ]	/* DeltaExceptionP1 */
DELTAP1[ ]	/* DeltaExceptionP1 */
SRP1[ ]	/* SetRefPoint1 */
SHP[1]	/* ShiftPointByLastPoint */
MDAP[1]	/* MoveDirectAbsPt */
DELTAP1[ ]	/* DeltaExceptionP1 */
SHP[1]	/* ShiftPointByLastPoint */
DELTAP1[ ]	/* DeltaExceptionP1 */
SRP0[ ]	/* SetRefPoint0 */
MIRP[00100]	/* MoveIndirectRelPt */
SHP[0]	/* ShiftPointByLastPoint */
SRP1[ ]	/* SetRefPoint1 */
SHP[1]	/* ShiftPointByLastPoint */
IUP[1]	/* InterpolateUntPts */
IUP[0]	/* InterpolateUntPts */
DELTAP1[ ]	/* DeltaExceptionP1 */";
};
width = 510;
}
);
note = uni0050;
unicode = 80;
},
{
color = 10;
glyphname = Q;
lastChange = "2022-01-06 02:32:25 +0000";
layers = (
{
layerId = "4397B867-53E7-4964-BB9B-A578920F109C";
shapes = (
{
closed = 1;
nodes = (
(482,-184,l),
(482,-146,l),
(469,-146,ls),
(437,-146,o),
(409,-138,o),
(389,-116,cs),
(368,-94,o),
(355,-58,o),
(350,-3,c),
(478,20,o),
(548,130,o),
(548,286,cs),
(548,455,o),
(466,580,o),
(298,580,cs),
(124,580,o),
(45,461,o),
(45,287,cs),
(45,121,o),
(116,10,o),
(262,-6,c),
(273,-144,o),
(363,-184,o),
(447,-184,cs)
);
},
{
closed = 1;
nodes = (
(238,35,o),
(197,58,o),
(170,102,cs),
(145,144,o),
(134,207,o),
(134,286,cs),
(134,446,o),
(178,537,o),
(298,537,cs),
(415,537,o),
(459,446,o),
(459,286,cs),
(459,207,o),
(449,144,o),
(423,102,cs),
(397,58,o),
(356,35,o),
(297,35,cs)
);
}
);
userData = {
assembly = "NPUSHB[ ]	/* 39 values pushed */
12 12 43 91 0 5 91 19 23 4 18 18 23 0 103 54 175 54 1 64 54 1 33 91 23 102 53 48 95 28 4 38 94 5 18 19 10 94 13 
SVTCA[0]	/* SetFreedomAndProjectionVectorToAxis */
MDAP[1]	/* MoveDirectAbsPt */
MIRP[00001]	/* MoveIndirectRelPt */
MIAP[1]	/* MoveIndirectAbsPt */
SHP[1]	/* ShiftPointByLastPoint */
MIRP[00001]	/* MoveIndirectRelPt */
MIAP[1]	/* MoveIndirectAbsPt */
MIRP[00001]	/* MoveIndirectRelPt */
SVTCA[1]	/* SetFreedomAndProjectionVectorToAxis */
SRP0[ ]	/* SetRefPoint0 */
MIRP[10110]	/* MoveIndirectRelPt */
MIRP[00001]	/* MoveIndirectRelPt */
DELTAP1[ ]	/* DeltaExceptionP1 */
DELTAP1[ ]	/* DeltaExceptionP1 */
SRP0[ ]	/* SetRefPoint0 */
MIRP[00110]	/* MoveIndirectRelPt */
SRP1[ ]	/* SetRefPoint1 */
IP[ ]	/* InterpolatePts */
MDAP[1]	/* MoveDirectAbsPt */
IP[ ]	/* InterpolatePts */
SRP2[ ]	/* SetRefPoint2 */
IP[ ]	/* InterpolatePts */
MIRP[00001]	/* MoveIndirectRelPt */
SRP0[ ]	/* SetRefPoint0 */
MIRP[10001]	/* MoveIndirectRelPt */
MDRP[00000]	/* MoveDirectRelPt */
MDAP[1]	/* MoveDirectAbsPt */
IUP[1]	/* InterpolateUntPts */
IUP[0]	/* InterpolateUntPts */";
};
width = 594;
},
{
layerId = "0ED38B93-C2B0-4B4A-9C6D-D7838A33C317";
shapes = (
{
closed = 1;
nodes = (
(519,-192,l),
(519,-146,l),
(506,-146,ls),
(480,-146,o),
(454,-138,o),
(432,-117,cs),
(411,-95,o),
(396,-59,o),
(391,0,c),
(525,32,o),
(586,149,o),
(586,286,cs),
(586,465,o),
(489,580,o),
(316,580,cs),
(134,580,o),
(44,464,o),
(44,287,cs),
(44,131,o),
(114,19,o),
(258,-3,c),
(268,-138,o),
(366,-192,o),
(462,-192,cs)
);
},
{
closed = 1;
nodes = (
(266,44,o),
(232,66,o),
(210,108,cs),
(188,150,o),
(178,210,o),
(178,286,cs),
(178,440,o),
(216,528,o),
(316,528,cs),
(414,528,o),
(451,440,o),
(451,286,cs),
(451,210,o),
(442,150,o),
(421,108,cs),
(399,66,o),
(366,44,o),
(315,44,cs)
);
}
);
userData = {
assembly = "NPUSHB[ ]	/* 55 values pushed */
153 18 169 18 2 38 5 166 5 2 5 18 23 12 43 8 43 24 43 2 43 0 103 54 7 33 23 33 2 33 23 102 53 38 5 18 19 48 28 4 10 47 13 111 13 175 13 191 13 239 13 255 13 6 13 
SVTCA[0]	/* SetFreedomAndProjectionVectorToAxis */
MDAP[1]	/* MoveDirectAbsPt */
DELTAP1[ ]	/* DeltaExceptionP1 */
SHP[1]	/* ShiftPointByLastPoint */
MIAP[1]	/* MoveIndirectAbsPt */
SHP[1]	/* ShiftPointByLastPoint */
MIAP[1]	/* MoveIndirectAbsPt */
SHP[1]	/* ShiftPointByLastPoint */
SHP[1]	/* ShiftPointByLastPoint */
SVTCA[1]	/* SetFreedomAndProjectionVectorToAxis */
SRP0[ ]	/* SetRefPoint0 */
MIRP[00110]	/* MoveIndirectRelPt */
SHP[0]	/* ShiftPointByLastPoint */
DELTAP1[ ]	/* DeltaExceptionP1 */
SRP0[ ]	/* SetRefPoint0 */
MIRP[00110]	/* MoveIndirectRelPt */
SHP[0]	/* ShiftPointByLastPoint */
DELTAP1[ ]	/* DeltaExceptionP1 */
SRP1[ ]	/* SetRefPoint1 */
IP[ ]	/* InterpolatePts */
SRP1[ ]	/* SetRefPoint1 */
IP[ ]	/* InterpolatePts */
IP[ ]	/* InterpolatePts */
DELTAP1[ ]	/* DeltaExceptionP1 */
DELTAP1[ ]	/* DeltaExceptionP1 */
IUP[1]	/* InterpolateUntPts */
IUP[0]	/* InterpolateUntPts */";
};
width = 630;
}
);
note = uni0051;
unicode = 81;
},
{
color = 10;
glyphname = R;
lastChange = "2022-01-06 02:32:25 +0000";
layers = (
{
layerId = "4397B867-53E7-4964-BB9B-A578920F109C";
shapes = (
{
closed = 1;
nodes = (
(263,0,l),
(263,34,l),
(253,34,ls),
(217,34,o),
(187,40,o),
(187,87,cs),
(187,252,l),
(254,252,l),
(362,72,ls),
(398,12,o),
(416,0,o),
(518,0,cs),
(530,0,l),
(530,34,l),
(527,34,ls),
(494,34,o),
(470,55,o),
(443,98,cs),
(334,271,l),
(390,290,o),
(451,332,o),
(451,417,cs),
(451,520,o),
(384,571,o),
(246,571,cs),
(30,571,l),
(30,538,l),
(41,538,ls),
(75,538,o),
(106,531,o),
(106,483,cs),
(106,87,ls),
(106,40,o),
(77,34,o),
(41,34,cs),
(30,34,l),
(30,0,l)
);
},
{
closed = 1;
nodes = (
(187,533,l),
(242,533,ls),
(332,533,o),
(366,500,o),
(366,414,cs),
(366,330,o),
(336,290,o),
(243,290,cs),
(187,290,l)
);
}
);
userData = {
assembly = "NPUSHB[ ]	/* 51 values pushed */
41 12 1 41 11 1 12 46 47 53 91 41 16 5 32 5 2 5 61 64 61 1 47 61 1 47 14 90 29 100 60 46 37 13 94 47 47 23 59 94 36 93 37 3 19 3 23 93 6 22 18 
SVTCA[0]	/* SetFreedomAndProjectionVectorToAxis */
MIAP[1]	/* MoveIndirectAbsPt */
SHP[1]	/* ShiftPointByLastPoint */
MIRP[00001]	/* MoveIndirectRelPt */
SHP[0]	/* ShiftPointByLastPoint */
SHP[0]	/* ShiftPointByLastPoint */
MIAP[1]	/* MoveIndirectAbsPt */
MIRP[00001]	/* MoveIndirectRelPt */
MIRP[00001]	/* MoveIndirectRelPt */
SRP2[ ]	/* SetRefPoint2 */
IP[ ]	/* InterpolatePts */
MDAP[1]	/* MoveDirectAbsPt */
MIRP[00001]	/* MoveIndirectRelPt */
SRP1[ ]	/* SetRefPoint1 */
IP[ ]	/* InterpolatePts */
SVTCA[1]	/* SetFreedomAndProjectionVectorToAxis */
SRP0[ ]	/* SetRefPoint0 */
MIRP[10100]	/* MoveIndirectRelPt */
MIRP[00001]	/* MoveIndirectRelPt */
SHP[0]	/* ShiftPointByLastPoint */
DELTAP1[ ]	/* DeltaExceptionP1 */
DELTAP1[ ]	/* DeltaExceptionP1 */
SRP0[ ]	/* SetRefPoint0 */
MDRP[10101]	/* MoveDirectRelPt */
DELTAP1[ ]	/* DeltaExceptionP1 */
MDRP[10100]	/* MoveDirectRelPt */
MIRP[00001]	/* MoveIndirectRelPt */
SRP2[ ]	/* SetRefPoint2 */
IP[ ]	/* InterpolatePts */
IP[ ]	/* InterpolatePts */
IUP[1]	/* InterpolateUntPts */
IUP[0]	/* InterpolateUntPts */
DELTAP1[ ]	/* DeltaExceptionP1 */
DELTAP1[ ]	/* DeltaExceptionP1 */";
};
width = 525;
},
{
layerId = "0ED38B93-C2B0-4B4A-9C6D-D7838A33C317";
shapes = (
{
closed = 1;
nodes = (
(298,0,l),
(298,42,l),
(264,42,ls),
(242,42,o),
(223,49,o),
(223,90,cs),
(223,248,l),
(276,248,l),
(371,72,ls),
(404,13,o),
(444,0,o),
(542,0,cs),
(569,0,l),
(569,42,l),
(566,42,ls),
(534,42,o),
(511,64,o),
(486,108,cs),
(390,272,l),
(446,294,o),
(499,339,o),
(499,423,cs),
(499,519,o),
(431,571,o),
(280,571,cs),
(22,571,l),
(22,529,l),
(56,529,ls),
(78,529,o),
(97,522,o),
(97,480,cs),
(97,90,ls),
(97,49,o),
(78,42,o),
(56,42,cs),
(22,42,l),
(22,0,l)
);
},
{
closed = 1;
nodes = (
(223,524,l),
(266,524,ls),
(336,524,o),
(365,494,o),
(365,412,cs),
(365,334,o),
(341,294,o),
(268,294,cs),
(223,294,l)
);
}
);
userData = {
assembly = "NPUSHB[ ]	/* 12 values pushed */
41 35 1 13 37 1 5 17 21 17 2 23 
PUSHW[ ]	/* 1 value pushed */
-16 
NPUSHB[ ]	/* 54 values pushed */
9 12 72 38 37 23 24 4 18 49 40 40 6 100 62 72 55 1 55 30 48 18 64 18 80 18 3 18 63 63 63 239 63 2 23 39 39 152 49 1 49 49 14 45 29 0 32 48 18 61 13 13 14 3 
SVTCA[0]	/* SetFreedomAndProjectionVectorToAxis */
MIAP[1]	/* MoveIndirectAbsPt */
SHP[1]	/* ShiftPointByLastPoint */
SRP1[ ]	/* SetRefPoint1 */
SHP[1]	/* ShiftPointByLastPoint */
MIAP[1]	/* MoveIndirectAbsPt */
SHP[1]	/* ShiftPointByLastPoint */
SHP[1]	/* ShiftPointByLastPoint */
SHP[0]	/* ShiftPointByLastPoint */
SHP[0]	/* ShiftPointByLastPoint */
SRP1[ ]	/* SetRefPoint1 */
IP[ ]	/* InterpolatePts */
MDAP[1]	/* MoveDirectAbsPt */
DELTAP1[ ]	/* DeltaExceptionP1 */
SHP[1]	/* ShiftPointByLastPoint */
SRP2[ ]	/* SetRefPoint2 */
IP[ ]	/* InterpolatePts */
SVTCA[1]	/* SetFreedomAndProjectionVectorToAxis */
DELTAP1[ ]	/* DeltaExceptionP1 */
SRP0[ ]	/* SetRefPoint0 */
MDRP[01100]	/* MoveDirectRelPt */
DELTAP1[ ]	/* DeltaExceptionP1 */
SHP[0]	/* ShiftPointByLastPoint */
SHP[0]	/* ShiftPointByLastPoint */
DELTAP1[ ]	/* DeltaExceptionP1 */
SRP0[ ]	/* SetRefPoint0 */
MIRP[00100]	/* MoveIndirectRelPt */
SHP[0]	/* ShiftPointByLastPoint */
SRP1[ ]	/* SetRefPoint1 */
SHP[1]	/* ShiftPointByLastPoint */
SRP2[ ]	/* SetRefPoint2 */
SLOOP[ ]	/* SetLoopVariable */
IP[ ]	/* InterpolatePts */
CALL[ ]	/* CallFunction */
IUP[1]	/* InterpolateUntPts */
IUP[0]	/* InterpolateUntPts */
DELTAP1[ ]	/* DeltaExceptionP1 */
SVTCA[0]	/* SetFreedomAndProjectionVectorToAxis */
DELTAP1[ ]	/* DeltaExceptionP1 */
DELTAP1[ ]	/* DeltaExceptionP1 */";
};
width = 566;
}
);
note = uni0052;
unicode = 82;
},
{
color = 10;
glyphname = S;
lastChange = "2022-01-06 02:32:25 +0000";
layers = (
{
background = {
shapes = (
{
closed = 1;
nodes = (
(318,-8,o),
(394,52,o),
(394,153,cs),
(394,235,o),
(338,280,o),
(246,318,cs),
(199,337,o),
(168,354,o),
(149,374,cs),
(129,393,o),
(122,416,o),
(122,448,cs),
(122,503,o),
(158,539,o),
(219,539,cs),
(287,539,o),
(309,487,o),
(309,438,c),
(347,438,o),
(372,455,o),
(372,490,cs),
(372,536,o),
(318,579,o),
(222,579,cs),
(120,579,o),
(47,526,o),
(47,434,cs),
(47,390,o),
(59,356,o),
(83,328,cs),
(108,299,o),
(145,277,o),
(194,257,cs),
(287,218,o),
(318,190,o),
(318,132,cs),
(318,67,o),
(276,31,o),
(204,31,cs),
(129,31,o),
(99,93,o),
(96,158,c),
(59,158,o),
(38,137,o),
(38,105,cs),
(38,71,o),
(52,42,o),
(78,23,cs),
(106,4,o),
(146,-8,o),
(198,-8,cs)
);
}
);
};
layerId = "4397B867-53E7-4964-BB9B-A578920F109C";
shapes = (
{
closed = 1;
nodes = (
(318,-8,o),
(394,52,o),
(394,153,cs),
(394,235,o),
(338,280,o),
(246,318,cs),
(169,350,o),
(122,374,o),
(122,448,cs),
(122,503,o),
(158,539,o),
(219,539,cs),
(287,539,o),
(309,487,o),
(309,438,c),
(347,438,o),
(372,455,o),
(372,490,cs),
(372,536,o),
(318,579,o),
(222,579,cs),
(120,579,o),
(47,526,o),
(47,434,cs),
(47,338,o),
(106,293,o),
(194,257,cs),
(287,218,o),
(318,190,o),
(318,132,cs),
(318,67,o),
(276,31,o),
(204,31,cs),
(129,31,o),
(99,93,o),
(96,158,c),
(59,158,o),
(38,137,o),
(38,105,cs),
(38,22,o),
(115,-8,o),
(198,-8,cs)
);
}
);
userData = {
assembly = "NPUSHB[ ]	/* 39 values pushed */
39 36 16 90 59 103 65 15 65 175 65 2 49 90 26 8 5 102 64 54 21 13 44 94 48 39 64 39 80 39 3 39 31 4 13 94 8 0 19 
SVTCA[0]	/* SetFreedomAndProjectionVectorToAxis */
MIAP[1]	/* MoveIndirectAbsPt */
MDRP[01100]	/* MoveDirectRelPt */
MIRP[00001]	/* MoveIndirectRelPt */
MIAP[1]	/* MoveIndirectAbsPt */
MDRP[01100]	/* MoveDirectRelPt */
DELTAP1[ ]	/* DeltaExceptionP1 */
MIRP[00001]	/* MoveIndirectRelPt */
SRP2[ ]	/* SetRefPoint2 */
IP[ ]	/* InterpolatePts */
IP[ ]	/* InterpolatePts */
SVTCA[1]	/* SetFreedomAndProjectionVectorToAxis */
SRP0[ ]	/* SetRefPoint0 */
MIRP[10110]	/* MoveIndirectRelPt */
MDRP[01001]	/* MoveDirectRelPt */
MDRP[10100]	/* MoveDirectRelPt */
MIRP[00001]	/* MoveIndirectRelPt */
DELTAP1[ ]	/* DeltaExceptionP1 */
SRP0[ ]	/* SetRefPoint0 */
MIRP[10110]	/* MoveIndirectRelPt */
MIRP[00001]	/* MoveIndirectRelPt */
MDRP[10100]	/* MoveDirectRelPt */
MDRP[01001]	/* MoveDirectRelPt */
IUP[1]	/* InterpolateUntPts */
IUP[0]	/* InterpolateUntPts */";
};
width = 435;
},
{
background = {
shapes = (
{
closed = 1;
nodes = (
(278,-8,o),
(332,10,o),
(370,41,cs),
(408,72,o),
(429,116,o),
(429,167,cs),
(429,206,o),
(418,238,o),
(394,265,cs),
(369,291,o),
(331,314,o),
(276,337,cs),
(168,380,o),
(144,411,o),
(144,457,cs),
(144,505,o),
(180,530,o),
(223,530,cs),
(285,530,o),
(308,466,o),
(308,420,c),
(374,420,o),
(406,449,o),
(406,486,cs),
(406,512,o),
(393,536,o),
(365,552,cs),
(337,569,o),
(294,579,o),
(236,579,cs),
(124,579,o),
(40,517,o),
(40,418,cs),
(40,379,o),
(50,347,o),
(73,318,cs),
(96,290,o),
(134,267,o),
(190,244,cs),
(234,226,o),
(268,210,o),
(290,192,cs),
(312,174,o),
(323,154,o),
(323,126,cs),
(323,78,o),
(288,40,o),
(224,40,cs),
(192,40,o),
(165,52,o),
(146,75,cs),
(126,98,o),
(114,133,o),
(114,178,c),
(68,178,o),
(24,159,o),
(24,104,cs),
(24,78,o),
(35,50,o),
(64,29,cs),
(93,7,o),
(139,-8,o),
(211,-8,cs)
);
}
);
};
layerId = "0ED38B93-C2B0-4B4A-9C6D-D7838A33C317";
shapes = (
{
closed = 1;
nodes = (
(327,-8,o),
(429,51,o),
(429,167,cs),
(429,260,o),
(362,302,o),
(276,337,cs),
(168,380,o),
(144,411,o),
(144,457,cs),
(144,505,o),
(180,530,o),
(223,530,cs),
(285,530,o),
(308,466,o),
(308,420,c),
(374,420,o),
(406,449,o),
(406,486,cs),
(406,539,o),
(350,579,o),
(236,579,cs),
(124,579,o),
(40,517,o),
(40,418,cs),
(40,322,o),
(101,281,o),
(190,244,cs),
(288,203,o),
(323,179,o),
(323,126,cs),
(323,78,o),
(288,40,o),
(224,40,cs),
(150,40,o),
(114,102,o),
(114,178,c),
(68,178,o),
(24,159,o),
(24,104,cs),
(24,19,o),
(123,-8,o),
(211,-8,cs)
);
}
);
userData = {
assembly = "NPUSHB[ ]	/* 84 values pushed */
25 45 41 45 2 8 45 1 45 40 9 40 25 40 41 40 89 40 105 40 5 40 20 65 103 71 127 71 207 71 2 64 71 1 47 71 1 10 5 5 55 30 102 70 167 55 183 55 2 55 65 35 15 168 20 184 20 2 20 30 50 40 45 120 45 200 45 3 50 45 35 4 38 10 86 10 2 21 10 1 10 15 0 19 
SVTCA[0]	/* SetFreedomAndProjectionVectorToAxis */
MIAP[1]	/* MoveIndirectAbsPt */
SHP[0]	/* ShiftPointByLastPoint */
SHP[0]	/* ShiftPointByLastPoint */
DELTAP1[ ]	/* DeltaExceptionP1 */
DELTAP1[ ]	/* DeltaExceptionP1 */
MIAP[1]	/* MoveIndirectAbsPt */
SHP[1]	/* ShiftPointByLastPoint */
SHP[1]	/* ShiftPointByLastPoint */
DELTAP1[ ]	/* DeltaExceptionP1 */
SRP1[ ]	/* SetRefPoint1 */
IP[ ]	/* InterpolatePts */
IP[ ]	/* InterpolatePts */
DELTAP1[ ]	/* DeltaExceptionP1 */
SRP1[ ]	/* SetRefPoint1 */
SRP2[ ]	/* SetRefPoint2 */
IP[ ]	/* InterpolatePts */
IP[ ]	/* InterpolatePts */
DELTAP1[ ]	/* DeltaExceptionP1 */
SVTCA[1]	/* SetFreedomAndProjectionVectorToAxis */
SRP0[ ]	/* SetRefPoint0 */
MIRP[00110]	/* MoveIndirectRelPt */
SHP[0]	/* ShiftPointByLastPoint */
SHP[0]	/* ShiftPointByLastPoint */
SRP1[ ]	/* SetRefPoint1 */
SHP[1]	/* ShiftPointByLastPoint */
DELTAP1[ ]	/* DeltaExceptionP1 */
DELTAP1[ ]	/* DeltaExceptionP1 */
DELTAP1[ ]	/* DeltaExceptionP1 */
SRP0[ ]	/* SetRefPoint0 */
MIRP[00110]	/* MoveIndirectRelPt */
SHP[0]	/* ShiftPointByLastPoint */
SHP[0]	/* ShiftPointByLastPoint */
DELTAP1[ ]	/* DeltaExceptionP1 */
SRP1[ ]	/* SetRefPoint1 */
SHP[1]	/* ShiftPointByLastPoint */
DELTAP1[ ]	/* DeltaExceptionP1 */
DELTAP1[ ]	/* DeltaExceptionP1 */
IUP[1]	/* InterpolateUntPts */
IUP[0]	/* InterpolateUntPts */";
};
width = 469;
}
);
note = uni0053;
unicode = 83;
},
{
color = 10;
glyphname = T;
lastChange = "2022-01-06 02:32:25 +0000";
layers = (
{
layerId = "4397B867-53E7-4964-BB9B-A578920F109C";
shapes = (
{
closed = 1;
nodes = (
(369,0,l),
(369,34,l),
(350,34,ls),
(315,34,o),
(285,41,o),
(285,91,cs),
(285,531,l),
(362,531,ls),
(410,531,o),
(425,502,o),
(429,466,cs),
(433,431,l),
(474,431,l),
(470,571,l),
(20,571,l),
(16,431,l),
(58,431,l),
(62,466,ls),
(66,501,o),
(78,531,o),
(127,531,cs),
(204,531,l),
(204,87,ls),
(204,40,o),
(174,34,o),
(138,34,cs),
(120,34,l),
(120,0,l)
);
}
);
userData = {
assembly = "NPUSHB[ ]	/* 56 values pushed */
23 250 191 24 255 24 2 24 15 28 250 176 27 1 127 27 1 27 27 0 90 16 15 1 15 15 36 37 159 37 1 80 37 1 47 37 63 37 2 0 37 1 28 24 24 9 35 17 94 25 3 5 9 93 8 18 
SVTCA[0]	/* SetFreedomAndProjectionVectorToAxis */
MIAP[1]	/* MoveIndirectAbsPt */
MIRP[00001]	/* MoveIndirectRelPt */
SHP[0]	/* ShiftPointByLastPoint */
MIAP[1]	/* MoveIndirectAbsPt */
MIRP[00001]	/* MoveIndirectRelPt */
SHP[0]	/* ShiftPointByLastPoint */
SRP2[ ]	/* SetRefPoint2 */
IP[ ]	/* InterpolatePts */
MDAP[1]	/* MoveDirectAbsPt */
SHP[1]	/* ShiftPointByLastPoint */
SVTCA[1]	/* SetFreedomAndProjectionVectorToAxis */
DELTAP1[ ]	/* DeltaExceptionP1 */
DELTAP1[ ]	/* DeltaExceptionP1 */
DELTAP1[ ]	/* DeltaExceptionP1 */
DELTAP1[ ]	/* DeltaExceptionP1 */
SRP1[ ]	/* SetRefPoint1 */
SRP2[ ]	/* SetRefPoint2 */
IP[ ]	/* InterpolatePts */
MDAP[1]	/* MoveDirectAbsPt */
DELTAP1[ ]	/* DeltaExceptionP1 */
MIRP[00001]	/* MoveIndirectRelPt */
SHP[0]	/* ShiftPointByLastPoint */
MDAP[1]	/* MoveDirectAbsPt */
DELTAP1[ ]	/* DeltaExceptionP1 */
DELTAP1[ ]	/* DeltaExceptionP1 */
MIRP[00001]	/* MoveIndirectRelPt */
SRP0[ ]	/* SetRefPoint0 */
MDRP[10110]	/* MoveDirectRelPt */
DELTAP1[ ]	/* DeltaExceptionP1 */
MIRP[00001]	/* MoveIndirectRelPt */
IUP[1]	/* InterpolateUntPts */
IUP[0]	/* InterpolateUntPts */";
};
width = 490;
},
{
layerId = "0ED38B93-C2B0-4B4A-9C6D-D7838A33C317";
shapes = (
{
closed = 1;
nodes = (
(399,0,l),
(399,42,l),
(366,42,ls),
(342,42,o),
(325,50,o),
(325,94,cs),
(325,522,l),
(389,522,ls),
(437,522,o),
(451,501,o),
(455,466,cs),
(461,416,l),
(514,416,l),
(510,571,l),
(12,571,l),
(8,416,l),
(62,416,l),
(67,466,ls),
(71,501,o),
(86,522,o),
(134,522,cs),
(198,522,l),
(198,94,ls),
(198,50,o),
(181,42,o),
(157,42,cs),
(123,42,l),
(123,0,l)
);
}
);
userData = {
assembly = "NPUSHB[ ]	/* 74 values pushed */
175 37 191 37 239 37 3 128 37 144 37 2 37 64 9 13 72 23 255 24 1 160 24 1 47 24 1 24 24 15 28 80 27 128 27 208 27 240 27 4 27 27 0 103 0 1 0 103 15 1 31 15 1 15 28 48 24 64 24 2 24 24 9 25 35 17 17 25 3 5 9 9 8 18 
SVTCA[0]	/* SetFreedomAndProjectionVectorToAxis */
MIAP[1]	/* MoveIndirectAbsPt */
SHP[1]	/* ShiftPointByLastPoint */
SRP1[ ]	/* SetRefPoint1 */
SHP[1]	/* ShiftPointByLastPoint */
MIAP[1]	/* MoveIndirectAbsPt */
SHP[1]	/* ShiftPointByLastPoint */
SRP1[ ]	/* SetRefPoint1 */
SHP[1]	/* ShiftPointByLastPoint */
SRP1[ ]	/* SetRefPoint1 */
SRP2[ ]	/* SetRefPoint2 */
IP[ ]	/* InterpolatePts */
MDAP[1]	/* MoveDirectAbsPt */
DELTAP1[ ]	/* DeltaExceptionP1 */
SHP[1]	/* ShiftPointByLastPoint */
SVTCA[1]	/* SetFreedomAndProjectionVectorToAxis */
MDAP[1]	/* MoveDirectAbsPt */
DELTAP1[ ]	/* DeltaExceptionP1 */
DELTAP1[ ]	/* DeltaExceptionP1 */
SHP[1]	/* ShiftPointByLastPoint */
DELTAP1[ ]	/* DeltaExceptionP1 */
SRP1[ ]	/* SetRefPoint1 */
SHP[1]	/* ShiftPointByLastPoint */
MDAP[1]	/* MoveDirectAbsPt */
DELTAP1[ ]	/* DeltaExceptionP1 */
SHP[1]	/* ShiftPointByLastPoint */
SRP1[ ]	/* SetRefPoint1 */
SHP[1]	/* ShiftPointByLastPoint */
MDAP[1]	/* MoveDirectAbsPt */
DELTAP1[ ]	/* DeltaExceptionP1 */
DELTAP1[ ]	/* DeltaExceptionP1 */
DELTAP1[ ]	/* DeltaExceptionP1 */
SHP[1]	/* ShiftPointByLastPoint */
CALL[ ]	/* CallFunction */
DELTAP1[ ]	/* DeltaExceptionP1 */
DELTAP1[ ]	/* DeltaExceptionP1 */
IUP[1]	/* InterpolateUntPts */
IUP[0]	/* InterpolateUntPts */";
};
width = 522;
}
);
note = uni0054;
unicode = 84;
},
{
color = 10;
glyphname = U;
lastChange = "2022-01-06 02:32:25 +0000";
layers = (
{
layerId = "4397B867-53E7-4964-BB9B-A578920F109C";
shapes = (
{
closed = 1;
nodes = (
(406,-8,o),
(486,47,o),
(486,163,cs),
(486,480,ls),
(486,530,o),
(516,538,o),
(551,538,cs),
(562,538,l),
(562,571,l),
(361,571,l),
(361,538,l),
(371,538,ls),
(406,538,o),
(437,531,o),
(437,483,cs),
(437,165,ls),
(437,92,o),
(395,40,o),
(302,40,cs),
(224,40,o),
(169,76,o),
(169,168,cs),
(169,480,ls),
(169,530,o),
(199,538,o),
(234,538,cs),
(245,538,l),
(245,571,l),
(12,571,l),
(12,538,l),
(22,538,ls),
(58,538,o),
(88,531,o),
(88,483,cs),
(88,173,ls),
(88,43,o),
(163,-8,o),
(290,-8,cs)
);
}
);
userData = {
assembly = "NPUSHB[ ]	/* 37 values pushed */
32 251 49 101 55 15 55 31 55 127 55 191 55 207 55 239 55 255 55 7 22 90 5 100 54 43 39 16 12 93 40 13 3 27 95 0 19 
SVTCA[0]	/* SetFreedomAndProjectionVectorToAxis */
MIAP[1]	/* MoveIndirectAbsPt */
MIRP[00001]	/* MoveIndirectRelPt */
MIAP[1]	/* MoveIndirectAbsPt */
SHP[1]	/* ShiftPointByLastPoint */
MIRP[00001]	/* MoveIndirectRelPt */
SHP[0]	/* ShiftPointByLastPoint */
SHP[0]	/* ShiftPointByLastPoint */
SHP[0]	/* ShiftPointByLastPoint */
SVTCA[1]	/* SetFreedomAndProjectionVectorToAxis */
SRP0[ ]	/* SetRefPoint0 */
MIRP[10110]	/* MoveIndirectRelPt */
MIRP[00001]	/* MoveIndirectRelPt */
DELTAP1[ ]	/* DeltaExceptionP1 */
SRP0[ ]	/* SetRefPoint0 */
MIRP[10110]	/* MoveIndirectRelPt */
MIRP[01001]	/* MoveIndirectRelPt */
IUP[1]	/* InterpolateUntPts */
IUP[0]	/* InterpolateUntPts */";
};
width = 574;
},
{
layerId = "0ED38B93-C2B0-4B4A-9C6D-D7838A33C317";
shapes = (
{
closed = 1;
nodes = (
(450,-8,o),
(510,58,o),
(510,165,cs),
(510,477,ls),
(510,522,o),
(527,529,o),
(550,529,cs),
(585,529,l),
(585,571,l),
(375,571,l),
(375,529,l),
(409,529,ls),
(433,529,o),
(450,521,o),
(450,480,cs),
(450,166,ls),
(450,86,o),
(406,49,o),
(334,49,cs),
(261,49,o),
(214,79,o),
(214,168,cs),
(214,477,ls),
(214,522,o),
(232,529,o),
(255,529,cs),
(289,529,l),
(289,571,l),
(13,571,l),
(13,529,l),
(47,529,ls),
(70,529,o),
(88,521,o),
(88,480,cs),
(88,174,ls),
(88,43,o),
(170,-8,o),
(310,-8,cs)
);
}
);
userData = {
assembly = "NPUSHB[ ]	/* 46 values pushed */
10 14 26 14 2 10 10 26 10 2 44 7 101 55 63 55 111 55 127 55 159 55 191 55 239 55 6 0 55 1 34 17 100 54 1 28 51 3 24 24 52 25 3 39 12 19 
SVTCA[0]	/* SetFreedomAndProjectionVectorToAxis */
MIAP[1]	/* MoveIndirectAbsPt */
SHP[1]	/* ShiftPointByLastPoint */
MIAP[1]	/* MoveIndirectAbsPt */
SHP[1]	/* ShiftPointByLastPoint */
SHP[1]	/* ShiftPointByLastPoint */
SRP1[ ]	/* SetRefPoint1 */
SLOOP[ ]	/* SetLoopVariable */
SHP[1]	/* ShiftPointByLastPoint */
SVTCA[1]	/* SetFreedomAndProjectionVectorToAxis */
SRP0[ ]	/* SetRefPoint0 */
MIRP[00110]	/* MoveIndirectRelPt */
SHP[0]	/* ShiftPointByLastPoint */
DELTAP1[ ]	/* DeltaExceptionP1 */
DELTAP1[ ]	/* DeltaExceptionP1 */
SRP0[ ]	/* SetRefPoint0 */
MIRP[00110]	/* MoveIndirectRelPt */
SHP[0]	/* ShiftPointByLastPoint */
IUP[1]	/* InterpolateUntPts */
IUP[0]	/* InterpolateUntPts */
SVTCA[0]	/* SetFreedomAndProjectionVectorToAxis */
DELTAP1[ ]	/* DeltaExceptionP1 */
DELTAP1[ ]	/* DeltaExceptionP1 */";
};
width = 598;
}
);
note = uni0055;
unicode = 85;
},
{
color = 10;
glyphname = V;
lastChange = "2022-01-06 02:32:25 +0000";
layers = (
{
layerId = "4397B867-53E7-4964-BB9B-A578920F109C";
shapes = (
{
closed = 1;
nodes = (
(298,0,l),
(464,475,ls),
(482,528,o),
(494,538,o),
(525,538,cs),
(540,538,l),
(540,571,l),
(345,571,l),
(345,538,l),
(363,538,ls),
(398,538,o),
(416,526,o),
(416,498,cs),
(416,490,o),
(413,477,o),
(409,464,cs),
(321,210,ls),
(303,160,o),
(292,117,o),
(284,78,c),
(275,117,o),
(264,162,o),
(248,210,cs),
(160,470,ls),
(156,482,o),
(154,490,o),
(154,499,cs),
(154,526,o),
(170,538,o),
(202,538,cs),
(220,538,l),
(220,571,l),
(0,571,l),
(0,538,l),
(10,538,ls),
(42,538,o),
(56,529,o),
(67,495,cs),
(240,0,l)
);
}
);
userData = {
assembly = "NPUSHB[ ]	/* 47 values pushed */
175 44 1 44 64 10 13 72 6 19 22 19 2 7 18 23 18 2 25 41 41 42 0 21 21 7 35 44 15 44 1 17 1 1 7 21 0 36 32 11 7 93 33 8 3 0 18 
SVTCA[0]	/* SetFreedomAndProjectionVectorToAxis */
MIAP[1]	/* MoveIndirectAbsPt */
MIAP[1]	/* MoveIndirectAbsPt */
SHP[1]	/* ShiftPointByLastPoint */
MIRP[00001]	/* MoveIndirectRelPt */
SHP[0]	/* ShiftPointByLastPoint */
SHP[0]	/* ShiftPointByLastPoint */
SHP[0]	/* ShiftPointByLastPoint */
SRP1[ ]	/* SetRefPoint1 */
IP[ ]	/* InterpolatePts */
SVTCA[1]	/* SetFreedomAndProjectionVectorToAxis */
MDAP[1]	/* MoveDirectAbsPt */
SHP[0]	/* ShiftPointByLastPoint */
SRP1[ ]	/* SetRefPoint1 */
SHP[1]	/* ShiftPointByLastPoint */
DELTAP1[ ]	/* DeltaExceptionP1 */
SRP0[ ]	/* SetRefPoint0 */
MDRP[00100]	/* MoveDirectRelPt */
SRP1[ ]	/* SetRefPoint1 */
IP[ ]	/* InterpolatePts */
SRP1[ ]	/* SetRefPoint1 */
SHP[1]	/* ShiftPointByLastPoint */
SHP[1]	/* ShiftPointByLastPoint */
SHP[0]	/* ShiftPointByLastPoint */
SRP1[ ]	/* SetRefPoint1 */
SHP[1]	/* ShiftPointByLastPoint */
IUP[1]	/* InterpolateUntPts */
IUP[0]	/* InterpolateUntPts */
DELTAP1[ ]	/* DeltaExceptionP1 */
DELTAP1[ ]	/* DeltaExceptionP1 */
CALL[ ]	/* CallFunction */
DELTAP1[ ]	/* DeltaExceptionP1 */";
};
width = 540;
},
{
layerId = "0ED38B93-C2B0-4B4A-9C6D-D7838A33C317";
shapes = (
{
closed = 1;
nodes = (
(318,0,l),
(482,470,ls),
(498,519,o),
(506,529,o),
(520,529,cs),
(558,529,l),
(558,571,l),
(352,571,l),
(352,529,l),
(394,529,ls),
(413,529,o),
(426,519,o),
(426,502,cs),
(426,492,o),
(419,472,o),
(416,462,cs),
(334,219,ls),
(325,190,o),
(310,145,o),
(307,125,c),
(304,154,o),
(294,197,o),
(285,222,cs),
(203,468,ls),
(200,477,o),
(196,492,o),
(196,502,cs),
(196,522,o),
(211,529,o),
(227,529,cs),
(264,529,l),
(264,571,l),
(0,571,l),
(0,529,l),
(18,529,ls),
(34,529,o),
(58,521,o),
(68,490,cs),
(238,0,l)
);
}
);
userData = {
assembly = "NPUSHB[ ]	/* 9 values pushed */
181 7 1 150 7 166 7 2 7 
PUSHW[ ]	/* 1 value pushed */
-16 
NPUSHB[ ]	/* 117 values pushed */
12 15 72 8 32 20 24 72 170 8 1 25 8 1 8 16 13 18 72 8 7 33 33 6 102 24 1 24 15 148 9 164 9 196 9 3 121 9 1 105 9 1 4 9 52 9 2 9 15 52 31 52 63 52 79 52 127 52 191 52 223 52 7 44 0 223 6 255 6 2 189 6 1 6 32 16 19 72 102 6 1 11 6 27 6 59 6 91 6 4 6 6 9 44 24 4 7 1 19 48 3 15 15 49 16 3 20 33 68 33 196 33 3 33 8 7 18 
SVTCA[0]	/* SetFreedomAndProjectionVectorToAxis */
MIAP[1]	/* MoveIndirectAbsPt */
SHP[1]	/* ShiftPointByLastPoint */
SHP[1]	/* ShiftPointByLastPoint */
DELTAP1[ ]	/* DeltaExceptionP1 */
MIAP[1]	/* MoveIndirectAbsPt */
SHP[1]	/* ShiftPointByLastPoint */
SHP[1]	/* ShiftPointByLastPoint */
SRP1[ ]	/* SetRefPoint1 */
SLOOP[ ]	/* SetLoopVariable */
SHP[1]	/* ShiftPointByLastPoint */
SRP2[ ]	/* SetRefPoint2 */
SLOOP[ ]	/* SetLoopVariable */
IP[ ]	/* InterpolatePts */
SVTCA[1]	/* SetFreedomAndProjectionVectorToAxis */
MDAP[1]	/* MoveDirectAbsPt */
DELTAP1[ ]	/* DeltaExceptionP1 */
DELTAP1[ ]	/* DeltaExceptionP1 */
CALL[ ]	/* CallFunction */
DELTAP1[ ]	/* DeltaExceptionP1 */
DELTAP1[ ]	/* DeltaExceptionP1 */
SHP[1]	/* ShiftPointByLastPoint */
SHP[1]	/* ShiftPointByLastPoint */
DELTAP1[ ]	/* DeltaExceptionP1 */
MDAP[1]	/* MoveDirectAbsPt */
DELTAP1[ ]	/* DeltaExceptionP1 */
DELTAP1[ ]	/* DeltaExceptionP1 */
DELTAP1[ ]	/* DeltaExceptionP1 */
DELTAP1[ ]	/* DeltaExceptionP1 */
SHP[1]	/* ShiftPointByLastPoint */
SHP[1]	/* ShiftPointByLastPoint */
DELTAP1[ ]	/* DeltaExceptionP1 */
SRP2[ ]	/* SetRefPoint2 */
IP[ ]	/* InterpolatePts */
SRP1[ ]	/* SetRefPoint1 */
SHP[1]	/* ShiftPointByLastPoint */
SHP[1]	/* ShiftPointByLastPoint */
IUP[1]	/* InterpolateUntPts */
IUP[0]	/* InterpolateUntPts */
CALL[ ]	/* CallFunction */
DELTAP1[ ]	/* DeltaExceptionP1 */
DELTAP1[ ]	/* DeltaExceptionP1 */
CALL[ ]	/* CallFunction */
CALL[ ]	/* CallFunction */
DELTAP1[ ]	/* DeltaExceptionP1 */
DELTAP1[ ]	/* DeltaExceptionP1 */";
};
width = 558;
}
);
note = uni0056;
unicode = 86;
},
{
color = 10;
glyphname = W;
lastChange = "2022-01-06 02:32:25 +0000";
layers = (
{
background = {
shapes = (
{
closed = 1;
nodes = (
(294,0,l),
(417,448,l),
(547,0,l),
(619,0,l),
(754,475,ls),
(770,527,o),
(784,538,o),
(815,538,cs),
(830,538,l),
(830,571,l),
(635,571,l),
(635,538,l),
(654,538,ls),
(689,538,o),
(706,526,o),
(706,498,cs),
(706,487,o),
(702,471,o),
(698,457,cs),
(627,210,ls),
(613,158,o),
(603,117,o),
(595,78,c),
(588,115,o),
(576,166,o),
(561,219,cs),
(461,566,l),
(403,566,l),
(308,222,ls),
(294,170,o),
(283,120,o),
(275,78,c),
(266,117,o),
(254,166,o),
(241,214,cs),
(167,470,l),
(163,486,ls),
(162,490,o),
(161,494,o),
(161,499,cs),
(161,526,o),
(177,538,o),
(209,538,cs),
(227,538,l),
(227,571,l),
(7,571,l),
(7,538,l),
(18,538,ls),
(50,538,o),
(64,529,o),
(74,495,cs),
(221,0,l)
);
}
);
};
layerId = "4397B867-53E7-4964-BB9B-A578920F109C";
shapes = (
{
closed = 1;
nodes = (
(294,0,l),
(417,448,l),
(547,0,l),
(619,0,l),
(754,475,ls),
(770,527,o),
(784,538,o),
(815,538,cs),
(830,538,l),
(830,571,l),
(635,571,l),
(635,538,l),
(654,538,ls),
(689,538,o),
(706,526,o),
(706,498,cs),
(706,487,o),
(702,471,o),
(698,457,cs),
(627,210,ls),
(613,158,o),
(603,117,o),
(595,78,c),
(588,115,o),
(576,166,o),
(561,219,cs),
(461,566,l),
(403,566,l),
(308,222,ls),
(294,170,o),
(283,120,o),
(275,78,c),
(266,117,o),
(254,166,o),
(241,214,cs),
(167,470,ls),
(163,484,o),
(161,494,o),
(161,499,cs),
(161,526,o),
(177,538,o),
(209,538,cs),
(227,538,l),
(227,571,l),
(7,571,l),
(7,538,l),
(18,538,ls),
(50,538,o),
(65,529,o),
(74,495,cs),
(221,0,l)
);
}
);
userData = {
assembly = "NPUSHB[ ]	/* 103 values pushed */
47 58 63 58 79 58 175 58 4 8 55 1 6 49 1 41 31 1 71 27 1 8 7 1 39 1 1 6 1 1 39 0 1 6 0 1 8 26 26 25 31 1 31 30 52 56 22 0 1 0 29 25 28 1 28 27 4 38 52 1 5 52 21 52 2 8 4 24 4 2 4 29 52 3 38 16 19 1 19 58 48 32 32 38 4 52 29 3 31 42 21 17 38 93 39 56 56 18 39 3 28 31 18 
SVTCA[0]	/* SetFreedomAndProjectionVectorToAxis */
MIAP[1]	/* MoveIndirectAbsPt */
SHP[1]	/* ShiftPointByLastPoint */
MIAP[1]	/* MoveIndirectAbsPt */
SHP[1]	/* ShiftPointByLastPoint */
SHP[1]	/* ShiftPointByLastPoint */
MDAP[1]	/* MoveDirectAbsPt */
SRP0[ ]	/* SetRefPoint0 */
MIRP[00001]	/* MoveIndirectRelPt */
SHP[0]	/* ShiftPointByLastPoint */
SHP[0]	/* ShiftPointByLastPoint */
SHP[0]	/* ShiftPointByLastPoint */
SRP1[ ]	/* SetRefPoint1 */
SLOOP[ ]	/* SetLoopVariable */
IP[ ]	/* InterpolatePts */
SVTCA[1]	/* SetFreedomAndProjectionVectorToAxis */
MDAP[1]	/* MoveDirectAbsPt */
SHP[0]	/* ShiftPointByLastPoint */
SRP1[ ]	/* SetRefPoint1 */
SHP[1]	/* ShiftPointByLastPoint */
SRP0[ ]	/* SetRefPoint0 */
MDRP[00110]	/* MoveDirectRelPt */
DELTAP1[ ]	/* DeltaExceptionP1 */
SRP1[ ]	/* SetRefPoint1 */
SLOOP[ ]	/* SetLoopVariable */
IP[ ]	/* InterpolatePts */
DELTAP1[ ]	/* DeltaExceptionP1 */
DELTAP1[ ]	/* DeltaExceptionP1 */
DELTAP1[ ]	/* DeltaExceptionP1 */
SRP1[ ]	/* SetRefPoint1 */
SHP[1]	/* ShiftPointByLastPoint */
SHP[1]	/* ShiftPointByLastPoint */
DELTAP1[ ]	/* DeltaExceptionP1 */
SRP1[ ]	/* SetRefPoint1 */
SHP[1]	/* ShiftPointByLastPoint */
DELTAP1[ ]	/* DeltaExceptionP1 */
SHP[1]	/* ShiftPointByLastPoint */
SRP1[ ]	/* SetRefPoint1 */
SHP[1]	/* ShiftPointByLastPoint */
SHP[1]	/* ShiftPointByLastPoint */
DELTAP1[ ]	/* DeltaExceptionP1 */
SHP[0]	/* ShiftPointByLastPoint */
SRP1[ ]	/* SetRefPoint1 */
SHP[1]	/* ShiftPointByLastPoint */
IUP[1]	/* InterpolateUntPts */
IUP[0]	/* InterpolateUntPts */
DELTAP1[ ]	/* DeltaExceptionP1 */
DELTAP1[ ]	/* DeltaExceptionP1 */
DELTAP1[ ]	/* DeltaExceptionP1 */
DELTAP1[ ]	/* DeltaExceptionP1 */
DELTAP1[ ]	/* DeltaExceptionP1 */
DELTAP1[ ]	/* DeltaExceptionP1 */
DELTAP1[ ]	/* DeltaExceptionP1 */
DELTAP1[ ]	/* DeltaExceptionP1 */
DELTAP1[ ]	/* DeltaExceptionP1 */
DELTAP1[ ]	/* DeltaExceptionP1 */";
};
width = 838;
},
{
layerId = "0ED38B93-C2B0-4B4A-9C6D-D7838A33C317";
shapes = (
{
closed = 1;
nodes = (
(313,0,l),
(428,375,l),
(562,0,l),
(654,0,l),
(778,466,ls),
(792,518,o),
(806,529,o),
(838,529,cs),
(854,529,l),
(854,571,l),
(645,571,l),
(645,529,l),
(663,529,ls),
(698,529,o),
(714,518,o),
(714,491,cs),
(714,482,o),
(710,462,o),
(707,448,cs),
(665,275,ls),
(650,213,o),
(641,163,o),
(633,127,c),
(627,156,o),
(611,213,o),
(594,260,cs),
(483,566,l),
(425,566,l),
(319,223,ls),
(310,192,o),
(301,163,o),
(294,129,c),
(290,165,o),
(274,222,o),
(262,262,cs),
(209,447,ls),
(205,462,o),
(201,482,o),
(201,490,cs),
(201,517,o),
(217,529,o),
(249,529,cs),
(267,529,l),
(267,571,l),
(0,571,l),
(0,529,l),
(10,529,ls),
(41,529,o),
(58,520,o),
(67,486,cs),
(214,0,l)
);
}
);
userData = {
assembly = "NPUSHB[ ]	/* 158 values pushed */
9 62 1 57 35 73 35 89 35 3 24 35 1 53 34 69 34 85 34 117 34 133 34 149 34 6 39 34 1 5 34 1 35 34 58 103 62 1 62 0 33 122 32 1 104 32 1 58 32 74 32 2 39 31 55 31 87 31 103 31 119 31 151 31 167 31 7 5 31 1 32 31 6 52 58 1 38 58 1 6 33 58 3 30 70 49 86 49 102 49 3 49 42 144 36 176 36 192 36 208 36 4 4 36 1 36 24 17 175 30 239 30 255 30 3 20 30 1 11 30 1 30 15 64 95 64 175 64 3 30 36 49 17 4 31 33 64 13 17 72 47 33 1 21 25 33 46 4 42 22 62 42 3 43 3 6 58 58 
PUSHW[ ]	/* 1 value pushed */
-32 
NPUSHB[ ]	/* 15 values pushed */
13 17 72 38 58 54 58 2 20 58 1 58 35 31 18 
SVTCA[0]	/* SetFreedomAndProjectionVectorToAxis */
MIAP[1]	/* MoveIndirectAbsPt */
SHP[1]	/* ShiftPointByLastPoint */
SHP[1]	/* ShiftPointByLastPoint */
DELTAP1[ ]	/* DeltaExceptionP1 */
DELTAP1[ ]	/* DeltaExceptionP1 */
CALL[ ]	/* CallFunction */
SRP1[ ]	/* SetRefPoint1 */
SHP[1]	/* ShiftPointByLastPoint */
MIAP[1]	/* MoveIndirectAbsPt */
SLOOP[ ]	/* SetLoopVariable */
SHP[1]	/* ShiftPointByLastPoint */
SRP1[ ]	/* SetRefPoint1 */
SLOOP[ ]	/* SetLoopVariable */
SHP[1]	/* ShiftPointByLastPoint */
DELTAP1[ ]	/* DeltaExceptionP1 */
CALL[ ]	/* CallFunction */
SRP2[ ]	/* SetRefPoint2 */
SLOOP[ ]	/* SetLoopVariable */
IP[ ]	/* InterpolatePts */
SVTCA[1]	/* SetFreedomAndProjectionVectorToAxis */
DELTAP1[ ]	/* DeltaExceptionP1 */
MDAP[1]	/* MoveDirectAbsPt */
DELTAP1[ ]	/* DeltaExceptionP1 */
DELTAP1[ ]	/* DeltaExceptionP1 */
DELTAP1[ ]	/* DeltaExceptionP1 */
SHP[1]	/* ShiftPointByLastPoint */
SHP[1]	/* ShiftPointByLastPoint */
MDAP[1]	/* MoveDirectAbsPt */
DELTAP1[ ]	/* DeltaExceptionP1 */
DELTAP1[ ]	/* DeltaExceptionP1 */
SHP[1]	/* ShiftPointByLastPoint */
SHP[1]	/* ShiftPointByLastPoint */
DELTAP1[ ]	/* DeltaExceptionP1 */
SRP2[ ]	/* SetRefPoint2 */
SLOOP[ ]	/* SetLoopVariable */
IP[ ]	/* InterpolatePts */
DELTAP1[ ]	/* DeltaExceptionP1 */
DELTAP1[ ]	/* DeltaExceptionP1 */
SRP1[ ]	/* SetRefPoint1 */
SHP[1]	/* ShiftPointByLastPoint */
SHP[1]	/* ShiftPointByLastPoint */
DELTAP1[ ]	/* DeltaExceptionP1 */
DELTAP1[ ]	/* DeltaExceptionP1 */
DELTAP1[ ]	/* DeltaExceptionP1 */
DELTAP1[ ]	/* DeltaExceptionP1 */
DELTAP1[ ]	/* DeltaExceptionP1 */
SRP1[ ]	/* SetRefPoint1 */
SHP[1]	/* ShiftPointByLastPoint */
SHP[1]	/* ShiftPointByLastPoint */
DELTAP1[ ]	/* DeltaExceptionP1 */
SRP1[ ]	/* SetRefPoint1 */
SHP[1]	/* ShiftPointByLastPoint */
SHP[1]	/* ShiftPointByLastPoint */
DELTAP1[ ]	/* DeltaExceptionP1 */
DELTAP1[ ]	/* DeltaExceptionP1 */
DELTAP1[ ]	/* DeltaExceptionP1 */
DELTAP1[ ]	/* DeltaExceptionP1 */
DELTAP1[ ]	/* DeltaExceptionP1 */
IUP[1]	/* InterpolateUntPts */
IUP[0]	/* InterpolateUntPts */
DELTAP1[ ]	/* DeltaExceptionP1 */";
};
width = 854;
}
);
note = uni0057;
unicode = 87;
},
{
color = 10;
glyphname = X;
lastChange = "2022-01-06 02:32:25 +0000";
layers = (
{
layerId = "4397B867-53E7-4964-BB9B-A578920F109C";
shapes = (
{
closed = 1;
nodes = (
(197,0,l),
(197,34,l),
(194,34,ls),
(159,34,o),
(142,40,o),
(142,58,cs),
(142,76,o),
(154,98,o),
(163,111,cs),
(252,242,l),
(331,115,ls),
(353,80,o),
(358,73,o),
(358,60,cs),
(358,42,o),
(342,34,o),
(310,34,cs),
(306,34,l),
(306,0,l),
(522,0,l),
(522,34,l),
(511,34,ls),
(491,34,o),
(470,45,o),
(447,76,c),
(300,313,l),
(416,480,ls),
(446,523,o),
(464,538,o),
(495,538,cs),
(502,538,l),
(502,571,l),
(327,571,l),
(327,538,l),
(330,538,ls),
(353,538,o),
(373,534,o),
(373,514,cs),
(373,500,o),
(365,484,o),
(353,466,cs),
(277,350,l),
(205,467,ls),
(189,493,o),
(186,502,o),
(186,514,cs),
(186,529,o),
(197,538,o),
(231,538,cs),
(234,538,l),
(234,571,l),
(17,571,l),
(17,538,l),
(27,538,ls),
(51,538,o),
(77,526,o),
(96,495,cs),
(228,281,l),
(94,90,ls),
(66,48,o),
(50,34,o),
(11,34,cs),
(6,34,l),
(6,0,l)
);
}
);
userData = {
assembly = "NPUSHB[ ]	/* 88 values pushed */
31 78 47 78 63 78 175 78 4 73 73 74 16 16 15 17 72 17 53 53 52 33 33 34 32 54 32 16 16 17 33 33 32 34 15 34 73 73 72 53 53 54 52 74 52 32 17 17 21 74 15 15 9 64 21 1 21 78 72 54 54 58 34 52 52 45 33 53 16 73 4 46 61 9 6 58 93 7 59 3 43 24 21 46 93 23 45 18 
SVTCA[0]	/* SetFreedomAndProjectionVectorToAxis */
MIAP[1]	/* MoveIndirectAbsPt */
SHP[1]	/* ShiftPointByLastPoint */
MIRP[00001]	/* MoveIndirectRelPt */
SHP[0]	/* ShiftPointByLastPoint */
SHP[0]	/* ShiftPointByLastPoint */
SHP[0]	/* ShiftPointByLastPoint */
MIAP[1]	/* MoveIndirectAbsPt */
SHP[1]	/* ShiftPointByLastPoint */
MIRP[00001]	/* MoveIndirectRelPt */
SHP[0]	/* ShiftPointByLastPoint */
SHP[0]	/* ShiftPointByLastPoint */
SHP[0]	/* ShiftPointByLastPoint */
SRP1[ ]	/* SetRefPoint1 */
SLOOP[ ]	/* SetLoopVariable */
IP[ ]	/* InterpolatePts */
SVTCA[1]	/* SetFreedomAndProjectionVectorToAxis */
MDAP[1]	/* MoveDirectAbsPt */
SHP[1]	/* ShiftPointByLastPoint */
SRP1[ ]	/* SetRefPoint1 */
SHP[1]	/* ShiftPointByLastPoint */
MDRP[00100]	/* MoveDirectRelPt */
SHP[0]	/* ShiftPointByLastPoint */
SRP1[ ]	/* SetRefPoint1 */
SHP[1]	/* ShiftPointByLastPoint */
SRP0[ ]	/* SetRefPoint0 */
MDRP[10110]	/* MoveDirectRelPt */
DELTAP1[ ]	/* DeltaExceptionP1 */
MDRP[00110]	/* MoveDirectRelPt */
SHP[0]	/* ShiftPointByLastPoint */
SRP1[ ]	/* SetRefPoint1 */
SHP[1]	/* ShiftPointByLastPoint */
SRP1[ ]	/* SetRefPoint1 */
SHP[1]	/* ShiftPointByLastPoint */
SRP1[ ]	/* SetRefPoint1 */
SHP[1]	/* ShiftPointByLastPoint */
IUP[1]	/* InterpolateUntPts */
IUP[0]	/* InterpolateUntPts */
SRP0[ ]	/* SetRefPoint0 */
RDTG[ ]	/* RoundDownToGrid */
SDPVTL[1]	/* SetDualPVectorToLine */
SFVTL[0]	/* SetFVectorToLine */
MDRP[00100]	/* MoveDirectRelPt */
SFVTL[0]	/* SetFVectorToLine */
MDRP[00100]	/* MoveDirectRelPt */
SRP0[ ]	/* SetRefPoint0 */
SDPVTL[1]	/* SetDualPVectorToLine */
SFVTL[0]	/* SetFVectorToLine */
MDRP[00100]	/* MoveDirectRelPt */
SFVTL[0]	/* SetFVectorToLine */
MDRP[00100]	/* MoveDirectRelPt */
SRP0[ ]	/* SetRefPoint0 */
SDPVTL[1]	/* SetDualPVectorToLine */
SFVTL[0]	/* SetFVectorToLine */
MDRP[00100]	/* MoveDirectRelPt */
SFVTL[0]	/* SetFVectorToLine */
MDRP[00100]	/* MoveDirectRelPt */
SRP0[ ]	/* SetRefPoint0 */
SDPVTL[1]	/* SetDualPVectorToLine */
SFVTL[0]	/* SetFVectorToLine */
MDRP[00100]	/* MoveDirectRelPt */
SFVTL[0]	/* SetFVectorToLine */
MDRP[00100]	/* MoveDirectRelPt */
SVTCA[1]	/* SetFreedomAndProjectionVectorToAxis */
DELTAP1[ ]	/* DeltaExceptionP1 */";
};
width = 528;
},
{
layerId = "0ED38B93-C2B0-4B4A-9C6D-D7838A33C317";
shapes = (
{
closed = 1;
nodes = (
(210,0,l),
(210,42,l),
(207,42,ls),
(172,42,o),
(158,52,o),
(158,70,cs),
(158,86,o),
(170,105,o),
(179,118,cs),
(266,235,l),
(339,124,ls),
(359,94,o),
(366,82,o),
(366,69,cs),
(366,51,o),
(350,42,o),
(318,42,cs),
(314,42,l),
(314,0,l),
(578,0,l),
(578,42,l),
(567,42,ls),
(547,42,o),
(524,52,o),
(503,85,cs),
(356,313,l),
(472,471,ls),
(502,514,o),
(520,529,o),
(551,529,cs),
(558,529,l),
(558,571,l),
(371,571,l),
(371,529,l),
(374,529,ls),
(399,529,o),
(418,525,o),
(418,506,cs),
(418,491,o),
(406,471,o),
(397,457,c),
(327,359,l),
(261,458,ls),
(249,477,o),
(240,494,o),
(240,506,cs),
(240,518,o),
(250,529,o),
(287,529,cs),
(290,529,l),
(290,571,l),
(25,571,l),
(25,529,l),
(35,529,ls),
(71,529,o),
(86,514,o),
(104,486,cs),
(236,281,l),
(96,98,ls),
(70,64,o),
(50,42,o),
(13,42,cs),
(8,42,l),
(8,0,l)
);
}
);
userData = {
assembly = "NPUSHB[ ]	/* 181 values pushed */
25 33 1 25 51 1 22 16 86 16 2 22 71 86 71 2 71 50 0 16 37 15 17 67 17 32 33 37 15 51 50 0 52 27 32 27 119 67 167 67 183 67 3 70 67 86 67 102 67 3 67 58 4 52 68 52 228 52 3 52 16 33 34 37 15 37 34 15 37 72 71 51 50 0 72 0 44 37 52 3 228 50 1 80 50 192 50 208 50 3 4 50 68 50 2 50 120 27 168 27 184 27 3 73 27 89 27 105 27 3 27 17 0 9 228 15 1 123 15 155 15 2 111 15 1 91 15 1 15 15 21 235 17 1 80 17 176 17 2 68 17 1 48 17 1 4 17 1 17 27 37 17 50 33 51 16 71 15 52 67 0 12 20 6 9 61 3 58 58 7 59 3 24 40 44 3 20 20 23 43 18 
SVTCA[0]	/* SetFreedomAndProjectionVectorToAxis */
MIAP[1]	/* MoveIndirectAbsPt */
SHP[1]	/* ShiftPointByLastPoint */
SHP[1]	/* ShiftPointByLastPoint */
SRP1[ ]	/* SetRefPoint1 */
SLOOP[ ]	/* SetLoopVariable */
SHP[1]	/* ShiftPointByLastPoint */
MIAP[1]	/* MoveIndirectAbsPt */
SHP[1]	/* ShiftPointByLastPoint */
SHP[1]	/* ShiftPointByLastPoint */
SRP1[ ]	/* SetRefPoint1 */
SLOOP[ ]	/* SetLoopVariable */
SHP[1]	/* ShiftPointByLastPoint */
SRP2[ ]	/* SetRefPoint2 */
SLOOP[ ]	/* SetLoopVariable */
IP[ ]	/* InterpolatePts */
SVTCA[1]	/* SetFreedomAndProjectionVectorToAxis */
MDAP[1]	/* MoveDirectAbsPt */
DELTAP1[ ]	/* DeltaExceptionP1 */
DELTAP1[ ]	/* DeltaExceptionP1 */
DELTAP1[ ]	/* DeltaExceptionP1 */
DELTAP1[ ]	/* DeltaExceptionP1 */
DELTAP1[ ]	/* DeltaExceptionP1 */
SHP[1]	/* ShiftPointByLastPoint */
SHP[1]	/* ShiftPointByLastPoint */
MDAP[1]	/* MoveDirectAbsPt */
DELTAP1[ ]	/* DeltaExceptionP1 */
DELTAP1[ ]	/* DeltaExceptionP1 */
DELTAP1[ ]	/* DeltaExceptionP1 */
DELTAP1[ ]	/* DeltaExceptionP1 */
SHP[1]	/* ShiftPointByLastPoint */
SHP[1]	/* ShiftPointByLastPoint */
SRP1[ ]	/* SetRefPoint1 */
SHP[1]	/* ShiftPointByLastPoint */
DELTAP1[ ]	/* DeltaExceptionP1 */
DELTAP1[ ]	/* DeltaExceptionP1 */
MDAP[1]	/* MoveDirectAbsPt */
DELTAP1[ ]	/* DeltaExceptionP1 */
DELTAP1[ ]	/* DeltaExceptionP1 */
DELTAP1[ ]	/* DeltaExceptionP1 */
SLOOP[ ]	/* SetLoopVariable */
SHP[1]	/* ShiftPointByLastPoint */
SRP2[ ]	/* SetRefPoint2 */
SVTCA[0]	/* SetFreedomAndProjectionVectorToAxis */
IP[ ]	/* InterpolatePts */
SDPVTL[1]	/* SetDualPVectorToLine */
SFVTCA[1]	/* SetFVectorToAxis */
MDRP[00000]	/* MoveDirectRelPt */
MDRP[00000]	/* MoveDirectRelPt */
MDRP[00000]	/* MoveDirectRelPt */
SRP1[ ]	/* SetRefPoint1 */
SRP2[ ]	/* SetRefPoint2 */
SVTCA[0]	/* SetFreedomAndProjectionVectorToAxis */
IP[ ]	/* InterpolatePts */
SRP0[ ]	/* SetRefPoint0 */
SDPVTL[1]	/* SetDualPVectorToLine */
SFVTCA[1]	/* SetFVectorToAxis */
MDRP[00000]	/* MoveDirectRelPt */
MDRP[00000]	/* MoveDirectRelPt */
MDRP[00000]	/* MoveDirectRelPt */
SVTCA[1]	/* SetFreedomAndProjectionVectorToAxis */
MDAP[1]	/* MoveDirectAbsPt */
DELTAP1[ ]	/* DeltaExceptionP1 */
SHP[1]	/* ShiftPointByLastPoint */
SHP[1]	/* ShiftPointByLastPoint */
DELTAP1[ ]	/* DeltaExceptionP1 */
DELTAP1[ ]	/* DeltaExceptionP1 */
SRP2[ ]	/* SetRefPoint2 */
SVTCA[0]	/* SetFreedomAndProjectionVectorToAxis */
IP[ ]	/* InterpolatePts */
SDPVTL[1]	/* SetDualPVectorToLine */
SFVTL[0]	/* SetFVectorToLine */
MDRP[00000]	/* MoveDirectRelPt */
SFVTL[0]	/* SetFVectorToLine */
MDRP[00000]	/* MoveDirectRelPt */
SFVTCA[1]	/* SetFVectorToAxis */
MDRP[00000]	/* MoveDirectRelPt */
SRP0[ ]	/* SetRefPoint0 */
SDPVTL[1]	/* SetDualPVectorToLine */
SFVTL[0]	/* SetFVectorToLine */
MDRP[00000]	/* MoveDirectRelPt */
SFVTL[0]	/* SetFVectorToLine */
MDRP[00000]	/* MoveDirectRelPt */
IUP[1]	/* InterpolateUntPts */
IUP[0]	/* InterpolateUntPts */
SVTCA[1]	/* SetFreedomAndProjectionVectorToAxis */
DELTAP1[ ]	/* DeltaExceptionP1 */
DELTAP1[ ]	/* DeltaExceptionP1 */
DELTAP1[ ]	/* DeltaExceptionP1 */
DELTAP1[ ]	/* DeltaExceptionP1 */";
};
width = 586;
}
);
note = uni0058;
unicode = 88;
},
{
color = 10;
glyphname = Y;
lastChange = "2022-01-06 02:32:25 +0000";
layers = (
{
layerId = "4397B867-53E7-4964-BB9B-A578920F109C";
shapes = (
{
closed = 1;
nodes = (
(376,0,l),
(376,34,l),
(358,34,ls),
(322,34,o),
(292,41,o),
(292,91,cs),
(292,238,l),
(426,475,ls),
(454,524,o),
(470,538,o),
(493,538,cs),
(502,538,l),
(502,571,l),
(307,571,l),
(307,538,l),
(330,538,ls),
(361,538,o),
(378,526,o),
(378,502,cs),
(378,490,o),
(374,473,o),
(364,454,cs),
(313,362,ls),
(293,327,o),
(274,294,o),
(265,271,c),
(256,296,o),
(243,330,o),
(225,362,cs),
(166,470,ls),
(159,481,o),
(151,497,o),
(151,512,cs),
(151,526,o),
(157,538,o),
(186,538,cs),
(216,538,l),
(216,571,l),
(-4,571,l),
(-4,538,l),
(6,538,ls),
(34,538,o),
(46,526,o),
(63,495,cs),
(211,238,l),
(211,87,ls),
(211,40,o),
(182,34,o),
(146,34,cs),
(127,34,l),
(127,0,l)
);
}
);
userData = {
assembly = "NPUSHB[ ]	/* 109 values pushed */
38 29 54 29 2 7 28 39 28 55 28 3 8 9 40 9 2 31 55 90 37 53 53 244 47 1 111 47 1 68 47 1 57 47 1 20 47 1 8 47 1 47 23 27 1 27 9 9 143 15 1 77 15 1 55 15 1 27 15 1 7 15 1 15 16 7 128 7 160 7 176 7 4 7 7 64 63 47 64 111 64 159 64 175 64 207 64 5 0 64 1 8 54 31 3 1 48 44 19 15 93 45 16 3 60 1 93 0 18 
SVTCA[0]	/* SetFreedomAndProjectionVectorToAxis */
MIAP[1]	/* MoveIndirectAbsPt */
MIRP[00001]	/* MoveIndirectRelPt */
SHP[0]	/* ShiftPointByLastPoint */
MIAP[1]	/* MoveIndirectAbsPt */
SHP[1]	/* ShiftPointByLastPoint */
MIRP[00001]	/* MoveIndirectRelPt */
SHP[0]	/* ShiftPointByLastPoint */
SHP[0]	/* ShiftPointByLastPoint */
SHP[0]	/* ShiftPointByLastPoint */
SRP1[ ]	/* SetRefPoint1 */
SLOOP[ ]	/* SetLoopVariable */
IP[ ]	/* InterpolatePts */
SVTCA[1]	/* SetFreedomAndProjectionVectorToAxis */
DELTAP1[ ]	/* DeltaExceptionP1 */
DELTAP1[ ]	/* DeltaExceptionP1 */
SRP1[ ]	/* SetRefPoint1 */
SRP2[ ]	/* SetRefPoint2 */
IP[ ]	/* InterpolatePts */
MDAP[1]	/* MoveDirectAbsPt */
DELTAP1[ ]	/* DeltaExceptionP1 */
MDRP[00110]	/* MoveDirectRelPt */
DELTAP1[ ]	/* DeltaExceptionP1 */
DELTAP1[ ]	/* DeltaExceptionP1 */
DELTAP1[ ]	/* DeltaExceptionP1 */
DELTAP1[ ]	/* DeltaExceptionP1 */
DELTAP1[ ]	/* DeltaExceptionP1 */
SHP[0]	/* ShiftPointByLastPoint */
SRP1[ ]	/* SetRefPoint1 */
SHP[1]	/* ShiftPointByLastPoint */
DELTAP1[ ]	/* DeltaExceptionP1 */
MDRP[00100]	/* MoveDirectRelPt */
DELTAP1[ ]	/* DeltaExceptionP1 */
DELTAP1[ ]	/* DeltaExceptionP1 */
DELTAP1[ ]	/* DeltaExceptionP1 */
DELTAP1[ ]	/* DeltaExceptionP1 */
DELTAP1[ ]	/* DeltaExceptionP1 */
DELTAP1[ ]	/* DeltaExceptionP1 */
SHP[0]	/* ShiftPointByLastPoint */
SRP1[ ]	/* SetRefPoint1 */
SHP[1]	/* ShiftPointByLastPoint */
MIRP[00001]	/* MoveIndirectRelPt */
IP[ ]	/* InterpolatePts */
IUP[1]	/* InterpolateUntPts */
IUP[0]	/* InterpolateUntPts */
DELTAP1[ ]	/* DeltaExceptionP1 */
DELTAP1[ ]	/* DeltaExceptionP1 */
DELTAP1[ ]	/* DeltaExceptionP1 */";
};
width = 500;
},
{
layerId = "0ED38B93-C2B0-4B4A-9C6D-D7838A33C317";
shapes = (
{
closed = 1;
nodes = (
(426,0,l),
(426,42,l),
(387,42,ls),
(362,42,o),
(342,46,o),
(342,92,cs),
(342,202,l),
(478,466,ls),
(503,516,o),
(512,529,o),
(539,529,cs),
(554,529,l),
(554,571,l),
(345,571,l),
(345,529,l),
(363,529,ls),
(398,529,o),
(416,517,o),
(416,490,cs),
(416,481,o),
(414,465,o),
(402,442,cs),
(356,346,ls),
(338,310,o),
(324,276,o),
(313,248,c),
(304,273,o),
(294,298,o),
(278,331,cs),
(218,449,ls),
(212,462,o),
(206,479,o),
(206,493,cs),
(206,515,o),
(222,529,o),
(254,529,cs),
(268,529,l),
(268,571,l),
(0,571,l),
(0,529,l),
(10,529,ls),
(42,529,o),
(52,517,o),
(67,486,cs),
(215,202,l),
(215,91,ls),
(215,46,o),
(194,42,o),
(169,42,cs),
(131,42,l),
(131,0,l)
);
}
);
userData = {
assembly = "NPUSHB[ ]	/* 104 values pushed */
43 36 123 49 171 49 2 84 49 1 11 49 27 49 2 49 49 29 50 86 22 1 70 15 1 22 15 240 9 1 196 9 1 171 9 1 116 9 1 91 9 1 68 9 1 9 50 9 127 8 255 8 2 8 127 60 143 60 159 60 3 79 60 95 60 2 63 60 1 15 60 1 22 9 8 19 40 44 3 15 15 50 29 36 49 16 15 8 31 8 207 8 3 8 8 1 41 16 3 56 1 1 0 18 
SVTCA[0]	/* SetFreedomAndProjectionVectorToAxis */
MIAP[1]	/* MoveIndirectAbsPt */
SHP[0]	/* ShiftPointByLastPoint */
SRP1[ ]	/* SetRefPoint1 */
SHP[1]	/* ShiftPointByLastPoint */
MIAP[1]	/* MoveIndirectAbsPt */
SHP[1]	/* ShiftPointByLastPoint */
SRP2[ ]	/* SetRefPoint2 */
IP[ ]	/* InterpolatePts */
MDAP[1]	/* MoveDirectAbsPt */
DELTAP1[ ]	/* DeltaExceptionP1 */
SRP2[ ]	/* SetRefPoint2 */
IP[ ]	/* InterpolatePts */
IP[ ]	/* InterpolatePts */
SHP[1]	/* ShiftPointByLastPoint */
SHP[1]	/* ShiftPointByLastPoint */
SHP[0]	/* ShiftPointByLastPoint */
SRP1[ ]	/* SetRefPoint1 */
SLOOP[ ]	/* SetLoopVariable */
SHP[1]	/* ShiftPointByLastPoint */
SRP2[ ]	/* SetRefPoint2 */
IP[ ]	/* InterpolatePts */
IP[ ]	/* InterpolatePts */
SVTCA[1]	/* SetFreedomAndProjectionVectorToAxis */
DELTAP1[ ]	/* DeltaExceptionP1 */
DELTAP1[ ]	/* DeltaExceptionP1 */
DELTAP1[ ]	/* DeltaExceptionP1 */
DELTAP1[ ]	/* DeltaExceptionP1 */
MDAP[1]	/* MoveDirectAbsPt */
DELTAP1[ ]	/* DeltaExceptionP1 */
SHP[0]	/* ShiftPointByLastPoint */
SHP[0]	/* ShiftPointByLastPoint */
MDAP[1]	/* MoveDirectAbsPt */
DELTAP1[ ]	/* DeltaExceptionP1 */
DELTAP1[ ]	/* DeltaExceptionP1 */
DELTAP1[ ]	/* DeltaExceptionP1 */
DELTAP1[ ]	/* DeltaExceptionP1 */
DELTAP1[ ]	/* DeltaExceptionP1 */
DELTAP1[ ]	/* DeltaExceptionP1 */
SHP[1]	/* ShiftPointByLastPoint */
SHP[1]	/* ShiftPointByLastPoint */
DELTAP1[ ]	/* DeltaExceptionP1 */
DELTAP1[ ]	/* DeltaExceptionP1 */
SRP1[ ]	/* SetRefPoint1 */
IP[ ]	/* InterpolatePts */
SHP[1]	/* ShiftPointByLastPoint */
MDAP[1]	/* MoveDirectAbsPt */
DELTAP1[ ]	/* DeltaExceptionP1 */
DELTAP1[ ]	/* DeltaExceptionP1 */
DELTAP1[ ]	/* DeltaExceptionP1 */
SHP[1]	/* ShiftPointByLastPoint */
SHP[1]	/* ShiftPointByLastPoint */
IUP[1]	/* InterpolateUntPts */
IUP[0]	/* InterpolateUntPts */";
};
width = 554;
}
);
note = uni0059;
unicode = 89;
},
{
color = 10;
glyphname = Z;
lastChange = "2022-01-06 02:32:25 +0000";
layers = (
{
layerId = "4397B867-53E7-4964-BB9B-A578920F109C";
shapes = (
{
closed = 1;
nodes = (
(436,0,l),
(440,140,l),
(398,140,l),
(394,106,ls),
(390,69,o),
(375,40,o),
(328,40,cs),
(126,40,l),
(427,538,l),
(427,571,l),
(48,571,l),
(44,431,l),
(86,431,l),
(90,466,ls),
(94,502,o),
(109,531,o),
(155,531,cs),
(329,531,l),
(29,32,l),
(29,0,l)
);
}
);
userData = {
assembly = "NPUSHB[ ]	/* 81 values pushed */
200 13 216 13 2 185 13 1 40 13 56 13 72 13 152 13 168 13 5 9 13 25 13 2 199 1 215 1 2 182 1 1 39 1 55 1 71 1 151 1 167 1 5 6 1 22 1 2 13 0 8 250 9 25 15 25 95 25 127 25 3 20 250 21 1 15 12 1 12 0 14 94 21 22 3 12 1 94 8 11 18 
SVTCA[0]	/* SetFreedomAndProjectionVectorToAxis */
MIAP[1]	/* MoveIndirectAbsPt */
MDRP[01100]	/* MoveDirectRelPt */
MIRP[00001]	/* MoveIndirectRelPt */
SHP[0]	/* ShiftPointByLastPoint */
MIAP[1]	/* MoveIndirectAbsPt */
MDRP[01101]	/* MoveDirectRelPt */
MIRP[00001]	/* MoveIndirectRelPt */
SHP[0]	/* ShiftPointByLastPoint */
SVTCA[1]	/* SetFreedomAndProjectionVectorToAxis */
MDAP[1]	/* MoveDirectAbsPt */
DELTAP1[ ]	/* DeltaExceptionP1 */
SHP[1]	/* ShiftPointByLastPoint */
MDRP[10110]	/* MoveDirectRelPt */
MIRP[00001]	/* MoveIndirectRelPt */
DELTAP1[ ]	/* DeltaExceptionP1 */
SRP0[ ]	/* SetRefPoint0 */
MDRP[11110]	/* MoveDirectRelPt */
MIRP[00001]	/* MoveIndirectRelPt */
MDRP[00110]	/* MoveDirectRelPt */
SHP[0]	/* ShiftPointByLastPoint */
IUP[1]	/* InterpolateUntPts */
IUP[0]	/* InterpolateUntPts */
DELTAP1[ ]	/* DeltaExceptionP1 */
DELTAP1[ ]	/* DeltaExceptionP1 */
DELTAP1[ ]	/* DeltaExceptionP1 */
DELTAP1[ ]	/* DeltaExceptionP1 */
DELTAP1[ ]	/* DeltaExceptionP1 */
DELTAP1[ ]	/* DeltaExceptionP1 */
DELTAP1[ ]	/* DeltaExceptionP1 */
DELTAP1[ ]	/* DeltaExceptionP1 */";
};
width = 474;
},
{
layerId = "0ED38B93-C2B0-4B4A-9C6D-D7838A33C317";
shapes = (
{
closed = 1;
nodes = (
(494,0,l),
(498,165,l),
(440,165,l),
(436,129,ls),
(432,87,o),
(416,49,o),
(352,49,cs),
(179,49,l),
(480,530,l),
(480,571,l),
(53,571,l),
(49,406,l),
(106,406,l),
(110,450,ls),
(114,494,o),
(126,522,o),
(176,522,cs),
(334,522,l),
(34,40,l),
(34,0,l)
);
}
);
userData = {
assembly = "NPUSHB[ ]	/* 94 values pushed */
151 14 1 152 1 1 41 13 57 13 2 13 239 0 255 0 2 0 0 8 0 9 176 9 192 9 208 9 4 9 9 25 191 25 207 25 223 25 3 64 25 1 16 25 32 25 2 20 21 38 1 54 1 2 21 1 48 12 64 12 80 12 3 12 0 14 14 22 112 21 128 21 192 21 3 127 8 143 8 207 8 3 8 21 8 21 1 22 3 12 1 1 11 18 
SVTCA[0]	/* SetFreedomAndProjectionVectorToAxis */
MIAP[1]	/* MoveIndirectAbsPt */
SHP[1]	/* ShiftPointByLastPoint */
SRP1[ ]	/* SetRefPoint1 */
SHP[1]	/* ShiftPointByLastPoint */
MIAP[1]	/* MoveIndirectAbsPt */
SRP2[ ]	/* SetRefPoint2 */
IP[ ]	/* InterpolatePts */
IP[ ]	/* InterpolatePts */
MDAP[1]	/* MoveDirectAbsPt */
MDAP[1]	/* MoveDirectAbsPt */
DELTAP1[ ]	/* DeltaExceptionP1 */
DELTAP1[ ]	/* DeltaExceptionP1 */
SRP1[ ]	/* SetRefPoint1 */
SHP[1]	/* ShiftPointByLastPoint */
SRP1[ ]	/* SetRefPoint1 */
SHP[1]	/* ShiftPointByLastPoint */
SVTCA[1]	/* SetFreedomAndProjectionVectorToAxis */
MDAP[1]	/* MoveDirectAbsPt */
DELTAP1[ ]	/* DeltaExceptionP1 */
SHP[1]	/* ShiftPointByLastPoint */
SHP[1]	/* ShiftPointByLastPoint */
DELTAP1[ ]	/* DeltaExceptionP1 */
MDAP[1]	/* MoveDirectAbsPt */
SHP[1]	/* ShiftPointByLastPoint */
DELTAP1[ ]	/* DeltaExceptionP1 */
DELTAP1[ ]	/* DeltaExceptionP1 */
DELTAP1[ ]	/* DeltaExceptionP1 */
SRP1[ ]	/* SetRefPoint1 */
SHP[1]	/* ShiftPointByLastPoint */
MDAP[1]	/* MoveDirectAbsPt */
DELTAP1[ ]	/* DeltaExceptionP1 */
SHP[1]	/* ShiftPointByLastPoint */
SHP[1]	/* ShiftPointByLastPoint */
MDAP[1]	/* MoveDirectAbsPt */
DELTAP1[ ]	/* DeltaExceptionP1 */
SHP[1]	/* ShiftPointByLastPoint */
DELTAP1[ ]	/* DeltaExceptionP1 */
SVTCA[0]	/* SetFreedomAndProjectionVectorToAxis */
DELTAP1[ ]	/* DeltaExceptionP1 */
DELTAP1[ ]	/* DeltaExceptionP1 */
IUP[1]	/* InterpolateUntPts */
IUP[0]	/* InterpolateUntPts */";
};
width = 533;
}
);
note = uni005A;
unicode = 90;
},
{
color = 10;
glyphname = a;
lastChange = "2022-01-06 02:32:25 +0000";
layers = (
{
layerId = "4397B867-53E7-4964-BB9B-A578920F109C";
shapes = (
{
closed = 1;
nodes = (
(230,-8,o),
(255,24,o),
(289,69,c),
(295,69,l),
(308,0,l),
(416,0,l),
(416,34,l),
(414,34,ls),
(378,34,o),
(364,46,o),
(364,91,cs),
(364,298,ls),
(364,401,o),
(315,437,o),
(218,437,cs),
(137,437,o),
(74,415,o),
(74,360,cs),
(74,323,o),
(97,310,o),
(142,310,c),
(142,359,o),
(153,397,o),
(214,397,cs),
(280,397,o),
(289,357,o),
(289,298,cs),
(289,250,l),
(222,248,ls),
(100,245,o),
(40,205,o),
(40,120,cs),
(40,32,o),
(93,-8,o),
(164,-8,cs)
);
},
{
closed = 1;
nodes = (
(138,42,o),
(118,66,o),
(118,116,cs),
(118,191,o),
(162,211,o),
(238,215,cs),
(289,218,l),
(289,153,ls),
(289,85,o),
(248,42,o),
(182,42,cs)
);
}
);
userData = {
assembly = "NPUSHB[ ]	/* 38 values pushed */
58 8 71 34 85 65 111 65 127 65 2 20 23 0 72 54 86 64 9 77 43 49 58 20 58 20 28 3 49 22 39 77 42 21 15 78 28 16 
SVTCA[0]	/* SetFreedomAndProjectionVectorToAxis */
MIAP[1]	/* MoveIndirectAbsPt */
MIRP[00001]	/* MoveIndirectRelPt */
MIAP[1]	/* MoveIndirectAbsPt */
MIRP[00001]	/* MoveIndirectRelPt */
MIAP[1]	/* MoveIndirectAbsPt */
MDRP[00001]	/* MoveDirectRelPt */
SRP2[ ]	/* SetRefPoint2 */
IP[ ]	/* InterpolatePts */
IP[ ]	/* InterpolatePts */
MDAP[1]	/* MoveDirectAbsPt */
MDAP[1]	/* MoveDirectAbsPt */
SRP2[ ]	/* SetRefPoint2 */
IP[ ]	/* InterpolatePts */
MIRP[00001]	/* MoveIndirectRelPt */
SVTCA[1]	/* SetFreedomAndProjectionVectorToAxis */
SRP0[ ]	/* SetRefPoint0 */
MIRP[10110]	/* MoveIndirectRelPt */
MIRP[00001]	/* MoveIndirectRelPt */
MDRP[10100]	/* MoveDirectRelPt */
MDRP[00001]	/* MoveDirectRelPt */
DELTAP1[ ]	/* DeltaExceptionP1 */
SRP0[ ]	/* SetRefPoint0 */
MIRP[10110]	/* MoveIndirectRelPt */
MIRP[00001]	/* MoveIndirectRelPt */
SHP[0]	/* ShiftPointByLastPoint */
IUP[1]	/* InterpolateUntPts */
IUP[0]	/* InterpolateUntPts */";
};
width = 450;
},
{
layerId = "0ED38B93-C2B0-4B4A-9C6D-D7838A33C317";
shapes = (
{
closed = 1;
nodes = (
(223,-8,o),
(245,12,o),
(281,55,c),
(288,55,l),
(305,0,l),
(454,0,l),
(454,42,l),
(450,42,ls),
(415,42,o),
(402,54,o),
(402,99,cs),
(402,303,ls),
(402,408,o),
(339,439,o),
(234,439,cs),
(167,439,o),
(70,425,o),
(70,358,cs),
(70,318,o),
(106,304,o),
(178,304,c),
(178,354,o),
(190,390,o),
(231,390,cs),
(274,390,o),
(281,354,o),
(281,299,cs),
(281,255,l),
(215,253,ls),
(95,249,o),
(36,210,o),
(36,122,cs),
(36,34,o),
(90,-8,o),
(162,-8,cs)
);
},
{
closed = 1;
nodes = (
(174,50,o),
(160,74,o),
(160,119,cs),
(160,177,o),
(181,207,o),
(245,210,cs),
(281,213,l),
(281,153,ls),
(281,91,o),
(252,50,o),
(206,50,cs)
);
}
);
userData = {
assembly = "NPUSHB[ ]	/* 74 values pushed */
10 55 26 55 2 12 52 28 52 2 5 31 21 31 2 20 23 23 54 58 43 8 8 8 1 8 34 85 65 175 65 1 6 0 1 0 54 86 64 43 49 9 58 58 3 28 3 49 22 39 42 21 107 20 1 90 20 1 72 20 1 46 20 1 29 20 1 11 20 1 20 15 28 16 
SVTCA[0]	/* SetFreedomAndProjectionVectorToAxis */
MIAP[1]	/* MoveIndirectAbsPt */
SHP[1]	/* ShiftPointByLastPoint */
SHP[1]	/* ShiftPointByLastPoint */
DELTAP1[ ]	/* DeltaExceptionP1 */
DELTAP1[ ]	/* DeltaExceptionP1 */
DELTAP1[ ]	/* DeltaExceptionP1 */
DELTAP1[ ]	/* DeltaExceptionP1 */
DELTAP1[ ]	/* DeltaExceptionP1 */
DELTAP1[ ]	/* DeltaExceptionP1 */
MIAP[1]	/* MoveIndirectAbsPt */
SHP[1]	/* ShiftPointByLastPoint */
MIAP[1]	/* MoveIndirectAbsPt */
SHP[1]	/* ShiftPointByLastPoint */
SRP1[ ]	/* SetRefPoint1 */
SRP2[ ]	/* SetRefPoint2 */
IP[ ]	/* InterpolatePts */
MDAP[1]	/* MoveDirectAbsPt */
SHP[1]	/* ShiftPointByLastPoint */
SRP1[ ]	/* SetRefPoint1 */
SHP[1]	/* ShiftPointByLastPoint */
SVTCA[1]	/* SetFreedomAndProjectionVectorToAxis */
SRP0[ ]	/* SetRefPoint0 */
MIRP[00110]	/* MoveIndirectRelPt */
SHP[0]	/* ShiftPointByLastPoint */
DELTAP1[ ]	/* DeltaExceptionP1 */
DELTAP1[ ]	/* DeltaExceptionP1 */
SRP0[ ]	/* SetRefPoint0 */
MIRP[00100]	/* MoveIndirectRelPt */
SHP[0]	/* ShiftPointByLastPoint */
DELTAP1[ ]	/* DeltaExceptionP1 */
SRP1[ ]	/* SetRefPoint1 */
SHP[1]	/* ShiftPointByLastPoint */
SHP[1]	/* ShiftPointByLastPoint */
SRP2[ ]	/* SetRefPoint2 */
IP[ ]	/* InterpolatePts */
SRP1[ ]	/* SetRefPoint1 */
SHP[1]	/* ShiftPointByLastPoint */
IUP[1]	/* InterpolateUntPts */
IUP[0]	/* InterpolateUntPts */
DELTAP1[ ]	/* DeltaExceptionP1 */
DELTAP1[ ]	/* DeltaExceptionP1 */
DELTAP1[ ]	/* DeltaExceptionP1 */";
};
width = 479;
}
);
note = uni0061;
unicode = 97;
},
{
color = 10;
glyphname = b;
lastChange = "2022-01-06 02:32:25 +0000";
layers = (
{
layerId = "4397B867-53E7-4964-BB9B-A578920F109C";
shapes = (
{
closed = 1;
nodes = (
(389,-8,o),
(447,60,o),
(447,215,cs),
(447,292,o),
(433,347,o),
(405,383,cs),
(378,419,o),
(337,437,o),
(284,437,cs),
(221,437,o),
(186,406,o),
(162,357,c),
(158,357,l),
(160,395,ls),
(161,417,o),
(162,442,o),
(162,461,cs),
(162,608,l),
(14,608,l),
(14,574,l),
(21,574,ls),
(56,574,o),
(86,568,o),
(86,520,cs),
(86,91,ls),
(86,41,o),
(57,34,o),
(21,34,cs),
(14,34,l),
(14,0,l),
(142,0,l),
(157,62,l),
(162,62,l),
(185,20,o),
(223,-8,o),
(284,-8,cs)
);
},
{
closed = 1;
nodes = (
(229,43,o),
(202,58,o),
(185,87,cs),
(168,117,o),
(162,159,o),
(162,215,cs),
(162,331,o),
(187,386,o),
(270,386,cs),
(306,386,o),
(330,371,o),
(346,343,cs),
(362,315,o),
(370,273,o),
(370,216,cs),
(370,160,o),
(362,117,o),
(346,87,cs),
(330,58,o),
(306,43,o),
(271,43,cs)
);
}
);
userData = {
assembly = "NPUSHB[ ]	/* 41 values pushed */
61 72 0 87 67 239 67 1 80 67 1 63 67 1 11 51 71 29 71 20 84 66 35 10 5 46 80 41 16 27 77 28 0 14 77 13 21 56 80 5 22 
SVTCA[0]	/* SetFreedomAndProjectionVectorToAxis */
MIAP[1]	/* MoveIndirectAbsPt */
MIRP[00001]	/* MoveIndirectRelPt */
MIAP[1]	/* MoveIndirectAbsPt */
MIRP[00001]	/* MoveIndirectRelPt */
MIAP[1]	/* MoveIndirectAbsPt */
MIRP[00001]	/* MoveIndirectRelPt */
MIAP[1]	/* MoveIndirectAbsPt */
MIRP[00001]	/* MoveIndirectRelPt */
SRP2[ ]	/* SetRefPoint2 */
IP[ ]	/* InterpolatePts */
IP[ ]	/* InterpolatePts */
SVTCA[1]	/* SetFreedomAndProjectionVectorToAxis */
SRP0[ ]	/* SetRefPoint0 */
MIRP[10100]	/* MoveIndirectRelPt */
MIRP[00001]	/* MoveIndirectRelPt */
MIRP[00001]	/* MoveIndirectRelPt */
IP[ ]	/* InterpolatePts */
DELTAP1[ ]	/* DeltaExceptionP1 */
DELTAP1[ ]	/* DeltaExceptionP1 */
DELTAP1[ ]	/* DeltaExceptionP1 */
SRP0[ ]	/* SetRefPoint0 */
MIRP[10110]	/* MoveIndirectRelPt */
MIRP[00001]	/* MoveIndirectRelPt */
IUP[1]	/* InterpolateUntPts */
IUP[0]	/* InterpolateUntPts */";
};
width = 491;
},
{
layerId = "0ED38B93-C2B0-4B4A-9C6D-D7838A33C317";
shapes = (
{
closed = 1;
nodes = (
(445,-8,o),
(482,90,o),
(482,216,cs),
(482,293,o),
(467,349,o),
(440,385,cs),
(413,421,o),
(373,438,o),
(321,438,cs),
(260,438,o),
(224,414,o),
(201,374,c),
(195,374,l),
(198,410,ls),
(200,430,o),
(202,454,o),
(202,471,cs),
(202,608,l),
(14,608,l),
(14,566,l),
(17,566,ls),
(51,566,o),
(80,558,o),
(80,512,cs),
(80,98,ls),
(80,50,o),
(50,42,o),
(19,42,cs),
(14,42,l),
(14,0,l),
(166,0,l),
(188,62,l),
(195,62,l),
(218,20,o),
(257,-8,o),
(318,-8,cs)
);
},
{
closed = 1;
nodes = (
(252,52,o),
(231,66,o),
(218,94,cs),
(206,122,o),
(202,163,o),
(202,216,cs),
(202,293,o),
(206,379,o),
(283,379,cs),
(310,379,o),
(330,366,o),
(341,339,cs),
(353,312,o),
(358,271,o),
(358,217,cs),
(358,164,o),
(353,123,o),
(341,94,cs),
(330,66,o),
(310,52,o),
(284,52,cs)
);
}
);
userData = {
assembly = "NPUSHB[ ]	/* 45 values pushed */
5 2 21 2 2 5 42 21 42 2 57 0 87 61 240 61 1 127 61 175 61 2 29 11 49 49 20 84 60 36 44 44 39 16 27 28 0 14 13 21 10 54 54 5 22 
SVTCA[0]	/* SetFreedomAndProjectionVectorToAxis */
MIAP[1]	/* MoveIndirectAbsPt */
SHP[1]	/* ShiftPointByLastPoint */
SRP1[ ]	/* SetRefPoint1 */
SHP[1]	/* ShiftPointByLastPoint */
MIAP[1]	/* MoveIndirectAbsPt */
SHP[1]	/* ShiftPointByLastPoint */
MIAP[1]	/* MoveIndirectAbsPt */
SHP[1]	/* ShiftPointByLastPoint */
MIAP[1]	/* MoveIndirectAbsPt */
SHP[1]	/* ShiftPointByLastPoint */
SRP1[ ]	/* SetRefPoint1 */
SHP[1]	/* ShiftPointByLastPoint */
SVTCA[1]	/* SetFreedomAndProjectionVectorToAxis */
SRP0[ ]	/* SetRefPoint0 */
MIRP[00100]	/* MoveIndirectRelPt */
SHP[0]	/* ShiftPointByLastPoint */
SRP1[ ]	/* SetRefPoint1 */
SHP[1]	/* ShiftPointByLastPoint */
SHP[1]	/* ShiftPointByLastPoint */
DELTAP1[ ]	/* DeltaExceptionP1 */
DELTAP1[ ]	/* DeltaExceptionP1 */
SRP0[ ]	/* SetRefPoint0 */
MIRP[00110]	/* MoveIndirectRelPt */
SHP[0]	/* ShiftPointByLastPoint */
IUP[1]	/* InterpolateUntPts */
IUP[0]	/* InterpolateUntPts */
DELTAP1[ ]	/* DeltaExceptionP1 */
DELTAP1[ ]	/* DeltaExceptionP1 */";
};
width = 519;
}
);
note = uni0062;
unicode = 98;
},
{
color = 10;
glyphname = c;
lastChange = "2022-01-06 02:32:25 +0000";
layers = (
{
layerId = "4397B867-53E7-4964-BB9B-A578920F109C";
shapes = (
{
closed = 1;
nodes = (
(316,-8,o),
(362,32,o),
(362,69,cs),
(362,83,o),
(357,94,o),
(349,100,c),
(330,67,o),
(292,44,o),
(242,44,cs),
(157,44,o),
(122,99,o),
(122,213,cs),
(122,284,o),
(131,330,o),
(149,358,cs),
(166,386,o),
(191,397,o),
(222,397,cs),
(276,397,o),
(290,357,o),
(290,305,c),
(338,305,o),
(362,318,o),
(362,355,cs),
(362,410,o),
(288,437,o),
(222,437,cs),
(122,437,o),
(44,385,o),
(44,212,cs),
(44,81,o),
(99,-8,o),
(226,-8,cs)
);
}
);
userData = {
assembly = "NPUSHB[ ]	/* 39 values pushed */
37 18 15 87 43 15 43 47 43 111 43 143 43 207 43 239 43 6 28 72 5 86 42 23 78 31 18 1 18 10 16 47 34 1 34 31 80 0 22 
SVTCA[0]	/* SetFreedomAndProjectionVectorToAxis */
MIAP[1]	/* MoveIndirectAbsPt */
MIRP[00001]	/* MoveIndirectRelPt */
MDRP[01100]	/* MoveDirectRelPt */
DELTAP1[ ]	/* DeltaExceptionP1 */
MIAP[1]	/* MoveIndirectAbsPt */
MDRP[01100]	/* MoveDirectRelPt */
DELTAP1[ ]	/* DeltaExceptionP1 */
MIRP[00001]	/* MoveIndirectRelPt */
SVTCA[1]	/* SetFreedomAndProjectionVectorToAxis */
SRP0[ ]	/* SetRefPoint0 */
MIRP[10110]	/* MoveIndirectRelPt */
MIRP[00001]	/* MoveIndirectRelPt */
DELTAP1[ ]	/* DeltaExceptionP1 */
SRP0[ ]	/* SetRefPoint0 */
MIRP[10110]	/* MoveIndirectRelPt */
SHP[0]	/* ShiftPointByLastPoint */
MDRP[00100]	/* MoveDirectRelPt */
IUP[1]	/* InterpolateUntPts */
IUP[0]	/* InterpolateUntPts */";
};
width = 394;
},
{
layerId = "0ED38B93-C2B0-4B4A-9C6D-D7838A33C317";
shapes = (
{
closed = 1;
nodes = (
(345,-8,o),
(391,39,o),
(391,80,cs),
(391,94,o),
(385,109,o),
(372,117,c),
(354,81,o),
(313,52,o),
(256,52,cs),
(189,52,o),
(161,106,o),
(161,214,cs),
(161,282,o),
(168,326,o),
(182,353,cs),
(194,380,o),
(214,390,o),
(237,390,cs),
(278,390,o),
(289,341,o),
(289,287,c),
(343,287,o),
(392,301,o),
(392,355,cs),
(392,419,o),
(300,439,o),
(234,439,cs),
(94,439,o),
(38,354,o),
(38,213,cs),
(38,47,o),
(119,-8,o),
(236,-8,cs)
);
}
);
userData = {
assembly = "PUSHB[ ]	/* 8 values pushed */
21 43 37 43 53 43 3 13 
PUSHW[ ]	/* 1 value pushed */
-24 
PUSHB[ ]	/* 4 values pushed */
9 12 72 13 
PUSHW[ ]	/* 1 value pushed */
-24 
NPUSHB[ ]	/* 33 values pushed */
9 12 72 20 15 15 41 87 47 127 47 159 47 175 47 3 47 64 10 14 72 30 5 86 46 25 20 10 16 38 33 0 22 
SVTCA[0]	/* SetFreedomAndProjectionVectorToAxis */
MIAP[1]	/* MoveIndirectAbsPt */
SHP[0]	/* ShiftPointByLastPoint */
SHP[0]	/* ShiftPointByLastPoint */
MIAP[1]	/* MoveIndirectAbsPt */
SHP[1]	/* ShiftPointByLastPoint */
SHP[1]	/* ShiftPointByLastPoint */
SVTCA[1]	/* SetFreedomAndProjectionVectorToAxis */
SRP0[ ]	/* SetRefPoint0 */
MIRP[00110]	/* MoveIndirectRelPt */
SHP[0]	/* ShiftPointByLastPoint */
CALL[ ]	/* CallFunction */
DELTAP1[ ]	/* DeltaExceptionP1 */
SRP0[ ]	/* SetRefPoint0 */
MIRP[00110]	/* MoveIndirectRelPt */
SHP[0]	/* ShiftPointByLastPoint */
MDAP[1]	/* MoveDirectAbsPt */
SHP[1]	/* ShiftPointByLastPoint */
IUP[1]	/* InterpolateUntPts */
IUP[0]	/* InterpolateUntPts */
SVTCA[0]	/* SetFreedomAndProjectionVectorToAxis */
CALL[ ]	/* CallFunction */
SVTCA[1]	/* SetFreedomAndProjectionVectorToAxis */
CALL[ ]	/* CallFunction */
DELTAP1[ ]	/* DeltaExceptionP1 */";
};
width = 422;
}
);
note = uni0063;
unicode = 99;
},
{
color = 10;
glyphname = d;
lastChange = "2022-01-06 02:32:25 +0000";
layers = (
{
background = {
shapes = (
{
closed = 1;
nodes = (
(269,-8,o),
(306,23,o),
(330,72,c),
(333,72,l),
(342,0,l),
(477,0,l),
(477,34,l),
(470,34,ls),
(435,34,o),
(405,40,o),
(405,88,cs),
(405,608,l),
(258,608,l),
(258,574,l),
(264,574,ls),
(299,574,o),
(330,568,o),
(330,520,cs),
(330,454,ls),
(330,450,o),
(330,442,o),
(330,433,cs),
(331,423,o),
(331,413,o),
(332,403,cs),
(334,366,l),
(330,366,l),
(308,406,o),
(271,437,o),
(207,437,cs),
(102,437,o),
(44,369,o),
(44,214,cs),
(44,61,o),
(102,-8,o),
(207,-8,cs)
);
},
{
closed = 1;
nodes = (
(150,43,o),
(122,99,o),
(122,213,cs),
(122,269,o),
(129,312,o),
(144,341,cs),
(160,370,o),
(185,386,o),
(220,386,cs),
(305,386,o),
(330,323,o),
(330,214,cs),
(330,156,o),
(323,114,o),
(306,85,cs),
(290,57,o),
(262,43,o),
(221,43,cs)
);
}
);
};
layerId = "4397B867-53E7-4964-BB9B-A578920F109C";
shapes = (
{
closed = 1;
nodes = (
(269,-8,o),
(306,23,o),
(330,72,c),
(333,72,l),
(342,0,l),
(477,0,l),
(477,34,l),
(470,34,ls),
(435,34,o),
(405,40,o),
(405,88,cs),
(405,608,l),
(258,608,l),
(258,574,l),
(264,574,ls),
(299,574,o),
(330,568,o),
(330,520,cs),
(330,454,ls),
(330,442,o),
(330,422,o),
(332,403,cs),
(334,366,l),
(330,366,l),
(308,406,o),
(271,437,o),
(207,437,cs),
(102,437,o),
(44,369,o),
(44,214,cs),
(44,61,o),
(102,-8,o),
(207,-8,cs)
);
},
{
closed = 1;
nodes = (
(150,43,o),
(122,99,o),
(122,213,cs),
(122,269,o),
(129,312,o),
(144,341,cs),
(160,370,o),
(185,386,o),
(220,386,cs),
(305,386,o),
(330,323,o),
(330,214,cs),
(330,156,o),
(323,114,o),
(306,85,cs),
(290,57,o),
(262,43,o),
(221,43,cs)
);
}
);
userData = {
assembly = "NPUSHB[ ]	/* 37 values pushed */
51 9 36 71 0 85 65 239 65 1 80 65 1 63 65 1 61 72 20 86 64 43 77 44 0 30 56 80 25 16 10 46 80 15 22 8 21 
SVTCA[0]	/* SetFreedomAndProjectionVectorToAxis */
MIAP[1]	/* MoveIndirectAbsPt */
MIAP[1]	/* MoveIndirectAbsPt */
MIRP[00001]	/* MoveIndirectRelPt */
SHP[0]	/* ShiftPointByLastPoint */
MIAP[1]	/* MoveIndirectAbsPt */
MIRP[00001]	/* MoveIndirectRelPt */
SHP[0]	/* ShiftPointByLastPoint */
MIAP[1]	/* MoveIndirectAbsPt */
MIRP[00001]	/* MoveIndirectRelPt */
SVTCA[1]	/* SetFreedomAndProjectionVectorToAxis */
SRP0[ ]	/* SetRefPoint0 */
MIRP[10110]	/* MoveIndirectRelPt */
MIRP[00001]	/* MoveIndirectRelPt */
DELTAP1[ ]	/* DeltaExceptionP1 */
DELTAP1[ ]	/* DeltaExceptionP1 */
DELTAP1[ ]	/* DeltaExceptionP1 */
SRP0[ ]	/* SetRefPoint0 */
MIRP[10100]	/* MoveIndirectRelPt */
MIRP[00001]	/* MoveIndirectRelPt */
SHP[0]	/* ShiftPointByLastPoint */
SHP[0]	/* ShiftPointByLastPoint */
IUP[1]	/* InterpolateUntPts */
IUP[0]	/* InterpolateUntPts */";
};
width = 491;
},
{
background = {
shapes = (
{
closed = 1;
nodes = (
(262,-8,o),
(299,19,o),
(323,62,c),
(330,62,l),
(353,0,l),
(508,0,l),
(508,42,l),
(505,42,ls),
(469,42,o),
(438,50,o),
(438,98,cs),
(438,608,l),
(246,608,l),
(246,566,l),
(252,566,ls),
(288,566,o),
(317,560,o),
(317,516,cs),
(317,472,ls),
(317,457,o),
(318,443,o),
(320,416,cs),
(323,374,l),
(318,374,l),
(296,412,o),
(257,438,o),
(198,438,cs),
(147,438,o),
(106,421,o),
(79,384,cs),
(51,347,o),
(37,290,o),
(37,214,cs),
(37,60,o),
(95,-8,o),
(200,-8,cs)
);
},
{
closed = 1;
nodes = (
(207,52,o),
(189,66,o),
(177,92,cs),
(166,119,o),
(160,160,o),
(160,214,cs),
(160,267,o),
(166,309,o),
(177,337,cs),
(189,365,o),
(208,379,o),
(234,379,cs),
(266,379,o),
(286,365,o),
(299,337,cs),
(312,309,o),
(317,268,o),
(317,215,cs),
(317,160,o),
(312,119,o),
(299,92,cs),
(286,65,o),
(266,52,o),
(234,52,cs)
);
}
);
};
layerId = "0ED38B93-C2B0-4B4A-9C6D-D7838A33C317";
shapes = (
{
closed = 1;
nodes = (
(262,-8,o),
(299,19,o),
(323,62,c),
(330,62,l),
(353,0,l),
(508,0,l),
(508,42,l),
(505,42,ls),
(469,42,o),
(438,50,o),
(438,98,cs),
(438,608,l),
(246,608,l),
(246,566,l),
(252,566,ls),
(288,566,o),
(317,560,o),
(317,516,cs),
(317,472,ls),
(317,457,o),
(318,443,o),
(320,416,cs),
(323,374,l),
(318,374,l),
(296,412,o),
(257,438,o),
(198,438,cs),
(74,438,o),
(37,338,o),
(37,214,cs),
(37,60,o),
(95,-8,o),
(200,-8,cs)
);
},
{
closed = 1;
nodes = (
(165,52,o),
(160,146,o),
(160,214,cs),
(160,267,o),
(166,309,o),
(177,337,cs),
(189,365,o),
(208,379,o),
(234,379,cs),
(310,379,o),
(317,290,o),
(317,215,cs),
(317,160,o),
(312,119,o),
(299,92,cs),
(286,65,o),
(266,52,o),
(234,52,cs)
);
}
);
userData = {
assembly = "NPUSHB[ ]	/* 45 values pushed */
10 18 26 18 2 10 22 26 22 2 38 9 53 53 0 85 67 240 67 1 127 67 175 67 2 63 20 86 66 45 46 0 30 58 58 25 16 10 48 48 15 22 6 8 21 
SVTCA[0]	/* SetFreedomAndProjectionVectorToAxis */
MIAP[1]	/* MoveIndirectAbsPt */
SHP[1]	/* ShiftPointByLastPoint */
MIAP[1]	/* MoveIndirectAbsPt */
SHP[1]	/* ShiftPointByLastPoint */
SRP1[ ]	/* SetRefPoint1 */
SHP[1]	/* ShiftPointByLastPoint */
MIAP[1]	/* MoveIndirectAbsPt */
SHP[1]	/* ShiftPointByLastPoint */
SRP1[ ]	/* SetRefPoint1 */
SHP[1]	/* ShiftPointByLastPoint */
MIAP[1]	/* MoveIndirectAbsPt */
SHP[1]	/* ShiftPointByLastPoint */
SVTCA[1]	/* SetFreedomAndProjectionVectorToAxis */
SRP0[ ]	/* SetRefPoint0 */
MIRP[00110]	/* MoveIndirectRelPt */
SHP[0]	/* ShiftPointByLastPoint */
DELTAP1[ ]	/* DeltaExceptionP1 */
DELTAP1[ ]	/* DeltaExceptionP1 */
SRP0[ ]	/* SetRefPoint0 */
MIRP[00100]	/* MoveIndirectRelPt */
SHP[0]	/* ShiftPointByLastPoint */
SRP1[ ]	/* SetRefPoint1 */
SHP[1]	/* ShiftPointByLastPoint */
SHP[1]	/* ShiftPointByLastPoint */
IUP[1]	/* InterpolateUntPts */
IUP[0]	/* InterpolateUntPts */
DELTAP1[ ]	/* DeltaExceptionP1 */
DELTAP1[ ]	/* DeltaExceptionP1 */";
};
width = 519;
}
);
note = uni0064;
unicode = 100;
},
{
color = 10;
glyphname = e;
lastChange = "2022-01-06 02:32:25 +0000";
layers = (
{
layerId = "4397B867-53E7-4964-BB9B-A578920F109C";
shapes = (
{
closed = 1;
nodes = (
(326,-8,o),
(370,39,o),
(370,71,cs),
(370,85,o),
(362,95,o),
(355,98,c),
(336,69,o),
(294,42,o),
(241,42,cs),
(165,42,o),
(123,92,o),
(122,209,c),
(388,209,l),
(388,246,ls),
(388,372,o),
(325,437,o),
(222,437,cs),
(108,437,o),
(44,361,o),
(44,211,cs),
(44,86,o),
(104,-8,o),
(230,-8,cs)
);
},
{
closed = 1;
nodes = (
(129,345,o),
(161,394,o),
(220,394,cs),
(252,394,o),
(274,380,o),
(287,354,cs),
(301,330,o),
(307,294,o),
(307,252,c),
(123,252,l)
);
}
);
userData = {
assembly = "NPUSHB[ ]	/* 36 values pushed */
37 4 72 23 87 43 207 43 239 43 2 80 43 1 3 24 72 14 86 42 34 34 29 24 79 3 3 29 0 79 17 16 29 80 9 22 
SVTCA[0]	/* SetFreedomAndProjectionVectorToAxis */
MIAP[1]	/* MoveIndirectAbsPt */
MIRP[00001]	/* MoveIndirectRelPt */
MIAP[1]	/* MoveIndirectAbsPt */
MIRP[00001]	/* MoveIndirectRelPt */
SRP2[ ]	/* SetRefPoint2 */
IP[ ]	/* InterpolatePts */
MDAP[1]	/* MoveDirectAbsPt */
MIRP[00001]	/* MoveIndirectRelPt */
SRP1[ ]	/* SetRefPoint1 */
IP[ ]	/* InterpolatePts */
MDAP[1]	/* MoveDirectAbsPt */
SVTCA[1]	/* SetFreedomAndProjectionVectorToAxis */
SRP0[ ]	/* SetRefPoint0 */
MIRP[10110]	/* MoveIndirectRelPt */
MIRP[00001]	/* MoveIndirectRelPt */
SHP[0]	/* ShiftPointByLastPoint */
DELTAP1[ ]	/* DeltaExceptionP1 */
DELTAP1[ ]	/* DeltaExceptionP1 */
SRP0[ ]	/* SetRefPoint0 */
MIRP[10110]	/* MoveIndirectRelPt */
MIRP[00001]	/* MoveIndirectRelPt */
MDRP[00110]	/* MoveDirectRelPt */
IUP[1]	/* InterpolateUntPts */
IUP[0]	/* InterpolateUntPts */";
};
width = 428;
},
{
layerId = "0ED38B93-C2B0-4B4A-9C6D-D7838A33C317";
shapes = (
{
closed = 1;
nodes = (
(354,-8,o),
(402,32,o),
(402,78,cs),
(402,96,o),
(395,109,o),
(381,117,c),
(362,80,o),
(324,52,o),
(268,52,cs),
(202,52,o),
(164,99,o),
(161,206,c),
(423,206,l),
(423,246,ls),
(423,374,o),
(352,439,o),
(236,439,cs),
(110,439,o),
(38,363,o),
(38,212,cs),
(38,72,o),
(110,-8,o),
(245,-8,cs)
);
},
{
closed = 1;
nodes = (
(165,342,o),
(193,387,o),
(238,387,cs),
(261,387,o),
(276,374,o),
(286,352,cs),
(296,330,o),
(301,298,o),
(301,257,c),
(162,257,l)
);
}
);
userData = {
assembly = "NPUSHB[ ]	/* 42 values pushed */
7 22 23 22 39 22 3 38 4 25 87 44 96 44 128 44 2 15 44 1 44 64 11 14 72 3 26 26 14 86 43 26 3 3 31 0 19 16 31 36 9 22 
SVTCA[0]	/* SetFreedomAndProjectionVectorToAxis */
MIAP[1]	/* MoveIndirectAbsPt */
SHP[1]	/* ShiftPointByLastPoint */
SHP[1]	/* ShiftPointByLastPoint */
MIAP[1]	/* MoveIndirectAbsPt */
SHP[1]	/* ShiftPointByLastPoint */
SRP2[ ]	/* SetRefPoint2 */
IP[ ]	/* InterpolatePts */
MDAP[1]	/* MoveDirectAbsPt */
SHP[1]	/* ShiftPointByLastPoint */
SVTCA[1]	/* SetFreedomAndProjectionVectorToAxis */
SRP0[ ]	/* SetRefPoint0 */
MIRP[00110]	/* MoveIndirectRelPt */
SHP[0]	/* ShiftPointByLastPoint */
SRP1[ ]	/* SetRefPoint1 */
SHP[1]	/* ShiftPointByLastPoint */
CALL[ ]	/* CallFunction */
DELTAP1[ ]	/* DeltaExceptionP1 */
DELTAP1[ ]	/* DeltaExceptionP1 */
SRP0[ ]	/* SetRefPoint0 */
MIRP[00110]	/* MoveIndirectRelPt */
SHP[0]	/* ShiftPointByLastPoint */
SHP[0]	/* ShiftPointByLastPoint */
IUP[1]	/* InterpolateUntPts */
IUP[0]	/* InterpolateUntPts */
DELTAP1[ ]	/* DeltaExceptionP1 */";
};
width = 457;
}
);
note = uni0065;
unicode = 101;
},
{
color = 10;
glyphname = f;
lastChange = "2022-01-06 02:32:25 +0000";
layers = (
{
layerId = "4397B867-53E7-4964-BB9B-A578920F109C";
shapes = (
{
closed = 1;
nodes = (
(269,0,l),
(269,34,l),
(238,34,ls),
(203,34,o),
(173,41,o),
(173,91,cs),
(173,391,l),
(286,391,l),
(286,429,l),
(173,429,l),
(173,476,ls),
(173,544,o),
(187,579,o),
(233,579,cs),
(274,579,o),
(286,548,o),
(286,515,c),
(324,515,o),
(351,531,o),
(351,560,cs),
(351,577,o),
(344,590,o),
(326,600,cs),
(309,610,o),
(281,616,o),
(239,616,cs),
(152,616,o),
(98,565,o),
(98,469,cs),
(98,429,l),
(25,429,l),
(25,391,l),
(98,391,l),
(98,91,ls),
(98,41,o),
(68,34,o),
(32,34,cs),
(22,34,l),
(22,0,l)
);
}
);
userData = {
assembly = "NPUSHB[ ]	/* 40 values pushed */
40 44 71 9 29 24 13 64 9 80 9 192 9 208 9 224 9 5 9 9 50 51 16 51 1 34 77 19 1 43 11 78 40 12 15 49 3 77 2 21 
SVTCA[0]	/* SetFreedomAndProjectionVectorToAxis */
MIAP[1]	/* MoveIndirectAbsPt */
MIRP[00001]	/* MoveIndirectRelPt */
SHP[0]	/* ShiftPointByLastPoint */
MIAP[1]	/* MoveIndirectAbsPt */
SHP[1]	/* ShiftPointByLastPoint */
MIRP[00001]	/* MoveIndirectRelPt */
SHP[0]	/* ShiftPointByLastPoint */
MIAP[1]	/* MoveIndirectAbsPt */
MIRP[00001]	/* MoveIndirectRelPt */
SVTCA[1]	/* SetFreedomAndProjectionVectorToAxis */
DELTAP1[ ]	/* DeltaExceptionP1 */
SRP1[ ]	/* SetRefPoint1 */
SRP2[ ]	/* SetRefPoint2 */
IP[ ]	/* InterpolatePts */
MDAP[1]	/* MoveDirectAbsPt */
DELTAP1[ ]	/* DeltaExceptionP1 */
SHP[1]	/* ShiftPointByLastPoint */
MDRP[10100]	/* MoveDirectRelPt */
MDRP[00001]	/* MoveDirectRelPt */
SRP0[ ]	/* SetRefPoint0 */
MIRP[00001]	/* MoveIndirectRelPt */
SHP[0]	/* ShiftPointByLastPoint */
IUP[1]	/* InterpolateUntPts */
IUP[0]	/* InterpolateUntPts */";
};
width = 295;
},
{
layerId = "0ED38B93-C2B0-4B4A-9C6D-D7838A33C317";
shapes = (
{
closed = 1;
nodes = (
(306,0,l),
(306,42,l),
(268,42,ls),
(244,42,o),
(211,50,o),
(211,94,cs),
(211,374,l),
(322,374,l),
(322,429,l),
(211,429,l),
(211,473,ls),
(211,543,o),
(222,570,o),
(248,570,cs),
(278,570,o),
(288,532,o),
(288,505,c),
(354,505,o),
(386,521,o),
(386,557,cs),
(386,574,o),
(378,587,o),
(358,598,cs),
(338,609,o),
(304,615,o),
(253,615,cs),
(138,615,o),
(90,557,o),
(90,458,cs),
(90,429,l),
(18,429,l),
(18,374,l),
(90,374,l),
(90,94,ls),
(90,50,o),
(57,42,o),
(33,42,cs),
(15,42,l),
(15,0,l)
);
}
);
userData = {
assembly = "PUSHB[ ]	/* 4 values pushed */
69 20 1 20 
PUSHW[ ]	/* 1 value pushed */
-40 
NPUSHB[ ]	/* 80 values pushed */
13 20 72 5 15 37 15 2 14 24 9 12 72 38 39 58 25 1 25 48 22 176 22 208 22 224 22 4 22 31 49 255 49 2 49 64 15 18 72 36 39 39 11 0 8 224 8 2 8 184 30 1 70 25 1 26 25 42 25 58 25 3 9 25 1 30 25 17 1 39 9 9 36 10 15 45 1 1 0 21 
SVTCA[0]	/* SetFreedomAndProjectionVectorToAxis */
MIAP[1]	/* MoveIndirectAbsPt */
SHP[0]	/* ShiftPointByLastPoint */
SRP1[ ]	/* SetRefPoint1 */
SHP[1]	/* ShiftPointByLastPoint */
MIAP[1]	/* MoveIndirectAbsPt */
SHP[1]	/* ShiftPointByLastPoint */
SHP[1]	/* ShiftPointByLastPoint */
SRP1[ ]	/* SetRefPoint1 */
SHP[1]	/* ShiftPointByLastPoint */
MIAP[1]	/* MoveIndirectAbsPt */
SHP[1]	/* ShiftPointByLastPoint */
SHP[1]	/* ShiftPointByLastPoint */
DELTAP1[ ]	/* DeltaExceptionP1 */
DELTAP1[ ]	/* DeltaExceptionP1 */
DELTAP1[ ]	/* DeltaExceptionP1 */
DELTAP1[ ]	/* DeltaExceptionP1 */
SVTCA[1]	/* SetFreedomAndProjectionVectorToAxis */
MDAP[1]	/* MoveDirectAbsPt */
DELTAP1[ ]	/* DeltaExceptionP1 */
SHP[1]	/* ShiftPointByLastPoint */
SHP[1]	/* ShiftPointByLastPoint */
SRP1[ ]	/* SetRefPoint1 */
SHP[1]	/* ShiftPointByLastPoint */
CALL[ ]	/* CallFunction */
DELTAP1[ ]	/* DeltaExceptionP1 */
MDAP[1]	/* MoveDirectAbsPt */
DELTAP1[ ]	/* DeltaExceptionP1 */
SHP[1]	/* ShiftPointByLastPoint */
DELTAP1[ ]	/* DeltaExceptionP1 */
SRP2[ ]	/* SetRefPoint2 */
IP[ ]	/* InterpolatePts */
IUP[1]	/* InterpolateUntPts */
IUP[0]	/* InterpolateUntPts */
CALL[ ]	/* CallFunction */
SVTCA[0]	/* SetFreedomAndProjectionVectorToAxis */
DELTAP1[ ]	/* DeltaExceptionP1 */
SVTCA[1]	/* SetFreedomAndProjectionVectorToAxis */
CALL[ ]	/* CallFunction */
SVTCA[0]	/* SetFreedomAndProjectionVectorToAxis */
DELTAP1[ ]	/* DeltaExceptionP1 */";
};
width = 326;
}
);
note = uni0066;
unicode = 102;
},
{
color = 10;
glyphname = g;
lastChange = "2022-01-06 02:32:25 +0000";
layers = (
{
layerId = "4397B867-53E7-4964-BB9B-A578920F109C";
shapes = (
{
closed = 1;
nodes = (
(257,-192,o),
(310,-178,o),
(346,-152,cs),
(380,-126,o),
(397,-89,o),
(397,-42,cs),
(397,-8,o),
(388,22,o),
(366,43,cs),
(346,64,o),
(313,77,o),
(265,77,cs),
(174,77,ls),
(146,77,o),
(125,81,o),
(125,107,cs),
(125,131,o),
(142,146,o),
(163,156,c),
(176,154,o),
(188,154,o),
(205,154,cs),
(302,154,o),
(349,212,o),
(349,291,cs),
(349,337,o),
(336,366,o),
(318,388,c),
(328,394,o),
(338,398,o),
(352,398,cs),
(374,398,o),
(378,382,o),
(378,370,c),
(407,370,o),
(421,389,o),
(421,412,cs),
(421,434,o),
(405,454,o),
(374,454,cs),
(338,454,o),
(313,428,o),
(296,410,c),
(280,425,o),
(242,437,o),
(205,437,cs),
(104,437,o),
(54,381,o),
(54,289,cs),
(54,236,o),
(81,186,o),
(126,168,c),
(90,146,o),
(74,125,o),
(74,93,cs),
(74,59,o),
(97,37,o),
(118,27,c),
(65,18,o),
(18,-14,o),
(18,-75,cs),
(18,-149,o),
(74,-192,o),
(185,-192,cs)
);
},
{
closed = 1;
nodes = (
(146,-153,o),
(120,-144,o),
(104,-130,cs),
(89,-114,o),
(83,-94,o),
(83,-70,cs),
(83,-7,o),
(126,6,o),
(171,6,cs),
(250,6,ls),
(303,6,o),
(331,-7,o),
(331,-56,cs),
(331,-112,o),
(300,-153,o),
(186,-153,cs)
);
},
{
closed = 1;
nodes = (
(150,192,o),
(130,222,o),
(130,291,cs),
(130,363,o),
(150,398,o),
(202,398,cs),
(254,398,o),
(274,364,o),
(274,292,cs),
(274,223,o),
(255,192,o),
(202,192,cs)
);
}
);
userData = {
assembly = "NPUSHB[ ]	/* 103 values pushed */
31 71 56 60 60 50 98 71 42 13 77 73 22 26 63 6 68 117 71 0 240 16 1 16 15 42 31 42 47 42 3 42 124 15 124 31 124 63 124 79 124 111 124 5 109 71 0 68 16 68 2 68 88 71 208 50 224 50 240 50 3 15 50 31 50 2 50 10 120 78 73 5 83 73 55 104 80 36 112 78 21 78 13 63 26 4 21 73 64 21 96 21 2 36 21 36 21 73 16 93 78 47 27 
SVTCA[0]	/* SetFreedomAndProjectionVectorToAxis */
MIAP[1]	/* MoveIndirectAbsPt */
MIRP[00001]	/* MoveIndirectRelPt */
MIAP[1]	/* MoveIndirectAbsPt */
IP[ ]	/* InterpolatePts */
IP[ ]	/* InterpolatePts */
MDAP[1]	/* MoveDirectAbsPt */
MDAP[1]	/* MoveDirectAbsPt */
DELTAP1[ ]	/* DeltaExceptionP1 */
SRP1[ ]	/* SetRefPoint1 */
SRP2[ ]	/* SetRefPoint2 */
SLOOP[ ]	/* SetLoopVariable */
IP[ ]	/* InterpolatePts */
SRP0[ ]	/* SetRefPoint0 */
MIRP[00001]	/* MoveIndirectRelPt */
SRP0[ ]	/* SetRefPoint0 */
MIRP[00001]	/* MoveIndirectRelPt */
IP[ ]	/* InterpolatePts */
SRP0[ ]	/* SetRefPoint0 */
MDRP[10100]	/* MoveDirectRelPt */
MDRP[00100]	/* MoveDirectRelPt */
SRP0[ ]	/* SetRefPoint0 */
MIRP[00001]	/* MoveIndirectRelPt */
SHP[0]	/* ShiftPointByLastPoint */
SVTCA[1]	/* SetFreedomAndProjectionVectorToAxis */
MDAP[1]	/* MoveDirectAbsPt */
DELTAP1[ ]	/* DeltaExceptionP1 */
DELTAP1[ ]	/* DeltaExceptionP1 */
MIRP[00001]	/* MoveIndirectRelPt */
MDRP[11100]	/* MoveDirectRelPt */
DELTAP1[ ]	/* DeltaExceptionP1 */
MIRP[00001]	/* MoveIndirectRelPt */
DELTAP1[ ]	/* DeltaExceptionP1 */
SRP0[ ]	/* SetRefPoint0 */
MDRP[11110]	/* MoveDirectRelPt */
DELTAP1[ ]	/* DeltaExceptionP1 */
MDRP[10100]	/* MoveDirectRelPt */
DELTAP1[ ]	/* DeltaExceptionP1 */
MDRP[00100]	/* MoveDirectRelPt */
MIRP[00001]	/* MoveIndirectRelPt */
SRP2[ ]	/* SetRefPoint2 */
SLOOP[ ]	/* SetLoopVariable */
IP[ ]	/* InterpolatePts */
SRP0[ ]	/* SetRefPoint0 */
MIRP[00001]	/* MoveIndirectRelPt */
SRP1[ ]	/* SetRefPoint1 */
IP[ ]	/* InterpolatePts */
MDAP[1]	/* MoveDirectAbsPt */
IP[ ]	/* InterpolatePts */
MIRP[00001]	/* MoveIndirectRelPt */
IUP[1]	/* InterpolateUntPts */
IUP[0]	/* InterpolateUntPts */";
};
width = 430;
},
{
layerId = "0ED38B93-C2B0-4B4A-9C6D-D7838A33C317";
shapes = (
{
closed = 1;
nodes = (
(271,-192,o),
(330,-176,o),
(369,-147,cs),
(404,-121,o),
(421,-82,o),
(421,-35,cs),
(421,3,o),
(409,34,o),
(384,54,cs),
(358,75,o),
(320,87,o),
(267,87,cs),
(170,87,ls),
(148,87,o),
(133,95,o),
(133,113,cs),
(133,132,o),
(147,146,o),
(162,154,c),
(174,152,o),
(193,151,o),
(208,151,cs),
(320,151,o),
(370,211,o),
(370,291,cs),
(370,331,o),
(352,370,o),
(330,393,c),
(336,397,o),
(348,402,o),
(357,402,cs),
(372,402,o),
(387,390,o),
(387,368,c),
(430,368,o),
(444,388,o),
(444,414,cs),
(444,439,o),
(423,459,o),
(386,459,cs),
(346,459,o),
(322,434,o),
(303,414,c),
(279,428,o),
(246,439,o),
(208,439,cs),
(94,439,o),
(41,385,o),
(41,291,cs),
(41,227,o),
(75,184,o),
(122,167,c),
(82,144,o),
(51,119,o),
(51,83,cs),
(51,44,o),
(81,23,o),
(110,12,c),
(39,6,o),
(2,-23,o),
(2,-81,cs),
(2,-154,o),
(62,-192,o),
(189,-192,cs)
);
},
{
closed = 1;
nodes = (
(158,-144,o),
(133,-138,o),
(117,-126,cs),
(103,-115,o),
(96,-99,o),
(96,-79,cs),
(96,-28,o),
(134,-18,o),
(167,-18,cs),
(260,-18,ls),
(303,-18,o),
(325,-30,o),
(325,-64,cs),
(325,-117,o),
(284,-144,o),
(190,-144,cs)
);
},
{
closed = 1;
nodes = (
(164,198,o),
(150,236,o),
(150,291,cs),
(150,350,o),
(163,391,o),
(205,391,cs),
(247,391,o),
(260,350,o),
(260,292,cs),
(260,233,o),
(248,198,o),
(206,198,cs)
);
}
);
userData = {
assembly = "PUSHW[ ]	/* 2 values pushed */
15 -40 
NPUSHB[ ]	/* 141 values pushed */
12 15 72 9 51 25 51 41 51 3 9 49 25 49 41 49 3 6 40 22 40 38 40 3 6 20 22 20 38 20 3 11 65 27 65 43 65 3 9 69 25 69 41 69 3 84 31 50 1 50 33 58 58 50 13 74 28 63 4 18 37 99 1 7 99 23 99 2 99 16 68 1 68 5 0 90 42 0 42 109 1 25 109 1 8 109 1 0 109 42 3 96 18 1 18 18 120 111 120 127 120 2 16 120 1 74 13 63 3 23 71 53 94 58 94 1 40 94 1 94 36 104 23 96 23 1 36 23 36 23 87 71 5 79 114 79 71 16 87 47 27 
SVTCA[0]	/* SetFreedomAndProjectionVectorToAxis */
MIAP[1]	/* MoveIndirectAbsPt */
SHP[1]	/* ShiftPointByLastPoint */
MIAP[1]	/* MoveIndirectAbsPt */
SHP[1]	/* ShiftPointByLastPoint */
SHP[1]	/* ShiftPointByLastPoint */
MDAP[1]	/* MoveDirectAbsPt */
SHP[1]	/* ShiftPointByLastPoint */
SRP1[ ]	/* SetRefPoint1 */
SRP2[ ]	/* SetRefPoint2 */
IP[ ]	/* InterpolatePts */
IP[ ]	/* InterpolatePts */
MDAP[1]	/* MoveDirectAbsPt */
MDAP[1]	/* MoveDirectAbsPt */
DELTAP1[ ]	/* DeltaExceptionP1 */
SRP1[ ]	/* SetRefPoint1 */
SHP[1]	/* ShiftPointByLastPoint */
SRP1[ ]	/* SetRefPoint1 */
SHP[1]	/* ShiftPointByLastPoint */
DELTAP1[ ]	/* DeltaExceptionP1 */
DELTAP1[ ]	/* DeltaExceptionP1 */
SRP2[ ]	/* SetRefPoint2 */
IP[ ]	/* InterpolatePts */
SRP1[ ]	/* SetRefPoint1 */
SRP2[ ]	/* SetRefPoint2 */
SLOOP[ ]	/* SetLoopVariable */
IP[ ]	/* InterpolatePts */
SVTCA[1]	/* SetFreedomAndProjectionVectorToAxis */
DELTAP1[ ]	/* DeltaExceptionP1 */
DELTAP1[ ]	/* DeltaExceptionP1 */
SRP1[ ]	/* SetRefPoint1 */
SHP[1]	/* ShiftPointByLastPoint */
MDAP[1]	/* MoveDirectAbsPt */
DELTAP1[ ]	/* DeltaExceptionP1 */
SLOOP[ ]	/* SetLoopVariable */
SHP[1]	/* ShiftPointByLastPoint */
DELTAP1[ ]	/* DeltaExceptionP1 */
DELTAP1[ ]	/* DeltaExceptionP1 */
DELTAP1[ ]	/* DeltaExceptionP1 */
MDAP[1]	/* MoveDirectAbsPt */
MDAP[1]	/* MoveDirectAbsPt */
SHP[1]	/* ShiftPointByLastPoint */
SRP1[ ]	/* SetRefPoint1 */
SHP[1]	/* ShiftPointByLastPoint */
MDAP[1]	/* MoveDirectAbsPt */
DELTAP1[ ]	/* DeltaExceptionP1 */
SHP[1]	/* ShiftPointByLastPoint */
DELTAP1[ ]	/* DeltaExceptionP1 */
DELTAP1[ ]	/* DeltaExceptionP1 */
SRP2[ ]	/* SetRefPoint2 */
SLOOP[ ]	/* SetLoopVariable */
IP[ ]	/* InterpolatePts */
SHP[1]	/* ShiftPointByLastPoint */
SHP[1]	/* ShiftPointByLastPoint */
MDAP[1]	/* MoveDirectAbsPt */
SHP[1]	/* ShiftPointByLastPoint */
MDAP[1]	/* MoveDirectAbsPt */
DELTAP1[ ]	/* DeltaExceptionP1 */
SHP[1]	/* ShiftPointByLastPoint */
IUP[1]	/* InterpolateUntPts */
IUP[0]	/* InterpolateUntPts */
DELTAP1[ ]	/* DeltaExceptionP1 */
DELTAP1[ ]	/* DeltaExceptionP1 */
DELTAP1[ ]	/* DeltaExceptionP1 */
DELTAP1[ ]	/* DeltaExceptionP1 */
DELTAP1[ ]	/* DeltaExceptionP1 */
DELTAP1[ ]	/* DeltaExceptionP1 */
CALL[ ]	/* CallFunction */";
};
width = 448;
}
);
note = uni0067;
unicode = 103;
},
{
color = 10;
glyphname = h;
lastChange = "2022-01-06 02:32:25 +0000";
layers = (
{
layerId = "4397B867-53E7-4964-BB9B-A578920F109C";
shapes = (
{
closed = 1;
nodes = (
(230,0,l),
(230,34,l),
(227,34,ls),
(191,34,o),
(162,40,o),
(162,87,cs),
(162,256,ls),
(162,335,o),
(192,386,o),
(258,386,cs),
(322,386,o),
(346,347,o),
(346,276,cs),
(346,0,l),
(486,0,l),
(486,34,l),
(483,34,ls),
(448,34,o),
(422,42,o),
(422,91,cs),
(422,280,ls),
(422,389,o),
(371,437,o),
(280,437,cs),
(226,437,o),
(186,413,o),
(162,364,c),
(158,364,l),
(160,387,ls),
(161,401,o),
(162,418,o),
(162,432,cs),
(162,608,l),
(14,608,l),
(14,574,l),
(21,574,ls),
(56,574,o),
(86,568,o),
(86,520,cs),
(86,91,ls),
(86,41,o),
(57,34,o),
(21,34,cs),
(14,34,l),
(14,0,l)
);
}
);
userData = {
assembly = "NPUSHB[ ]	/* 34 values pushed */
41 71 33 85 60 127 60 159 60 207 60 3 19 53 71 9 84 59 25 47 80 27 16 16 77 17 0 39 0 3 77 41 2 21 
SVTCA[0]	/* SetFreedomAndProjectionVectorToAxis */
MIAP[1]	/* MoveIndirectAbsPt */
SHP[1]	/* ShiftPointByLastPoint */
MIRP[00001]	/* MoveIndirectRelPt */
SHP[0]	/* ShiftPointByLastPoint */
SHP[0]	/* ShiftPointByLastPoint */
MIAP[1]	/* MoveIndirectAbsPt */
MIRP[00001]	/* MoveIndirectRelPt */
MIAP[1]	/* MoveIndirectAbsPt */
MIRP[00001]	/* MoveIndirectRelPt */
SHP[0]	/* ShiftPointByLastPoint */
SVTCA[1]	/* SetFreedomAndProjectionVectorToAxis */
SRP0[ ]	/* SetRefPoint0 */
MIRP[10100]	/* MoveIndirectRelPt */
MIRP[00001]	/* MoveIndirectRelPt */
SHP[0]	/* ShiftPointByLastPoint */
DELTAP1[ ]	/* DeltaExceptionP1 */
SRP0[ ]	/* SetRefPoint0 */
MIRP[10100]	/* MoveIndirectRelPt */
MIRP[00001]	/* MoveIndirectRelPt */
IUP[1]	/* InterpolateUntPts */
IUP[0]	/* InterpolateUntPts */";
};
width = 508;
},
{
layerId = "0ED38B93-C2B0-4B4A-9C6D-D7838A33C317";
shapes = (
{
closed = 1;
nodes = (
(262,0,l),
(262,42,l),
(259,42,ls),
(225,42,o),
(202,50,o),
(202,94,cs),
(202,247,ls),
(202,312,o),
(218,371,o),
(271,371,cs),
(325,371,o),
(335,318,o),
(335,263,cs),
(335,0,l),
(513,0,l),
(513,42,l),
(510,42,ls),
(474,42,o),
(457,50,o),
(457,99,cs),
(457,285,ls),
(457,378,o),
(418,439,o),
(325,439,cs),
(274,439,o),
(234,434,o),
(202,374,c),
(195,374,l),
(198,410,ls),
(200,430,o),
(202,455,o),
(202,476,cs),
(202,608,l),
(14,608,l),
(14,566,l),
(23,566,ls),
(46,566,o),
(80,560,o),
(80,517,cs),
(80,98,ls),
(80,50,o),
(54,42,o),
(18,42,cs),
(16,42,l),
(16,0,l)
);
}
);
userData = {
assembly = "NPUSHB[ ]	/* 44 values pushed */
11 44 75 44 2 7 9 1 5 51 21 51 37 51 3 0 54 85 63 16 63 64 63 2 37 12 12 27 84 62 6 42 1 42 6 6 48 16 34 35 0 20 0 21 
SVTCA[0]	/* SetFreedomAndProjectionVectorToAxis */
MIAP[1]	/* MoveIndirectAbsPt */
SHP[0]	/* ShiftPointByLastPoint */
MIAP[1]	/* MoveIndirectAbsPt */
SHP[1]	/* ShiftPointByLastPoint */
MIAP[1]	/* MoveIndirectAbsPt */
SHP[1]	/* ShiftPointByLastPoint */
SRP1[ ]	/* SetRefPoint1 */
SHP[1]	/* ShiftPointByLastPoint */
DELTAP1[ ]	/* DeltaExceptionP1 */
SVTCA[1]	/* SetFreedomAndProjectionVectorToAxis */
SRP0[ ]	/* SetRefPoint0 */
MIRP[00100]	/* MoveIndirectRelPt */
SHP[0]	/* ShiftPointByLastPoint */
SRP1[ ]	/* SetRefPoint1 */
SHP[1]	/* ShiftPointByLastPoint */
DELTAP1[ ]	/* DeltaExceptionP1 */
SRP0[ ]	/* SetRefPoint0 */
MIRP[00100]	/* MoveIndirectRelPt */
SHP[0]	/* ShiftPointByLastPoint */
IUP[1]	/* InterpolateUntPts */
IUP[0]	/* InterpolateUntPts */
DELTAP1[ ]	/* DeltaExceptionP1 */
DELTAP1[ ]	/* DeltaExceptionP1 */
DELTAP1[ ]	/* DeltaExceptionP1 */";
};
width = 534;
}
);
note = uni0068;
unicode = 104;
},
{
color = 10;
glyphname = i;
lastChange = "2022-01-06 02:32:25 +0000";
layers = (
{
layerId = "4397B867-53E7-4964-BB9B-A578920F109C";
shapes = (
{
closed = 1;
nodes = (
(246,0,l),
(246,34,l),
(235,34,ls),
(200,34,o),
(170,41,o),
(170,91,cs),
(170,429,l),
(26,429,l),
(26,395,l),
(29,395,ls),
(64,395,o),
(94,387,o),
(94,341,cs),
(94,87,ls),
(94,40,o),
(65,34,o),
(29,34,cs),
(18,34,l),
(18,0,l)
);
},
{
closed = 1;
nodes = (
(154,509,o),
(174,522,o),
(174,558,cs),
(174,598,o),
(154,608,o),
(129,608,cs),
(103,608,o),
(83,596,o),
(83,558,cs),
(83,522,o),
(103,509,o),
(129,509,cs)
);
}
);
userData = {
assembly = "NPUSHB[ ]	/* 35 values pushed */
35 74 25 15 71 192 5 208 5 224 5 3 5 5 46 45 255 46 1 32 46 1 40 83 30 0 20 24 77 23 21 12 77 13 15 
SVTCA[0]	/* SetFreedomAndProjectionVectorToAxis */
MIAP[1]	/* MoveIndirectAbsPt */
MIRP[00001]	/* MoveIndirectRelPt */
MIAP[1]	/* MoveIndirectAbsPt */
MIRP[00001]	/* MoveIndirectRelPt */
SHP[0]	/* ShiftPointByLastPoint */
MIAP[1]	/* MoveIndirectAbsPt */
MIRP[01101]	/* MoveIndirectRelPt */
SVTCA[1]	/* SetFreedomAndProjectionVectorToAxis */
DELTAP1[ ]	/* DeltaExceptionP1 */
DELTAP1[ ]	/* DeltaExceptionP1 */
SRP1[ ]	/* SetRefPoint1 */
SRP2[ ]	/* SetRefPoint2 */
IP[ ]	/* InterpolatePts */
MDAP[1]	/* MoveDirectAbsPt */
DELTAP1[ ]	/* DeltaExceptionP1 */
MIRP[00001]	/* MoveIndirectRelPt */
MDRP[10100]	/* MoveDirectRelPt */
MIRP[01101]	/* MoveIndirectRelPt */
IUP[1]	/* InterpolateUntPts */
IUP[0]	/* InterpolateUntPts */";
};
width = 256;
},
{
layerId = "0ED38B93-C2B0-4B4A-9C6D-D7838A33C317";
shapes = (
{
closed = 1;
nodes = (
(268,0,l),
(268,42,l),
(258,42,ls),
(234,42,o),
(202,50,o),
(202,94,cs),
(202,429,l),
(14,429,l),
(14,386,l),
(23,386,ls),
(46,386,o),
(80,381,o),
(80,338,cs),
(80,94,ls),
(80,50,o),
(47,42,o),
(23,42,cs),
(14,42,l),
(14,0,l)
);
},
{
closed = 1;
nodes = (
(173,501,o),
(206,519,o),
(206,558,cs),
(206,599,o),
(174,616,o),
(137,616,cs),
(98,616,o),
(69,598,o),
(69,558,cs),
(69,519,o),
(98,501,o),
(137,501,cs)
);
}
);
userData = {
assembly = "NPUSHB[ ]	/* 84 values pushed */
156 18 172 18 188 18 3 154 17 1 147 12 163 12 179 12 3 147 8 163 8 179 8 3 154 3 1 157 2 173 2 189 2 3 208 46 1 159 46 1 16 46 64 46 80 46 3 183 10 1 40 10 56 10 2 10 35 169 0 185 0 2 0 8 10 18 72 35 0 25 84 45 40 44 44 43 21 5 83 15 15 32 33 15 
SVTCA[0]	/* SetFreedomAndProjectionVectorToAxis */
MIAP[1]	/* MoveIndirectAbsPt */
SHP[1]	/* ShiftPointByLastPoint */
SHP[1]	/* ShiftPointByLastPoint */
MDAP[1]	/* MoveDirectAbsPt */
MIRP[01101]	/* MoveIndirectRelPt */
MIAP[1]	/* MoveIndirectAbsPt */
SHP[1]	/* ShiftPointByLastPoint */
SRP1[ ]	/* SetRefPoint1 */
SHP[1]	/* ShiftPointByLastPoint */
SVTCA[1]	/* SetFreedomAndProjectionVectorToAxis */
SRP0[ ]	/* SetRefPoint0 */
MIRP[00100]	/* MoveIndirectRelPt */
SHP[0]	/* ShiftPointByLastPoint */
SHP[0]	/* ShiftPointByLastPoint */
CALL[ ]	/* CallFunction */
DELTAP1[ ]	/* DeltaExceptionP1 */
SRP1[ ]	/* SetRefPoint1 */
SHP[1]	/* ShiftPointByLastPoint */
DELTAP1[ ]	/* DeltaExceptionP1 */
DELTAP1[ ]	/* DeltaExceptionP1 */
DELTAP1[ ]	/* DeltaExceptionP1 */
DELTAP1[ ]	/* DeltaExceptionP1 */
DELTAP1[ ]	/* DeltaExceptionP1 */
IUP[1]	/* InterpolateUntPts */
IUP[0]	/* InterpolateUntPts */
DELTAP1[ ]	/* DeltaExceptionP1 */
DELTAP1[ ]	/* DeltaExceptionP1 */
DELTAP1[ ]	/* DeltaExceptionP1 */
DELTAP1[ ]	/* DeltaExceptionP1 */
DELTAP1[ ]	/* DeltaExceptionP1 */
DELTAP1[ ]	/* DeltaExceptionP1 */";
};
width = 282;
}
);
note = uni0069;
unicode = 105;
},
{
color = 10;
glyphname = j;
lastChange = "2022-01-06 02:32:25 +0000";
layers = (
{
layerId = "4397B867-53E7-4964-BB9B-A578920F109C";
shapes = (
{
closed = 1;
nodes = (
(3,-192,ls),
(119,-192,o),
(162,-122,o),
(162,-6,cs),
(162,429,l),
(18,429,l),
(18,395,l),
(21,395,ls),
(56,395,o),
(86,387,o),
(86,341,cs),
(86,-7,ls),
(86,-65,o),
(78,-102,o),
(62,-125,cs),
(46,-146,o),
(24,-154,o),
(-4,-154,cs),
(-10,-154,l),
(-10,-192,l)
);
},
{
closed = 1;
nodes = (
(146,509,o),
(166,522,o),
(166,558,cs),
(166,596,o),
(145,608,o),
(121,608,cs),
(95,608,o),
(75,596,o),
(75,558,cs),
(75,522,o),
(95,509,o),
(121,509,cs)
);
}
);
userData = {
assembly = "NPUSHB[ ]	/* 35 values pushed */
33 74 23 1 71 192 14 208 14 224 14 3 14 14 44 43 159 44 207 44 255 44 3 38 83 28 0 20 77 22 15 8 78 6 27 
SVTCA[0]	/* SetFreedomAndProjectionVectorToAxis */
MIAP[1]	/* MoveIndirectAbsPt */
MIRP[00001]	/* MoveIndirectRelPt */
MIAP[1]	/* MoveIndirectAbsPt */
MIRP[00001]	/* MoveIndirectRelPt */
MIAP[1]	/* MoveIndirectAbsPt */
MIRP[01101]	/* MoveIndirectRelPt */
SVTCA[1]	/* SetFreedomAndProjectionVectorToAxis */
DELTAP1[ ]	/* DeltaExceptionP1 */
SRP1[ ]	/* SetRefPoint1 */
SRP2[ ]	/* SetRefPoint2 */
IP[ ]	/* InterpolatePts */
MDAP[1]	/* MoveDirectAbsPt */
DELTAP1[ ]	/* DeltaExceptionP1 */
MIRP[00001]	/* MoveIndirectRelPt */
MDRP[10100]	/* MoveDirectRelPt */
MIRP[01101]	/* MoveIndirectRelPt */
IUP[1]	/* InterpolateUntPts */
IUP[0]	/* InterpolateUntPts */";
};
width = 240;
},
{
layerId = "0ED38B93-C2B0-4B4A-9C6D-D7838A33C317";
shapes = (
{
closed = 1;
nodes = (
(0,-192,ls),
(118,-192,o),
(202,-149,o),
(202,-6,cs),
(202,429,l),
(14,429,l),
(14,386,l),
(16,386,ls),
(50,386,o),
(80,380,o),
(80,334,cs),
(80,0,ls),
(80,-54,o),
(72,-90,o),
(57,-112,cs),
(42,-134,o),
(18,-142,o),
(-10,-142,cs),
(-16,-142,l),
(-16,-192,l)
);
},
{
closed = 1;
nodes = (
(174,501,o),
(206,519,o),
(206,558,cs),
(206,599,o),
(174,616,o),
(138,616,cs),
(98,616,o),
(70,598,o),
(70,558,cs),
(70,519,o),
(98,501,o),
(138,501,cs)
);
}
);
userData = {
assembly = "NPUSHB[ ]	/* 75 values pushed */
156 41 172 41 188 41 3 154 40 1 147 35 163 35 179 35 3 147 31 163 31 179 31 3 154 26 1 156 25 172 25 188 25 3 208 44 1 159 44 1 80 44 1 183 33 1 33 1 169 23 185 23 2 23 8 10 18 72 7 23 1 3 14 84 43 28 83 38 38 20 22 15 9 6 27 
SVTCA[0]	/* SetFreedomAndProjectionVectorToAxis */
MIAP[1]	/* MoveIndirectAbsPt */
SHP[1]	/* ShiftPointByLastPoint */
MIAP[1]	/* MoveIndirectAbsPt */
SHP[1]	/* ShiftPointByLastPoint */
SHP[1]	/* ShiftPointByLastPoint */
MDAP[1]	/* MoveDirectAbsPt */
MIRP[01101]	/* MoveIndirectRelPt */
SVTCA[1]	/* SetFreedomAndProjectionVectorToAxis */
SRP0[ ]	/* SetRefPoint0 */
MIRP[00110]	/* MoveIndirectRelPt */
SLOOP[ ]	/* SetLoopVariable */
SHP[0]	/* ShiftPointByLastPoint */
CALL[ ]	/* CallFunction */
DELTAP1[ ]	/* DeltaExceptionP1 */
SRP1[ ]	/* SetRefPoint1 */
SHP[1]	/* ShiftPointByLastPoint */
DELTAP1[ ]	/* DeltaExceptionP1 */
DELTAP1[ ]	/* DeltaExceptionP1 */
DELTAP1[ ]	/* DeltaExceptionP1 */
DELTAP1[ ]	/* DeltaExceptionP1 */
IUP[1]	/* InterpolateUntPts */
IUP[0]	/* InterpolateUntPts */
DELTAP1[ ]	/* DeltaExceptionP1 */
DELTAP1[ ]	/* DeltaExceptionP1 */
DELTAP1[ ]	/* DeltaExceptionP1 */
DELTAP1[ ]	/* DeltaExceptionP1 */
DELTAP1[ ]	/* DeltaExceptionP1 */
DELTAP1[ ]	/* DeltaExceptionP1 */";
};
width = 276;
}
);
note = uni006A;
unicode = 106;
},
{
color = 10;
glyphname = k;
lastChange = "2022-01-06 02:32:25 +0000";
layers = (
{
background = {
shapes = (
{
closed = 1;
nodes = (
(230,0,l),
(230,34,l),
(227,34,ls),
(191,34,o),
(162,40,o),
(162,87,cs),
(162,159,l),
(221,203,l),
(301,78,ls),
(346,7,o),
(366,0,o),
(458,0,cs),
(469,0,l),
(469,34,l),
(466,34,ls),
(430,34,o),
(406,57,o),
(378,99,cs),
(271,258,l),
(327,321,ls),
(369,368,o),
(403,395,o),
(440,395,c),
(440,429,l),
(263,429,l),
(263,395,l),
(277,395,o),
(286,394,o),
(293,392,cs),
(299,390,o),
(302,386,o),
(302,379,cs),
(302,362,o),
(289,342,o),
(258,308,cs),
(158,198,l),
(160,238,ls),
(161,260,o),
(162,285,o),
(162,299,cs),
(162,608,l),
(14,608,l),
(14,574,l),
(21,574,ls),
(56,574,o),
(86,568,o),
(86,520,cs),
(86,91,ls),
(86,41,o),
(57,34,o),
(21,34,cs),
(14,34,l),
(14,0,l)
);
}
);
};
layerId = "4397B867-53E7-4964-BB9B-A578920F109C";
shapes = (
{
closed = 1;
nodes = (
(230,0,l),
(230,34,l),
(227,34,ls),
(191,34,o),
(162,40,o),
(162,87,cs),
(162,159,l),
(221,203,l),
(301,78,ls),
(324,42,o),
(340,22,o),
(363,11,cs),
(386,2,o),
(413,0,o),
(458,0,cs),
(469,0,l),
(469,34,l),
(466,34,ls),
(430,34,o),
(406,57,o),
(378,99,cs),
(271,258,l),
(327,321,ls),
(369,368,o),
(403,395,o),
(440,395,c),
(440,429,l),
(263,429,l),
(263,395,l),
(295,395,o),
(302,390,o),
(302,379,cs),
(302,362,o),
(289,342,o),
(258,308,cs),
(158,198,l),
(161,252,o),
(162,277,o),
(162,299,cs),
(162,608,l),
(14,608,l),
(14,574,l),
(21,574,ls),
(56,574,o),
(86,568,o),
(86,520,cs),
(86,91,ls),
(86,41,o),
(57,34,o),
(21,34,cs),
(14,34,l),
(14,0,l)
);
}
);
userData = {
assembly = "PUSHB[ ]	/* 6 values pushed */
54 60 150 60 2 60 
PUSHW[ ]	/* 1 value pushed */
-16 
NPUSHB[ ]	/* 40 values pushed */
20 24 72 89 48 1 41 47 1 41 46 89 46 2 24 13 40 13 2 57 12 1 8 12 24 12 40 12 3 8 11 1 54 0 70 0 150 0 3 0 
PUSHW[ ]	/* 1 value pushed */
-16 
NPUSHB[ ]	/* 48 values pushed */
20 24 72 7 0 1 13 0 40 64 57 1 57 5 62 127 62 1 15 40 71 30 84 61 14 45 13 0 4 57 24 57 54 77 55 15 37 77 38 0 20 5 24 77 23 23 6 21 
SVTCA[0]	/* SetFreedomAndProjectionVectorToAxis */
MIAP[1]	/* MoveIndirectAbsPt */
SHP[1]	/* ShiftPointByLastPoint */
SRP0[ ]	/* SetRefPoint0 */
MIRP[00001]	/* MoveIndirectRelPt */
SHP[0]	/* ShiftPointByLastPoint */
SHP[0]	/* ShiftPointByLastPoint */
MIAP[1]	/* MoveIndirectAbsPt */
MIRP[00001]	/* MoveIndirectRelPt */
MIAP[1]	/* MoveIndirectAbsPt */
MIRP[00001]	/* MoveIndirectRelPt */
SHP[0]	/* ShiftPointByLastPoint */
SRP1[ ]	/* SetRefPoint1 */
SRP2[ ]	/* SetRefPoint2 */
SLOOP[ ]	/* SetLoopVariable */
IP[ ]	/* InterpolatePts */
SVTCA[1]	/* SetFreedomAndProjectionVectorToAxis */
SRP0[ ]	/* SetRefPoint0 */
MIRP[10100]	/* MoveIndirectRelPt */
MIRP[00001]	/* MoveIndirectRelPt */
SHP[0]	/* ShiftPointByLastPoint */
DELTAP1[ ]	/* DeltaExceptionP1 */
SRP0[ ]	/* SetRefPoint0 */
MDRP[10101]	/* MoveDirectRelPt */
MDRP[00110]	/* MoveDirectRelPt */
DELTAP1[ ]	/* DeltaExceptionP1 */
SRP1[ ]	/* SetRefPoint1 */
IP[ ]	/* InterpolatePts */
IP[ ]	/* InterpolatePts */
IUP[1]	/* InterpolateUntPts */
IUP[0]	/* InterpolateUntPts */
DELTAP1[ ]	/* DeltaExceptionP1 */
CALL[ ]	/* CallFunction */
DELTAP1[ ]	/* DeltaExceptionP1 */
DELTAP1[ ]	/* DeltaExceptionP1 */
DELTAP1[ ]	/* DeltaExceptionP1 */
DELTAP1[ ]	/* DeltaExceptionP1 */
DELTAP1[ ]	/* DeltaExceptionP1 */
DELTAP1[ ]	/* DeltaExceptionP1 */
DELTAP1[ ]	/* DeltaExceptionP1 */
DELTAP1[ ]	/* DeltaExceptionP1 */
CALL[ ]	/* CallFunction */
DELTAP1[ ]	/* DeltaExceptionP1 */";
};
width = 468;
},
{
background = {
shapes = (
{
closed = 1;
nodes = (
(268,0,l),
(268,42,l),
(258,42,ls),
(234,42,o),
(202,50,o),
(202,94,cs),
(202,159,l),
(234,183,l),
(305,71,ls),
(326,38,o),
(345,20,o),
(373,11,cs),
(402,2,o),
(439,0,o),
(498,0,cs),
(509,0,l),
(509,42,l),
(506,42,ls),
(481,42,o),
(451,62,o),
(423,105,cs),
(317,263,l),
(367,321,ls),
(410,368,o),
(443,389,o),
(480,389,c),
(480,429,l),
(278,429,l),
(278,389,l),
(305,389,o),
(320,381,o),
(320,367,cs),
(320,363,o),
(318,358,o),
(316,353,cs),
(313,346,o),
(307,339,o),
(298,329,cs),
(198,216,l),
(198,226,o),
(199,237,o),
(200,247,cs),
(201,264,o),
(202,285,o),
(202,299,cs),
(202,608,l),
(14,608,l),
(14,566,l),
(23,566,ls),
(46,566,o),
(80,560,o),
(80,517,cs),
(80,94,ls),
(80,50,o),
(47,42,o),
(23,42,cs),
(14,42,l),
(14,0,l)
);
}
);
};
layerId = "0ED38B93-C2B0-4B4A-9C6D-D7838A33C317";
shapes = (
{
closed = 1;
nodes = (
(268,0,l),
(268,42,l),
(258,42,ls),
(234,42,o),
(202,50,o),
(202,94,cs),
(202,159,l),
(234,183,l),
(305,71,ls),
(326,38,o),
(345,20,o),
(373,11,cs),
(402,2,o),
(439,0,o),
(498,0,cs),
(509,0,l),
(509,42,l),
(506,42,ls),
(481,42,o),
(451,62,o),
(423,105,cs),
(317,263,l),
(367,321,ls),
(410,368,o),
(443,389,o),
(480,389,c),
(480,429,l),
(278,429,l),
(278,389,l),
(305,389,o),
(320,381,o),
(320,367,cs),
(320,354,o),
(307,339,o),
(298,329,cs),
(198,216,l),
(200,246,o),
(202,269,o),
(202,299,cs),
(202,608,l),
(14,608,l),
(14,566,l),
(23,566,ls),
(46,566,o),
(80,560,o),
(80,517,cs),
(80,94,ls),
(80,50,o),
(47,42,o),
(23,42,cs),
(14,42,l),
(14,0,l)
);
}
);
userData = {
assembly = "NPUSHB[ ]	/* 77 values pushed */
88 4 120 4 2 4 55 55 58 120 7 1 89 7 1 7 53 5 53 21 53 85 53 3 52 53 48 8 48 58 58 60 159 60 1 34 8 8 24 84 59 49 46 46 7 16 12 17 72 12 7 28 7 44 7 3 43 52 53 39 7 54 6 7 17 47 15 31 32 0 58 14 18 18 1 17 21 
SVTCA[0]	/* SetFreedomAndProjectionVectorToAxis */
MIAP[1]	/* MoveIndirectAbsPt */
SHP[1]	/* ShiftPointByLastPoint */
SHP[1]	/* ShiftPointByLastPoint */
SRP1[ ]	/* SetRefPoint1 */
SHP[1]	/* ShiftPointByLastPoint */
SHP[1]	/* ShiftPointByLastPoint */
MIAP[1]	/* MoveIndirectAbsPt */
SHP[1]	/* ShiftPointByLastPoint */
MIAP[1]	/* MoveIndirectAbsPt */
SRP2[ ]	/* SetRefPoint2 */
SLOOP[ ]	/* SetLoopVariable */
IP[ ]	/* InterpolatePts */
DELTAP1[ ]	/* DeltaExceptionP1 */
CALL[ ]	/* CallFunction */
SHP[1]	/* ShiftPointByLastPoint */
SRP1[ ]	/* SetRefPoint1 */
SHP[1]	/* ShiftPointByLastPoint */
SVTCA[1]	/* SetFreedomAndProjectionVectorToAxis */
SRP0[ ]	/* SetRefPoint0 */
MIRP[00100]	/* MoveIndirectRelPt */
SHP[0]	/* ShiftPointByLastPoint */
SRP1[ ]	/* SetRefPoint1 */
SHP[1]	/* ShiftPointByLastPoint */
DELTAP1[ ]	/* DeltaExceptionP1 */
SRP1[ ]	/* SetRefPoint1 */
SHP[1]	/* ShiftPointByLastPoint */
SRP1[ ]	/* SetRefPoint1 */
SHP[1]	/* ShiftPointByLastPoint */
SRP1[ ]	/* SetRefPoint1 */
SRP2[ ]	/* SetRefPoint2 */
IP[ ]	/* InterpolatePts */
IP[ ]	/* InterpolatePts */
DELTAP1[ ]	/* DeltaExceptionP1 */
SRP1[ ]	/* SetRefPoint1 */
SHP[1]	/* ShiftPointByLastPoint */
DELTAP1[ ]	/* DeltaExceptionP1 */
DELTAP1[ ]	/* DeltaExceptionP1 */
SRP2[ ]	/* SetRefPoint2 */
IP[ ]	/* InterpolatePts */
SRP1[ ]	/* SetRefPoint1 */
SHP[1]	/* ShiftPointByLastPoint */
DELTAP1[ ]	/* DeltaExceptionP1 */
IUP[1]	/* InterpolateUntPts */
IUP[0]	/* InterpolateUntPts */";
};
width = 509;
}
);
note = uni006B;
unicode = 107;
},
{
color = 10;
glyphname = l;
lastChange = "2022-01-06 02:32:25 +0000";
layers = (
{
layerId = "4397B867-53E7-4964-BB9B-A578920F109C";
shapes = (
{
closed = 1;
nodes = (
(238,0,l),
(238,34,l),
(227,34,ls),
(190,34,o),
(162,42,o),
(162,91,cs),
(162,608,l),
(10,608,l),
(10,574,l),
(21,574,ls),
(56,574,o),
(86,568,o),
(86,520,cs),
(86,91,ls),
(86,41,o),
(57,34,o),
(21,34,cs),
(10,34,l),
(10,0,l)
);
}
);
userData = {
assembly = "NPUSHB[ ]	/* 19 values pushed */
15 71 5 5 26 25 255 26 1 2 20 24 77 23 21 12 77 13 0 
SVTCA[0]	/* SetFreedomAndProjectionVectorToAxis */
MIAP[1]	/* MoveIndirectAbsPt */
MIRP[00001]	/* MoveIndirectRelPt */
MIAP[1]	/* MoveIndirectAbsPt */
MIRP[00001]	/* MoveIndirectRelPt */
SHP[0]	/* ShiftPointByLastPoint */
SVTCA[1]	/* SetFreedomAndProjectionVectorToAxis */
SDS[ ]	/* SetDeltaShiftInGState */
DELTAP1[ ]	/* DeltaExceptionP1 */
SRP1[ ]	/* SetRefPoint1 */
SRP2[ ]	/* SetRefPoint2 */
IP[ ]	/* InterpolatePts */
MDAP[1]	/* MoveDirectAbsPt */
MIRP[00001]	/* MoveIndirectRelPt */
IUP[1]	/* InterpolateUntPts */
IUP[0]	/* InterpolateUntPts */";
};
width = 248;
},
{
layerId = "0ED38B93-C2B0-4B4A-9C6D-D7838A33C317";
shapes = (
{
closed = 1;
nodes = (
(268,0,l),
(268,42,l),
(258,42,ls),
(234,42,o),
(202,50,o),
(202,94,cs),
(202,608,l),
(14,608,l),
(14,566,l),
(23,566,ls),
(46,566,o),
(80,560,o),
(80,517,cs),
(80,94,ls),
(80,50,o),
(47,42,o),
(23,42,cs),
(14,42,l),
(14,0,l)
);
}
);
userData = {
assembly = "NPUSHB[ ]	/* 23 values pushed */
208 26 1 159 26 1 16 26 64 26 2 15 5 84 25 20 24 24 23 21 12 13 0 
SVTCA[0]	/* SetFreedomAndProjectionVectorToAxis */
MIAP[1]	/* MoveIndirectAbsPt */
SHP[1]	/* ShiftPointByLastPoint */
MIAP[1]	/* MoveIndirectAbsPt */
SHP[1]	/* ShiftPointByLastPoint */
SRP1[ ]	/* SetRefPoint1 */
SHP[1]	/* ShiftPointByLastPoint */
SVTCA[1]	/* SetFreedomAndProjectionVectorToAxis */
SRP0[ ]	/* SetRefPoint0 */
MIRP[00100]	/* MoveIndirectRelPt */
SHP[0]	/* ShiftPointByLastPoint */
DELTAP1[ ]	/* DeltaExceptionP1 */
DELTAP1[ ]	/* DeltaExceptionP1 */
DELTAP1[ ]	/* DeltaExceptionP1 */
IUP[1]	/* InterpolateUntPts */
IUP[0]	/* InterpolateUntPts */";
};
width = 282;
}
);
note = uni006C;
unicode = 108;
},
{
color = 10;
glyphname = m;
lastChange = "2022-01-06 02:32:25 +0000";
layers = (
{
layerId = "4397B867-53E7-4964-BB9B-A578920F109C";
shapes = (
{
closed = 1;
nodes = (
(238,0,l),
(238,34,l),
(235,34,ls),
(199,34,o),
(170,40,o),
(170,87,cs),
(170,256,ls),
(170,326,o),
(194,386,o),
(262,386,cs),
(323,386,o),
(346,347,o),
(346,276,cs),
(346,0,l),
(486,0,l),
(486,34,l),
(483,34,ls),
(448,34,o),
(422,42,o),
(422,91,cs),
(422,266,ls),
(422,331,o),
(444,386,o),
(510,386,cs),
(571,386,o),
(594,347,o),
(594,276,cs),
(594,0,l),
(734,0,l),
(734,34,l),
(731,34,ls),
(696,34,o),
(670,42,o),
(670,91,cs),
(670,280,ls),
(670,334,o),
(657,374,o),
(634,399,cs),
(612,425,o),
(580,437,o),
(539,437,cs),
(489,437,o),
(446,424,o),
(414,364,c),
(407,364,l),
(387,417,o),
(342,437,o),
(291,437,cs),
(240,437,o),
(202,423,o),
(170,364,c),
(166,364,l),
(156,429,l),
(30,429,l),
(30,395,l),
(33,395,ls),
(68,395,o),
(94,387,o),
(94,341,cs),
(94,91,ls),
(94,42,o),
(70,34,o),
(33,34,cs),
(22,34,l),
(22,0,l)
);
}
);
userData = {
assembly = "NPUSHB[ ]	/* 68 values pushed */
30 62 71 118 70 1 71 70 87 70 103 70 3 70 70 9 50 71 42 85 89 47 89 63 89 95 89 111 89 159 89 191 89 207 89 239 89 8 19 19 82 71 9 84 88 56 80 36 16 30 19 3 76 80 25 16 16 77 17 15 68 48 3 77 70 50 2 21 
SVTCA[0]	/* SetFreedomAndProjectionVectorToAxis */
MIAP[1]	/* MoveIndirectAbsPt */
SHP[1]	/* ShiftPointByLastPoint */
SHP[1]	/* ShiftPointByLastPoint */
MIRP[00001]	/* MoveIndirectRelPt */
SHP[0]	/* ShiftPointByLastPoint */
SHP[0]	/* ShiftPointByLastPoint */
MIAP[1]	/* MoveIndirectAbsPt */
MIRP[00001]	/* MoveIndirectRelPt */
MIAP[1]	/* MoveIndirectAbsPt */
MIRP[00001]	/* MoveIndirectRelPt */
SRP2[ ]	/* SetRefPoint2 */
IP[ ]	/* InterpolatePts */
IP[ ]	/* InterpolatePts */
MIAP[1]	/* MoveIndirectAbsPt */
MIRP[00001]	/* MoveIndirectRelPt */
SVTCA[1]	/* SetFreedomAndProjectionVectorToAxis */
SRP0[ ]	/* SetRefPoint0 */
MIRP[10100]	/* MoveIndirectRelPt */
MIRP[10001]	/* MoveIndirectRelPt */
MDRP[00001]	/* MoveDirectRelPt */
MDAP[1]	/* MoveDirectAbsPt */
DELTAP1[ ]	/* DeltaExceptionP1 */
SRP0[ ]	/* SetRefPoint0 */
MIRP[10100]	/* MoveIndirectRelPt */
MIRP[00001]	/* MoveIndirectRelPt */
SRP2[ ]	/* SetRefPoint2 */
IP[ ]	/* InterpolatePts */
MDAP[1]	/* MoveDirectAbsPt */
DELTAP1[ ]	/* DeltaExceptionP1 */
DELTAP1[ ]	/* DeltaExceptionP1 */
MIRP[00001]	/* MoveIndirectRelPt */
IP[ ]	/* InterpolatePts */
IUP[1]	/* InterpolateUntPts */
IUP[0]	/* InterpolateUntPts */";
};
width = 756;
},
{
layerId = "0ED38B93-C2B0-4B4A-9C6D-D7838A33C317";
shapes = (
{
closed = 1;
nodes = (
(262,0,l),
(262,42,l),
(259,42,ls),
(225,42,o),
(202,50,o),
(202,94,cs),
(202,247,ls),
(202,312,o),
(218,371,o),
(271,371,cs),
(325,371,o),
(335,318,o),
(335,263,cs),
(335,0,l),
(513,0,l),
(513,42,l),
(510,42,ls),
(474,42,o),
(457,50,o),
(457,99,cs),
(457,257,ls),
(457,318,o),
(477,371,o),
(526,371,cs),
(574,371,o),
(590,332,o),
(590,263,cs),
(590,0,l),
(768,0,l),
(768,42,l),
(766,42,ls),
(730,42,o),
(712,50,o),
(712,99,cs),
(712,285,ls),
(712,339,o),
(700,378,o),
(677,402,cs),
(654,427,o),
(622,439,o),
(580,439,cs),
(530,439,o),
(486,433,o),
(453,372,c),
(446,372,l),
(426,419,o),
(383,439,o),
(325,439,cs),
(274,439,o),
(234,432,o),
(202,372,c),
(198,372,l),
(188,429,l),
(20,429,l),
(20,389,l),
(22,389,ls),
(58,389,o),
(80,382,o),
(80,337,cs),
(80,98,ls),
(80,50,o),
(54,42,o),
(18,42,cs),
(16,42,l),
(16,0,l)
);
}
);
userData = {
assembly = "NPUSHB[ ]	/* 78 values pushed */
11 39 75 39 2 7 73 1 7 9 1 5 55 21 55 37 55 3 46 76 7 76 1 76 0 0 66 27 66 58 85 85 16 85 32 85 64 85 128 85 144 85 176 85 208 85 7 37 12 12 27 84 84 47 38 6 38 1 38 70 6 6 52 43 16 33 35 15 63 21 17 82 20 66 82 3 0 21 
SVTCA[0]	/* SetFreedomAndProjectionVectorToAxis */
MIAP[1]	/* MoveIndirectAbsPt */
SLOOP[ ]	/* SetLoopVariable */
SHP[0]	/* ShiftPointByLastPoint */
SRP1[ ]	/* SetRefPoint1 */
SHP[1]	/* ShiftPointByLastPoint */
SHP[1]	/* ShiftPointByLastPoint */
SHP[1]	/* ShiftPointByLastPoint */
MIAP[1]	/* MoveIndirectAbsPt */
SHP[1]	/* ShiftPointByLastPoint */
MIAP[1]	/* MoveIndirectAbsPt */
SHP[1]	/* ShiftPointByLastPoint */
SHP[1]	/* ShiftPointByLastPoint */
SRP1[ ]	/* SetRefPoint1 */
SHP[1]	/* ShiftPointByLastPoint */
SHP[1]	/* ShiftPointByLastPoint */
DELTAP1[ ]	/* DeltaExceptionP1 */
SRP1[ ]	/* SetRefPoint1 */
SHP[1]	/* ShiftPointByLastPoint */
SVTCA[1]	/* SetFreedomAndProjectionVectorToAxis */
SRP0[ ]	/* SetRefPoint0 */
MIRP[00100]	/* MoveIndirectRelPt */
SHP[0]	/* ShiftPointByLastPoint */
SRP1[ ]	/* SetRefPoint1 */
SHP[1]	/* ShiftPointByLastPoint */
DELTAP1[ ]	/* DeltaExceptionP1 */
SRP0[ ]	/* SetRefPoint0 */
MIRP[00100]	/* MoveIndirectRelPt */
SHP[0]	/* ShiftPointByLastPoint */
SRP1[ ]	/* SetRefPoint1 */
SRP2[ ]	/* SetRefPoint2 */
IP[ ]	/* InterpolatePts */
MDAP[1]	/* MoveDirectAbsPt */
SHP[1]	/* ShiftPointByLastPoint */
DELTAP1[ ]	/* DeltaExceptionP1 */
SRP1[ ]	/* SetRefPoint1 */
SHP[1]	/* ShiftPointByLastPoint */
IUP[1]	/* InterpolateUntPts */
IUP[0]	/* InterpolateUntPts */
DELTAP1[ ]	/* DeltaExceptionP1 */
DELTAP1[ ]	/* DeltaExceptionP1 */
DELTAP1[ ]	/* DeltaExceptionP1 */
DELTAP1[ ]	/* DeltaExceptionP1 */";
};
width = 789;
}
);
note = uni006D;
unicode = 109;
},
{
color = 10;
glyphname = n;
lastChange = "2022-01-06 02:32:25 +0000";
layers = (
{
layerId = "4397B867-53E7-4964-BB9B-A578920F109C";
shapes = (
{
closed = 1;
nodes = (
(238,0,l),
(238,34,l),
(235,34,ls),
(199,34,o),
(170,40,o),
(170,87,cs),
(170,256,ls),
(170,326,o),
(194,386,o),
(266,386,cs),
(330,386,o),
(354,347,o),
(354,276,cs),
(354,0,l),
(494,0,l),
(494,34,l),
(491,34,ls),
(455,34,o),
(430,41,o),
(430,91,cs),
(430,280,ls),
(430,334,o),
(417,374,o),
(394,399,cs),
(370,425,o),
(338,437,o),
(295,437,cs),
(243,437,o),
(204,423,o),
(170,364,c),
(166,364,l),
(156,429,l),
(26,429,l),
(26,395,l),
(29,395,ls),
(64,395,o),
(94,387,o),
(94,341,cs),
(94,91,ls),
(94,41,o),
(65,34,o),
(29,34,cs),
(22,34,l),
(22,0,l)
);
}
);
userData = {
assembly = "NPUSHB[ ]	/* 30 values pushed */
39 71 31 85 58 127 58 1 19 51 71 9 84 57 20 45 80 25 16 16 77 17 15 37 0 3 77 39 2 21 
SVTCA[0]	/* SetFreedomAndProjectionVectorToAxis */
MIAP[1]	/* MoveIndirectAbsPt */
SHP[1]	/* ShiftPointByLastPoint */
MIRP[00001]	/* MoveIndirectRelPt */
SHP[0]	/* ShiftPointByLastPoint */
SHP[0]	/* ShiftPointByLastPoint */
MIAP[1]	/* MoveIndirectAbsPt */
MIRP[00001]	/* MoveIndirectRelPt */
MIAP[1]	/* MoveIndirectAbsPt */
MIRP[00001]	/* MoveIndirectRelPt */
SHP[0]	/* ShiftPointByLastPoint */
SVTCA[1]	/* SetFreedomAndProjectionVectorToAxis */
SRP0[ ]	/* SetRefPoint0 */
MIRP[10100]	/* MoveIndirectRelPt */
MIRP[00001]	/* MoveIndirectRelPt */
SHP[0]	/* ShiftPointByLastPoint */
DELTAP1[ ]	/* DeltaExceptionP1 */
SRP0[ ]	/* SetRefPoint0 */
MIRP[10100]	/* MoveIndirectRelPt */
MIRP[00001]	/* MoveIndirectRelPt */
IUP[1]	/* InterpolateUntPts */
IUP[0]	/* InterpolateUntPts */";
};
width = 516;
},
{
layerId = "0ED38B93-C2B0-4B4A-9C6D-D7838A33C317";
shapes = (
{
closed = 1;
nodes = (
(262,0,l),
(262,42,l),
(259,42,ls),
(225,42,o),
(202,50,o),
(202,94,cs),
(202,247,ls),
(202,312,o),
(218,371,o),
(271,371,cs),
(325,371,o),
(335,318,o),
(335,263,cs),
(335,0,l),
(513,0,l),
(513,42,l),
(510,42,ls),
(474,42,o),
(457,50,o),
(457,99,cs),
(457,285,ls),
(457,339,o),
(444,378,o),
(422,402,cs),
(399,427,o),
(366,439,o),
(325,439,cs),
(274,439,o),
(234,432,o),
(202,372,c),
(198,372,l),
(188,429,l),
(20,429,l),
(20,386,l),
(22,386,ls),
(58,386,o),
(80,379,o),
(80,334,cs),
(80,98,ls),
(80,50,o),
(54,42,o),
(18,42,cs),
(16,42,l),
(16,0,l)
);
}
);
userData = {
assembly = "NPUSHB[ ]	/* 49 values pushed */
9 39 73 39 2 7 9 1 5 46 21 46 37 46 3 0 49 85 58 16 58 64 58 2 37 12 12 27 84 57 6 37 1 37 6 6 43 16 33 35 15 55 18 21 21 20 20 0 21 
SVTCA[0]	/* SetFreedomAndProjectionVectorToAxis */
MIAP[1]	/* MoveIndirectAbsPt */
SHP[0]	/* ShiftPointByLastPoint */
SRP1[ ]	/* SetRefPoint1 */
SHP[1]	/* ShiftPointByLastPoint */
SRP1[ ]	/* SetRefPoint1 */
SHP[1]	/* ShiftPointByLastPoint */
SHP[1]	/* ShiftPointByLastPoint */
MIAP[1]	/* MoveIndirectAbsPt */
SHP[1]	/* ShiftPointByLastPoint */
MIAP[1]	/* MoveIndirectAbsPt */
SHP[1]	/* ShiftPointByLastPoint */
SRP1[ ]	/* SetRefPoint1 */
SHP[1]	/* ShiftPointByLastPoint */
DELTAP1[ ]	/* DeltaExceptionP1 */
SVTCA[1]	/* SetFreedomAndProjectionVectorToAxis */
SRP0[ ]	/* SetRefPoint0 */
MIRP[00100]	/* MoveIndirectRelPt */
SHP[0]	/* ShiftPointByLastPoint */
SRP1[ ]	/* SetRefPoint1 */
SHP[1]	/* ShiftPointByLastPoint */
DELTAP1[ ]	/* DeltaExceptionP1 */
SRP0[ ]	/* SetRefPoint0 */
MIRP[00100]	/* MoveIndirectRelPt */
SHP[0]	/* ShiftPointByLastPoint */
IUP[1]	/* InterpolateUntPts */
IUP[0]	/* InterpolateUntPts */
DELTAP1[ ]	/* DeltaExceptionP1 */
DELTAP1[ ]	/* DeltaExceptionP1 */
DELTAP1[ ]	/* DeltaExceptionP1 */";
};
width = 534;
}
);
note = uni006E;
unicode = 110;
},
{
color = 10;
glyphname = o;
lastChange = "2022-01-06 02:32:25 +0000";
layers = (
{
layerId = "4397B867-53E7-4964-BB9B-A578920F109C";
shapes = (
{
closed = 1;
nodes = (
(353,-8,o),
(418,65,o),
(418,215,cs),
(418,290,o),
(400,346,o),
(368,382,cs),
(336,419,o),
(290,437,o),
(232,437,cs),
(108,437,o),
(44,365,o),
(44,215,cs),
(44,140,o),
(62,84,o),
(94,47,cs),
(126,10,o),
(172,-8,o),
(230,-8,cs)
);
},
{
closed = 1;
nodes = (
(150,34,o),
(122,98,o),
(122,215,cs),
(122,272,o),
(128,315,o),
(144,346,cs),
(161,378,o),
(189,394,o),
(230,394,cs),
(270,394,o),
(298,379,o),
(315,350,cs),
(333,319,o),
(340,274,o),
(340,215,cs),
(340,156,o),
(333,110,o),
(316,80,cs),
(298,50,o),
(271,34,o),
(231,34,cs)
);
}
);
userData = {
assembly = "NPUSHB[ ]	/* 32 values pushed */
26 72 0 87 37 239 37 1 207 37 1 64 37 1 15 37 47 37 2 16 72 8 86 36 31 78 11 16 21 78 3 22 
SVTCA[0]	/* SetFreedomAndProjectionVectorToAxis */
MIAP[1]	/* MoveIndirectAbsPt */
MIRP[00001]	/* MoveIndirectRelPt */
MIAP[1]	/* MoveIndirectAbsPt */
MIRP[00001]	/* MoveIndirectRelPt */
SVTCA[1]	/* SetFreedomAndProjectionVectorToAxis */
SRP0[ ]	/* SetRefPoint0 */
MIRP[10110]	/* MoveIndirectRelPt */
MIRP[00001]	/* MoveIndirectRelPt */
DELTAP1[ ]	/* DeltaExceptionP1 */
DELTAP1[ ]	/* DeltaExceptionP1 */
DELTAP1[ ]	/* DeltaExceptionP1 */
DELTAP1[ ]	/* DeltaExceptionP1 */
SRP0[ ]	/* SetRefPoint0 */
MIRP[10110]	/* MoveIndirectRelPt */
MIRP[00001]	/* MoveIndirectRelPt */
IUP[1]	/* InterpolateUntPts */
IUP[0]	/* InterpolateUntPts */";
};
width = 462;
},
{
layerId = "0ED38B93-C2B0-4B4A-9C6D-D7838A33C317";
shapes = (
{
closed = 1;
nodes = (
(381,-8,o),
(453,66,o),
(453,216,cs),
(453,291,o),
(433,347,o),
(398,384,cs),
(362,421,o),
(310,439,o),
(246,439,cs),
(109,439,o),
(38,366,o),
(38,216,cs),
(38,141,o),
(58,85,o),
(93,47,cs),
(129,10,o),
(180,-8,o),
(244,-8,cs)
);
},
{
closed = 1;
nodes = (
(184,42,o),
(162,102,o),
(162,216,cs),
(162,274,o),
(167,316,o),
(180,345,cs),
(193,374,o),
(214,388,o),
(245,388,cs),
(275,388,o),
(297,374,o),
(310,345,cs),
(323,317,o),
(329,274,o),
(329,216,cs),
(329,159,o),
(324,116,o),
(310,86,cs),
(297,58,o),
(277,42,o),
(246,42,cs)
);
}
);
userData = {
assembly = "NPUSHB[ ]	/* 19 values pushed */
26 0 87 37 63 37 223 37 2 16 8 86 36 31 11 16 21 3 22 
SVTCA[0]	/* SetFreedomAndProjectionVectorToAxis */
MIAP[1]	/* MoveIndirectAbsPt */
SHP[1]	/* ShiftPointByLastPoint */
MIAP[1]	/* MoveIndirectAbsPt */
SHP[1]	/* ShiftPointByLastPoint */
SVTCA[1]	/* SetFreedomAndProjectionVectorToAxis */
SRP0[ ]	/* SetRefPoint0 */
MIRP[00110]	/* MoveIndirectRelPt */
SHP[0]	/* ShiftPointByLastPoint */
DELTAP1[ ]	/* DeltaExceptionP1 */
SRP0[ ]	/* SetRefPoint0 */
MIRP[00110]	/* MoveIndirectRelPt */
SHP[0]	/* ShiftPointByLastPoint */
IUP[1]	/* InterpolateUntPts */
IUP[0]	/* InterpolateUntPts */";
};
width = 490;
}
);
note = uni006F;
unicode = 111;
},
{
color = 10;
glyphname = p;
lastChange = "2022-01-06 02:32:25 +0000";
layers = (
{
layerId = "4397B867-53E7-4964-BB9B-A578920F109C";
shapes = (
{
closed = 1;
nodes = (
(230,-192,l),
(230,-158,l),
(227,-158,ls),
(192,-158,o),
(162,-152,o),
(162,-105,cs),
(162,-28,ls),
(162,-21,o),
(162,-3,o),
(160,24,cs),
(158,62,l),
(162,62,l),
(185,20,o),
(223,-8,o),
(284,-8,cs),
(337,-8,o),
(378,10,o),
(406,46,cs),
(433,83,o),
(447,138,o),
(447,215,cs),
(447,292,o),
(433,347,o),
(405,383,cs),
(378,419,o),
(337,437,o),
(284,437,cs),
(221,437,o),
(186,406,o),
(162,357,c),
(158,357,l),
(150,429,l),
(10,429,l),
(10,395,l),
(21,395,ls),
(56,395,o),
(86,387,o),
(86,341,cs),
(86,-101,ls),
(86,-150,o),
(57,-158,o),
(21,-158,cs),
(14,-158,l),
(14,-192,l)
);
},
{
closed = 1;
nodes = (
(229,43,o),
(202,58,o),
(185,87,cs),
(168,117,o),
(162,159,o),
(162,215,cs),
(162,266,o),
(166,306,o),
(179,334,cs),
(196,369,o),
(224,386,o),
(270,386,cs),
(306,386,o),
(330,371,o),
(346,343,cs),
(362,315,o),
(370,273,o),
(370,216,cs),
(370,160,o),
(362,117,o),
(346,87,cs),
(330,58,o),
(306,43,o),
(271,43,cs)
);
}
);
userData = {
assembly = "NPUSHB[ ]	/* 40 values pushed */
15 72 20 87 76 239 76 1 80 76 1 63 76 1 64 5 39 71 54 84 75 65 0 80 70 16 61 77 62 15 48 45 77 46 27 30 10 80 25 22 
SVTCA[0]	/* SetFreedomAndProjectionVectorToAxis */
MIAP[1]	/* MoveIndirectAbsPt */
MIRP[00001]	/* MoveIndirectRelPt */
SHP[0]	/* ShiftPointByLastPoint */
MIAP[1]	/* MoveIndirectAbsPt */
MIRP[00001]	/* MoveIndirectRelPt */
SHP[0]	/* ShiftPointByLastPoint */
MIAP[1]	/* MoveIndirectAbsPt */
MIRP[00001]	/* MoveIndirectRelPt */
MIAP[1]	/* MoveIndirectAbsPt */
MIRP[00001]	/* MoveIndirectRelPt */
SHP[0]	/* ShiftPointByLastPoint */
SVTCA[1]	/* SetFreedomAndProjectionVectorToAxis */
SRP0[ ]	/* SetRefPoint0 */
MIRP[10110]	/* MoveIndirectRelPt */
MIRP[00001]	/* MoveIndirectRelPt */
SHP[0]	/* ShiftPointByLastPoint */
SHP[0]	/* ShiftPointByLastPoint */
DELTAP1[ ]	/* DeltaExceptionP1 */
DELTAP1[ ]	/* DeltaExceptionP1 */
DELTAP1[ ]	/* DeltaExceptionP1 */
SRP0[ ]	/* SetRefPoint0 */
MIRP[10110]	/* MoveIndirectRelPt */
MIRP[00001]	/* MoveIndirectRelPt */
IUP[1]	/* InterpolateUntPts */
IUP[0]	/* InterpolateUntPts */";
};
width = 491;
},
{
layerId = "0ED38B93-C2B0-4B4A-9C6D-D7838A33C317";
shapes = (
{
closed = 1;
nodes = (
(273,-192,l),
(273,-150,l),
(255,-150,ls),
(231,-150,o),
(198,-142,o),
(198,-98,cs),
(198,-42,ls),
(198,-26,o),
(197,-2,o),
(195,18,cs),
(192,54,l),
(198,54,l),
(221,15,o),
(257,-10,o),
(318,-10,cs),
(370,-10,o),
(410,7,o),
(437,44,cs),
(464,80,o),
(478,136,o),
(478,213,cs),
(478,290,o),
(464,346,o),
(436,383,cs),
(409,420,o),
(367,437,o),
(314,437,cs),
(254,437,o),
(215,409,o),
(192,366,c),
(189,366,l),
(174,429,l),
(18,429,l),
(18,386,l),
(23,386,ls),
(54,386,o),
(77,378,o),
(77,330,cs),
(77,-98,ls),
(77,-142,o),
(44,-150,o),
(20,-150,cs),
(10,-150,l),
(10,-192,l)
);
},
{
closed = 1;
nodes = (
(248,50,o),
(228,62,o),
(216,90,cs),
(203,117,o),
(198,158,o),
(198,213,cs),
(198,266,o),
(203,306,o),
(216,334,cs),
(228,362,o),
(249,377,o),
(281,377,cs),
(307,377,o),
(326,362,o),
(338,334,cs),
(350,306,o),
(355,266,o),
(355,212,cs),
(355,158,o),
(350,117,o),
(338,90,cs),
(326,63,o),
(307,50,o),
(280,50,cs)
);
}
);
userData = {
assembly = "NPUSHB[ ]	/* 44 values pushed */
5 28 21 28 2 5 24 21 24 2 54 26 87 68 127 68 175 68 2 62 15 41 41 5 84 67 46 50 50 49 27 34 51 51 31 22 16 57 57 21 16 12 13 15 
SVTCA[0]	/* SetFreedomAndProjectionVectorToAxis */
MIAP[1]	/* MoveIndirectAbsPt */
SHP[1]	/* ShiftPointByLastPoint */
MIAP[1]	/* MoveIndirectAbsPt */
SHP[1]	/* ShiftPointByLastPoint */
SRP1[ ]	/* SetRefPoint1 */
SHP[1]	/* ShiftPointByLastPoint */
MIAP[1]	/* MoveIndirectAbsPt */
SHP[1]	/* ShiftPointByLastPoint */
SRP1[ ]	/* SetRefPoint1 */
SHP[1]	/* ShiftPointByLastPoint */
MIAP[1]	/* MoveIndirectAbsPt */
SHP[1]	/* ShiftPointByLastPoint */
SRP1[ ]	/* SetRefPoint1 */
SHP[1]	/* ShiftPointByLastPoint */
SVTCA[1]	/* SetFreedomAndProjectionVectorToAxis */
SRP0[ ]	/* SetRefPoint0 */
MIRP[00110]	/* MoveIndirectRelPt */
SHP[0]	/* ShiftPointByLastPoint */
SRP1[ ]	/* SetRefPoint1 */
SHP[1]	/* ShiftPointByLastPoint */
SHP[1]	/* ShiftPointByLastPoint */
DELTAP1[ ]	/* DeltaExceptionP1 */
SRP0[ ]	/* SetRefPoint0 */
MIRP[00110]	/* MoveIndirectRelPt */
SHP[0]	/* ShiftPointByLastPoint */
IUP[1]	/* InterpolateUntPts */
IUP[0]	/* InterpolateUntPts */
DELTAP1[ ]	/* DeltaExceptionP1 */
DELTAP1[ ]	/* DeltaExceptionP1 */";
};
width = 516;
}
);
note = uni0070;
unicode = 112;
},
{
color = 10;
glyphname = q;
lastChange = "2022-01-06 02:32:25 +0000";
layers = (
{
layerId = "4397B867-53E7-4964-BB9B-A578920F109C";
shapes = (
{
closed = 1;
nodes = (
(477,-192,l),
(477,-158,l),
(470,-158,ls),
(435,-158,o),
(405,-150,o),
(405,-104,cs),
(405,338,ls),
(405,388,o),
(434,395,o),
(470,395,cs),
(477,395,l),
(477,429,l),
(349,429,l),
(334,366,l),
(330,366,l),
(308,406,o),
(271,437,o),
(207,437,cs),
(102,437,o),
(44,369,o),
(44,214,cs),
(44,61,o),
(102,-8,o),
(207,-8,cs),
(269,-8,o),
(306,23,o),
(330,72,c),
(333,72,l),
(331,34,ls),
(330,12,o),
(330,-14,o),
(330,-32,cs),
(330,-101,ls),
(330,-150,o),
(301,-158,o),
(264,-158,cs),
(238,-158,l),
(238,-192,l)
);
},
{
closed = 1;
nodes = (
(182,43,o),
(155,60,o),
(140,94,cs),
(127,122,o),
(122,162,o),
(122,213,cs),
(122,269,o),
(129,312,o),
(144,341,cs),
(160,370,o),
(185,386,o),
(220,386,cs),
(265,386,o),
(293,368,o),
(309,336,cs),
(324,307,o),
(330,266,o),
(330,214,cs),
(330,156,o),
(323,114,o),
(306,85,cs),
(290,57,o),
(262,43,o),
(221,43,cs)
);
}
);
userData = {
assembly = "NPUSHB[ ]	/* 41 values pushed */
58 36 8 71 46 85 72 239 72 1 80 72 1 63 72 1 68 72 25 86 71 39 77 37 15 35 14 20 63 80 30 16 53 80 20 22 51 2 77 1 27 
SVTCA[0]	/* SetFreedomAndProjectionVectorToAxis */
MIAP[1]	/* MoveIndirectAbsPt */
MIRP[00001]	/* MoveIndirectRelPt */
SHP[0]	/* ShiftPointByLastPoint */
MIAP[1]	/* MoveIndirectAbsPt */
MIRP[00001]	/* MoveIndirectRelPt */
MIAP[1]	/* MoveIndirectAbsPt */
MIRP[00001]	/* MoveIndirectRelPt */
SRP2[ ]	/* SetRefPoint2 */
IP[ ]	/* InterpolatePts */
IP[ ]	/* InterpolatePts */
MIAP[1]	/* MoveIndirectAbsPt */
MIRP[00001]	/* MoveIndirectRelPt */
SVTCA[1]	/* SetFreedomAndProjectionVectorToAxis */
SRP0[ ]	/* SetRefPoint0 */
MIRP[10110]	/* MoveIndirectRelPt */
MIRP[00001]	/* MoveIndirectRelPt */
DELTAP1[ ]	/* DeltaExceptionP1 */
DELTAP1[ ]	/* DeltaExceptionP1 */
DELTAP1[ ]	/* DeltaExceptionP1 */
SRP0[ ]	/* SetRefPoint0 */
MIRP[10110]	/* MoveIndirectRelPt */
MIRP[00001]	/* MoveIndirectRelPt */
SHP[0]	/* ShiftPointByLastPoint */
SHP[0]	/* ShiftPointByLastPoint */
IUP[1]	/* InterpolateUntPts */
IUP[0]	/* InterpolateUntPts */";
};
width = 491;
},
{
layerId = "0ED38B93-C2B0-4B4A-9C6D-D7838A33C317";
shapes = (
{
closed = 1;
nodes = (
(518,-192,l),
(518,-150,l),
(503,-150,ls),
(467,-150,o),
(438,-144,o),
(438,-100,cs),
(438,330,ls),
(438,378,o),
(469,386,o),
(505,386,cs),
(508,386,l),
(508,429,l),
(346,429,l),
(330,366,l),
(323,366,l),
(299,410,o),
(262,437,o),
(200,437,cs),
(95,437,o),
(37,369,o),
(37,215,cs),
(37,60,o),
(95,-8,o),
(198,-8,cs),
(257,-8,o),
(295,19,o),
(318,56,c),
(323,56,l),
(320,14,ls),
(318,-13,o),
(317,-26,o),
(317,-42,cs),
(317,-100,ls),
(317,-144,o),
(288,-150,o),
(252,-150,cs),
(238,-150,l),
(238,-192,l)
);
},
{
closed = 1;
nodes = (
(207,51,o),
(189,65,o),
(177,93,cs),
(166,121,o),
(160,161,o),
(160,214,cs),
(160,269,o),
(166,310,o),
(177,337,cs),
(189,363,o),
(207,377,o),
(234,377,cs),
(266,377,o),
(286,364,o),
(299,337,cs),
(312,310,o),
(317,269,o),
(317,214,cs),
(317,161,o),
(312,120,o),
(299,93,cs),
(286,66,o),
(266,51,o),
(234,51,cs)
);
}
);
userData = {
assembly = "NPUSHB[ ]	/* 47 values pushed */
10 28 26 28 2 10 24 26 24 2 66 37 7 7 47 85 72 240 72 1 127 72 175 72 2 58 26 86 71 40 38 15 36 55 55 31 16 15 61 61 21 22 52 1 1 0 27 
SVTCA[0]	/* SetFreedomAndProjectionVectorToAxis */
MIAP[1]	/* MoveIndirectAbsPt */
SHP[0]	/* ShiftPointByLastPoint */
SRP1[ ]	/* SetRefPoint1 */
SHP[1]	/* ShiftPointByLastPoint */
MIAP[1]	/* MoveIndirectAbsPt */
SHP[1]	/* ShiftPointByLastPoint */
SRP1[ ]	/* SetRefPoint1 */
SHP[1]	/* ShiftPointByLastPoint */
MIAP[1]	/* MoveIndirectAbsPt */
SHP[1]	/* ShiftPointByLastPoint */
SRP1[ ]	/* SetRefPoint1 */
SHP[1]	/* ShiftPointByLastPoint */
MIAP[1]	/* MoveIndirectAbsPt */
SHP[1]	/* ShiftPointByLastPoint */
SVTCA[1]	/* SetFreedomAndProjectionVectorToAxis */
SRP0[ ]	/* SetRefPoint0 */
MIRP[00110]	/* MoveIndirectRelPt */
SHP[0]	/* ShiftPointByLastPoint */
DELTAP1[ ]	/* DeltaExceptionP1 */
DELTAP1[ ]	/* DeltaExceptionP1 */
SRP0[ ]	/* SetRefPoint0 */
MIRP[00110]	/* MoveIndirectRelPt */
SHP[0]	/* ShiftPointByLastPoint */
SRP1[ ]	/* SetRefPoint1 */
SHP[1]	/* ShiftPointByLastPoint */
SHP[1]	/* ShiftPointByLastPoint */
IUP[1]	/* InterpolateUntPts */
IUP[0]	/* InterpolateUntPts */
DELTAP1[ ]	/* DeltaExceptionP1 */
DELTAP1[ ]	/* DeltaExceptionP1 */";
};
width = 518;
}
);
note = uni0071;
unicode = 113;
},
{
color = 10;
glyphname = r;
lastChange = "2022-01-06 02:32:25 +0000";
layers = (
{
layerId = "4397B867-53E7-4964-BB9B-A578920F109C";
shapes = (
{
closed = 1;
nodes = (
(258,0,l),
(258,34,l),
(235,34,ls),
(199,34,o),
(170,40,o),
(170,87,cs),
(170,213,ls),
(170,244,o),
(174,285,o),
(186,322,cs),
(198,358,o),
(219,384,o),
(248,384,cs),
(279,384,o),
(290,366,o),
(290,322,c),
(344,322,o),
(365,345,o),
(365,378,cs),
(365,415,o),
(337,437,o),
(278,437,cs),
(208,437,o),
(190,398,o),
(169,350,c),
(165,350,l),
(150,429,l),
(26,429,l),
(26,395,l),
(29,395,ls),
(64,395,o),
(94,387,o),
(94,341,cs),
(94,91,ls),
(94,41,o),
(65,34,o),
(29,34,cs),
(26,34,l),
(26,0,l)
);
}
);
userData = {
assembly = "NPUSHB[ ]	/* 32 values pushed */
80 27 1 27 51 16 51 48 51 2 18 43 71 8 84 50 18 2 35 80 32 24 16 14 77 16 15 49 2 77 1 21 
SVTCA[0]	/* SetFreedomAndProjectionVectorToAxis */
MIAP[1]	/* MoveIndirectAbsPt */
MIRP[00001]	/* MoveIndirectRelPt */
SHP[0]	/* ShiftPointByLastPoint */
MIAP[1]	/* MoveIndirectAbsPt */
MIRP[00001]	/* MoveIndirectRelPt */
MIAP[1]	/* MoveIndirectAbsPt */
MDRP[00100]	/* MoveDirectRelPt */
MIRP[00001]	/* MoveIndirectRelPt */
SRP2[ ]	/* SetRefPoint2 */
IP[ ]	/* InterpolatePts */
SVTCA[1]	/* SetFreedomAndProjectionVectorToAxis */
SRP0[ ]	/* SetRefPoint0 */
MIRP[10100]	/* MoveIndirectRelPt */
MIRP[00001]	/* MoveIndirectRelPt */
SHP[0]	/* ShiftPointByLastPoint */
DELTAP1[ ]	/* DeltaExceptionP1 */
SRP0[ ]	/* SetRefPoint0 */
MDRP[00110]	/* MoveDirectRelPt */
DELTAP1[ ]	/* DeltaExceptionP1 */
IUP[1]	/* InterpolateUntPts */
IUP[0]	/* InterpolateUntPts */";
};
width = 377;
},
{
layerId = "0ED38B93-C2B0-4B4A-9C6D-D7838A33C317";
shapes = (
{
closed = 1;
nodes = (
(283,0,l),
(283,42,l),
(258,42,ls),
(226,42,o),
(202,49,o),
(202,96,cs),
(202,234,ls),
(202,254,o),
(203,282,o),
(213,312,cs),
(222,341,o),
(238,362,o),
(266,362,cs),
(297,362,o),
(305,339,o),
(305,296,c),
(370,296,o),
(406,325,o),
(406,374,cs),
(406,416,o),
(378,438,o),
(314,438,cs),
(249,438,o),
(222,414,o),
(202,366,c),
(198,366,l),
(182,429,l),
(20,429,l),
(20,386,l),
(22,386,ls),
(58,386,o),
(80,379,o),
(80,332,cs),
(80,100,ls),
(80,50,o),
(55,42,o),
(18,42,cs),
(16,42,l),
(16,0,l)
);
}
);
userData = {
assembly = "NPUSHB[ ]	/* 28 values pushed */
21 16 11 14 72 30 0 27 16 27 96 27 128 27 4 27 27 51 240 51 1 18 43 43 8 84 50 18 
PUSHW[ ]	/* 1 value pushed */
-32 
NPUSHB[ ]	/* 22 values pushed */
11 20 72 6 18 22 18 2 18 35 35 30 24 16 15 16 15 2 48 48 1 21 
SVTCA[0]	/* SetFreedomAndProjectionVectorToAxis */
MIAP[1]	/* MoveIndirectAbsPt */
SHP[1]	/* ShiftPointByLastPoint */
SRP1[ ]	/* SetRefPoint1 */
SHP[1]	/* ShiftPointByLastPoint */
MIAP[1]	/* MoveIndirectAbsPt */
SHP[1]	/* ShiftPointByLastPoint */
MIAP[1]	/* MoveIndirectAbsPt */
SHP[1]	/* ShiftPointByLastPoint */
SHP[1]	/* ShiftPointByLastPoint */
SRP1[ ]	/* SetRefPoint1 */
SHP[1]	/* ShiftPointByLastPoint */
DELTAP1[ ]	/* DeltaExceptionP1 */
CALL[ ]	/* CallFunction */
SVTCA[1]	/* SetFreedomAndProjectionVectorToAxis */
SRP0[ ]	/* SetRefPoint0 */
MIRP[00100]	/* MoveIndirectRelPt */
SHP[0]	/* ShiftPointByLastPoint */
SRP1[ ]	/* SetRefPoint1 */
SHP[1]	/* ShiftPointByLastPoint */
DELTAP1[ ]	/* DeltaExceptionP1 */
SRP1[ ]	/* SetRefPoint1 */
SHP[1]	/* ShiftPointByLastPoint */
MDAP[1]	/* MoveDirectAbsPt */
DELTAP1[ ]	/* DeltaExceptionP1 */
SHP[1]	/* ShiftPointByLastPoint */
IUP[1]	/* InterpolateUntPts */
IUP[0]	/* InterpolateUntPts */
CALL[ ]	/* CallFunction */";
};
width = 418;
}
);
note = uni0072;
unicode = 114;
},
{
color = 10;
glyphname = s;
lastChange = "2022-01-06 02:32:25 +0000";
layers = (
{
layerId = "4397B867-53E7-4964-BB9B-A578920F109C";
shapes = (
{
closed = 1;
nodes = (
(216,-8,o),
(257,3,o),
(284,26,cs),
(310,46,o),
(326,77,o),
(326,118,cs),
(326,151,o),
(317,176,o),
(297,196,cs),
(278,217,o),
(248,233,o),
(206,250,cs),
(163,268,o),
(136,280,o),
(121,295,cs),
(111,306,o),
(106,318,o),
(106,335,cs),
(106,374,o),
(129,399,o),
(182,399,cs),
(230,399,o),
(251,368,o),
(251,314,c),
(288,314,o),
(309,334,o),
(309,362,cs),
(309,382,o),
(299,401,o),
(279,414,cs),
(259,427,o),
(230,436,o),
(192,436,cs),
(147,436,o),
(110,426,o),
(83,407,cs),
(56,388,o),
(42,359,o),
(42,323,cs),
(42,289,o),
(51,265,o),
(70,246,cs),
(90,225,o),
(121,209,o),
(162,190,cs),
(200,174,o),
(225,162,o),
(239,150,cs),
(255,138,o),
(261,124,o),
(261,103,cs),
(261,60,o),
(230,30,o),
(173,30,cs),
(108,30,o),
(86,76,o),
(86,132,c),
(66,132,o),
(36,118,o),
(36,77,cs),
(36,49,o),
(49,28,o),
(72,14,cs),
(94,-1,o),
(128,-8,o),
(168,-8,cs)
);
}
);
userData = {
assembly = "NPUSHB[ ]	/* 61 values pushed */
43 253 40 1 231 40 1 40 20 71 61 87 67 15 67 47 67 207 67 239 67 4 51 71 30 10 5 86 66 20 51 15 46 77 116 43 1 102 43 1 28 43 1 5 43 1 43 35 16 15 100 10 1 3 10 19 10 2 10 0 22 
SVTCA[0]	/* SetFreedomAndProjectionVectorToAxis */
MIAP[1]	/* MoveIndirectAbsPt */
MDRP[00100]	/* MoveDirectRelPt */
DELTAP1[ ]	/* DeltaExceptionP1 */
DELTAP1[ ]	/* DeltaExceptionP1 */
MDRP[00001]	/* MoveDirectRelPt */
MIAP[1]	/* MoveIndirectAbsPt */
MDRP[00100]	/* MoveDirectRelPt */
DELTAP1[ ]	/* DeltaExceptionP1 */
DELTAP1[ ]	/* DeltaExceptionP1 */
DELTAP1[ ]	/* DeltaExceptionP1 */
DELTAP1[ ]	/* DeltaExceptionP1 */
MIRP[00001]	/* MoveIndirectRelPt */
SRP2[ ]	/* SetRefPoint2 */
IP[ ]	/* InterpolatePts */
IP[ ]	/* InterpolatePts */
SVTCA[1]	/* SetFreedomAndProjectionVectorToAxis */
SRP0[ ]	/* SetRefPoint0 */
MIRP[10110]	/* MoveIndirectRelPt */
MDRP[00001]	/* MoveDirectRelPt */
MDRP[10100]	/* MoveDirectRelPt */
MIRP[00001]	/* MoveIndirectRelPt */
DELTAP1[ ]	/* DeltaExceptionP1 */
SRP0[ ]	/* SetRefPoint0 */
MIRP[10110]	/* MoveIndirectRelPt */
MIRP[00001]	/* MoveIndirectRelPt */
MDRP[10100]	/* MoveDirectRelPt */
DELTAP1[ ]	/* DeltaExceptionP1 */
DELTAP1[ ]	/* DeltaExceptionP1 */
MDRP[00001]	/* MoveDirectRelPt */
IUP[1]	/* InterpolateUntPts */
IUP[0]	/* InterpolateUntPts */";
};
width = 361;
},
{
layerId = "0ED38B93-C2B0-4B4A-9C6D-D7838A33C317";
shapes = (
{
closed = 1;
nodes = (
(240,-8,o),
(283,6,o),
(314,30,cs),
(343,54,o),
(358,89,o),
(358,133,cs),
(358,170,o),
(343,198,o),
(317,220,cs),
(296,237,o),
(269,250,o),
(237,262,cs),
(193,277,o),
(166,289,o),
(150,301,cs),
(133,314,o),
(127,326,o),
(127,343,cs),
(127,377,o),
(158,393,o),
(192,393,cs),
(238,393,o),
(262,362,o),
(262,309,c),
(321,309,o),
(344,328,o),
(344,364,cs),
(344,382,o),
(334,401,o),
(312,415,cs),
(290,429,o),
(254,438,o),
(204,438,cs),
(158,438,o),
(118,430,o),
(90,414,cs),
(53,393,o),
(32,358,o),
(32,311,cs),
(32,275,o),
(44,248,o),
(66,226,cs),
(90,205,o),
(122,189,o),
(166,174,cs),
(203,161,o),
(228,149,o),
(243,137,cs),
(258,125,o),
(264,111,o),
(264,94,cs),
(264,62,o),
(238,39,o),
(185,39,cs),
(133,39,o),
(98,80,o),
(98,146,c),
(68,146,o),
(24,137,o),
(24,86,cs),
(24,59,o),
(35,35,o),
(61,18,cs),
(86,2,o),
(127,-8,o),
(185,-8,cs)
);
}
);
userData = {
assembly = "NPUSHB[ ]	/* 12 values pushed */
9 63 25 63 2 38 58 1 38 57 1 56 
PUSHW[ ]	/* 1 value pushed */
-8 
PUSHB[ ]	/* 4 values pushed */
9 13 72 55 
PUSHW[ ]	/* 1 value pushed */
-24 
NPUSHB[ ]	/* 19 values pushed */
9 13 72 27 24 9 13 72 2 24 9 13 72 3 24 9 13 72 64 
PUSHW[ ]	/* 1 value pushed */
-16 
NPUSHB[ ]	/* 9 values pushed */
9 13 72 6 38 22 38 2 38 
PUSHW[ ]	/* 1 value pushed */
-24 
NPUSHB[ ]	/* 74 values pushed */
9 13 72 6 32 22 32 2 32 24 9 13 72 59 43 75 43 2 26 43 42 43 2 43 40 57 40 73 40 2 40 20 61 87 67 15 67 47 67 2 51 5 30 86 66 51 61 35 15 30 20 46 8 43 24 43 2 46 43 35 16 4 10 20 10 52 10 68 10 4 15 10 0 22 
SVTCA[0]	/* SetFreedomAndProjectionVectorToAxis */
MIAP[1]	/* MoveIndirectAbsPt */
SHP[0]	/* ShiftPointByLastPoint */
SHP[0]	/* ShiftPointByLastPoint */
DELTAP1[ ]	/* DeltaExceptionP1 */
MIAP[1]	/* MoveIndirectAbsPt */
SHP[1]	/* ShiftPointByLastPoint */
SHP[1]	/* ShiftPointByLastPoint */
DELTAP1[ ]	/* DeltaExceptionP1 */
SRP1[ ]	/* SetRefPoint1 */
IP[ ]	/* InterpolatePts */
IP[ ]	/* InterpolatePts */
SRP1[ ]	/* SetRefPoint1 */
SRP2[ ]	/* SetRefPoint2 */
IP[ ]	/* InterpolatePts */
IP[ ]	/* InterpolatePts */
SVTCA[1]	/* SetFreedomAndProjectionVectorToAxis */
SRP0[ ]	/* SetRefPoint0 */
MIRP[00110]	/* MoveIndirectRelPt */
SHP[0]	/* ShiftPointByLastPoint */
SHP[0]	/* ShiftPointByLastPoint */
DELTAP1[ ]	/* DeltaExceptionP1 */
SRP0[ ]	/* SetRefPoint0 */
MIRP[00110]	/* MoveIndirectRelPt */
SHP[0]	/* ShiftPointByLastPoint */
SHP[0]	/* ShiftPointByLastPoint */
DELTAP1[ ]	/* DeltaExceptionP1 */
SRP1[ ]	/* SetRefPoint1 */
SHP[1]	/* ShiftPointByLastPoint */
DELTAP1[ ]	/* DeltaExceptionP1 */
DELTAP1[ ]	/* DeltaExceptionP1 */
IUP[1]	/* InterpolateUntPts */
IUP[0]	/* InterpolateUntPts */
CALL[ ]	/* CallFunction */
SVTCA[0]	/* SetFreedomAndProjectionVectorToAxis */
DELTAP1[ ]	/* DeltaExceptionP1 */
SVTCA[1]	/* SetFreedomAndProjectionVectorToAxis */
CALL[ ]	/* CallFunction */
SVTCA[0]	/* SetFreedomAndProjectionVectorToAxis */
DELTAP1[ ]	/* DeltaExceptionP1 */
SVTCA[1]	/* SetFreedomAndProjectionVectorToAxis */
CALL[ ]	/* CallFunction */
CALL[ ]	/* CallFunction */
CALL[ ]	/* CallFunction */
CALL[ ]	/* CallFunction */
SVTCA[0]	/* SetFreedomAndProjectionVectorToAxis */
CALL[ ]	/* CallFunction */
CALL[ ]	/* CallFunction */
DELTAP1[ ]	/* DeltaExceptionP1 */
DELTAP1[ ]	/* DeltaExceptionP1 */
DELTAP1[ ]	/* DeltaExceptionP1 */";
};
width = 390;
}
);
note = uni0073;
unicode = 115;
},
{
color = 10;
glyphname = t;
lastChange = "2022-01-06 02:32:25 +0000";
layers = (
{
layerId = "4397B867-53E7-4964-BB9B-A578920F109C";
shapes = (
{
closed = 1;
nodes = (
(218,-8,o),
(248,-2,o),
(263,5,c),
(263,40,l),
(246,37,o),
(231,34,o),
(212,34,cs),
(175,34,o),
(151,59,o),
(151,114,cs),
(151,383,l),
(256,383,l),
(256,429,l),
(151,429,l),
(151,527,l),
(114,527,l),
(106,486,o),
(96,461,o),
(78,441,cs),
(60,422,o),
(34,415,o),
(15,415,c),
(15,383,l),
(76,383,l),
(76,116,ls),
(76,25,o),
(110,-8,o),
(192,-8,cs)
);
}
);
userData = {
assembly = "NPUSHB[ ]	/* 19 values pushed */
63 33 207 33 2 25 29 71 14 28 16 79 24 25 15 0 78 9 22 
SVTCA[0]	/* SetFreedomAndProjectionVectorToAxis */
MIAP[1]	/* MoveIndirectAbsPt */
MIRP[00001]	/* MoveIndirectRelPt */
MIAP[1]	/* MoveIndirectAbsPt */
MDRP[01101]	/* MoveDirectRelPt */
MIRP[00001]	/* MoveIndirectRelPt */
SHP[0]	/* ShiftPointByLastPoint */
SVTCA[1]	/* SetFreedomAndProjectionVectorToAxis */
MDAP[1]	/* MoveDirectAbsPt */
MIRP[00001]	/* MoveIndirectRelPt */
SHP[0]	/* ShiftPointByLastPoint */
DELTAP1[ ]	/* DeltaExceptionP1 */
IUP[1]	/* InterpolateUntPts */
IUP[0]	/* InterpolateUntPts */";
};
width = 282;
},
{
layerId = "0ED38B93-C2B0-4B4A-9C6D-D7838A33C317";
shapes = (
{
closed = 1;
nodes = (
(248,-8,o),
(290,3,o),
(308,12,c),
(308,64,l),
(291,60,o),
(272,57,o),
(251,57,cs),
(214,57,o),
(198,78,o),
(198,126,cs),
(198,374,l),
(301,374,l),
(301,429,l),
(198,429,l),
(198,528,l),
(132,528,l),
(124,493,o),
(112,466,o),
(95,449,cs),
(79,431,o),
(51,415,o),
(17,415,c),
(17,374,l),
(77,374,l),
(77,118,ls),
(77,24,o),
(122,-8,o),
(194,-8,cs)
);
}
);
userData = {
assembly = "NPUSHB[ ]	/* 52 values pushed */
12 32 9 16 72 26 28 0 4 16 4 2 4 4 32 128 32 1 47 32 95 32 2 24 28 28 16 112 14 128 14 2 95 14 1 0 14 16 14 2 14 16 27 17 23 27 3 24 15 0 9 22 
SVTCA[0]	/* SetFreedomAndProjectionVectorToAxis */
MIAP[1]	/* MoveIndirectAbsPt */
SHP[1]	/* ShiftPointByLastPoint */
MIAP[1]	/* MoveIndirectAbsPt */
SLOOP[ ]	/* SetLoopVariable */
SHP[1]	/* ShiftPointByLastPoint */
SRP1[ ]	/* SetRefPoint1 */
SHP[1]	/* ShiftPointByLastPoint */
SVTCA[1]	/* SetFreedomAndProjectionVectorToAxis */
MDAP[1]	/* MoveDirectAbsPt */
DELTAP1[ ]	/* DeltaExceptionP1 */
DELTAP1[ ]	/* DeltaExceptionP1 */
DELTAP1[ ]	/* DeltaExceptionP1 */
SHP[1]	/* ShiftPointByLastPoint */
SHP[1]	/* ShiftPointByLastPoint */
SRP1[ ]	/* SetRefPoint1 */
SHP[1]	/* ShiftPointByLastPoint */
DELTAP1[ ]	/* DeltaExceptionP1 */
DELTAP1[ ]	/* DeltaExceptionP1 */
SRP1[ ]	/* SetRefPoint1 */
SHP[1]	/* ShiftPointByLastPoint */
MDAP[1]	/* MoveDirectAbsPt */
DELTAP1[ ]	/* DeltaExceptionP1 */
SRP2[ ]	/* SetRefPoint2 */
IP[ ]	/* InterpolatePts */
IUP[1]	/* InterpolateUntPts */
IUP[0]	/* InterpolateUntPts */
CALL[ ]	/* CallFunction */";
};
width = 324;
}
);
note = uni0074;
unicode = 116;
},
{
color = 10;
glyphname = u;
lastChange = "2022-01-06 02:32:25 +0000";
layers = (
{
layerId = "4397B867-53E7-4964-BB9B-A578920F109C";
shapes = (
{
closed = 1;
nodes = (
(270,-8,o),
(316,5,o),
(348,65,c),
(352,65,l),
(362,0,l),
(490,0,l),
(490,34,l),
(487,34,ls),
(451,34,o),
(422,40,o),
(422,87,cs),
(422,429,l),
(278,429,l),
(278,395,l),
(281,395,ls),
(318,395,o),
(346,387,o),
(346,338,cs),
(346,173,ls),
(346,95,o),
(316,43,o),
(246,43,cs),
(182,43,o),
(162,82,o),
(162,153,cs),
(162,429,l),
(18,429,l),
(18,395,l),
(21,395,ls),
(56,395,o),
(86,387,o),
(86,341,cs),
(86,149,ls),
(86,38,o),
(134,-8,o),
(218,-8,cs)
);
}
);
userData = {
assembly = "NPUSHB[ ]	/* 33 values pushed */
40 71 0 85 51 127 51 159 51 207 51 3 30 71 20 84 50 10 15 46 27 77 48 28 15 35 80 15 22 5 77 8 21 
SVTCA[0]	/* SetFreedomAndProjectionVectorToAxis */
MIAP[1]	/* MoveIndirectAbsPt */
MIRP[00001]	/* MoveIndirectRelPt */
MIAP[1]	/* MoveIndirectAbsPt */
MIRP[00001]	/* MoveIndirectRelPt */
MIAP[1]	/* MoveIndirectAbsPt */
SHP[1]	/* ShiftPointByLastPoint */
MIRP[00001]	/* MoveIndirectRelPt */
SHP[0]	/* ShiftPointByLastPoint */
SRP1[ ]	/* SetRefPoint1 */
IP[ ]	/* InterpolatePts */
SVTCA[1]	/* SetFreedomAndProjectionVectorToAxis */
SRP0[ ]	/* SetRefPoint0 */
MIRP[10110]	/* MoveIndirectRelPt */
MIRP[00001]	/* MoveIndirectRelPt */
DELTAP1[ ]	/* DeltaExceptionP1 */
SRP0[ ]	/* SetRefPoint0 */
MIRP[10100]	/* MoveIndirectRelPt */
MIRP[00001]	/* MoveIndirectRelPt */
IUP[1]	/* InterpolateUntPts */
IUP[0]	/* InterpolateUntPts */";
};
width = 508;
},
{
layerId = "0ED38B93-C2B0-4B4A-9C6D-D7838A33C317";
shapes = (
{
closed = 1;
nodes = (
(258,-8,o),
(301,2,o),
(333,57,c),
(337,57,l),
(354,0,l),
(514,0,l),
(514,42,l),
(507,42,ls),
(476,42,o),
(454,46,o),
(454,93,cs),
(454,429,l),
(272,429,l),
(272,386,l),
(274,386,ls),
(306,386,o),
(332,382,o),
(332,335,cs),
(332,182,ls),
(332,122,o),
(318,60,o),
(259,60,cs),
(212,60,o),
(198,105,o),
(198,173,cs),
(198,429,l),
(21,429,l),
(21,386,l),
(22,386,ls),
(61,386,o),
(77,376,o),
(77,330,cs),
(77,150,ls),
(77,42,o),
(123,-8,o),
(206,-8,cs)
);
}
);
userData = {
assembly = "NPUSHB[ ]	/* 40 values pushed */
8 28 1 9 24 9 13 72 1 30 30 40 85 49 16 49 64 49 2 20 10 84 48 37 16 16 38 18 15 9 1 1 1 25 25 7 22 45 0 21 
SVTCA[0]	/* SetFreedomAndProjectionVectorToAxis */
MIAP[1]	/* MoveIndirectAbsPt */
SHP[0]	/* ShiftPointByLastPoint */
MIAP[1]	/* MoveIndirectAbsPt */
SHP[1]	/* ShiftPointByLastPoint */
SRP1[ ]	/* SetRefPoint1 */
SHP[1]	/* ShiftPointByLastPoint */
DELTAP1[ ]	/* DeltaExceptionP1 */
MIAP[1]	/* MoveIndirectAbsPt */
SHP[1]	/* ShiftPointByLastPoint */
SHP[1]	/* ShiftPointByLastPoint */
SRP1[ ]	/* SetRefPoint1 */
SHP[1]	/* ShiftPointByLastPoint */
SVTCA[1]	/* SetFreedomAndProjectionVectorToAxis */
SRP0[ ]	/* SetRefPoint0 */
MIRP[00110]	/* MoveIndirectRelPt */
SHP[0]	/* ShiftPointByLastPoint */
DELTAP1[ ]	/* DeltaExceptionP1 */
SRP0[ ]	/* SetRefPoint0 */
MIRP[00100]	/* MoveIndirectRelPt */
SHP[0]	/* ShiftPointByLastPoint */
SRP1[ ]	/* SetRefPoint1 */
SHP[1]	/* ShiftPointByLastPoint */
IUP[1]	/* InterpolateUntPts */
IUP[0]	/* InterpolateUntPts */
CALL[ ]	/* CallFunction */
DELTAP1[ ]	/* DeltaExceptionP1 */";
};
width = 534;
}
);
note = uni0075;
unicode = 117;
},
